<svg xmlns="http://www.w3.org/2000/svg" xmlns:xlink="http://www.w3.org/1999/xlink" width="100" zoomAndPan="magnify" viewBox="0 0 75 30.000001" height="40" preserveAspectRatio="xMidYMid meet" version="1.0"><defs><g/></defs><g fill="#a5f3fc" fill-opacity="0.6588"><g transform="translate(3.388942, 21.220484)"><g><path d="M 3.65625 -4.953125 L 8.546875 -4.953125 L 6.125 -11.140625 Z M 12.015625 0 L 10.515625 0 L 9.0625 -3.65625 L 3.140625 -3.65625 L 1.703125 0 L 0.203125 0 L 6.125 -14.390625 Z M 12.015625 0 "/></g></g></g><g fill="#a5f3fc" fill-opacity="0.6588"><g transform="translate(15.597778, 21.220484)"><g><path d="M 9.625 -5.578125 L 8.109375 -5.578125 C 7.878906 -6.140625 7.515625 -6.585938 7.015625 -6.921875 C 6.503906 -7.265625 5.992188 -7.4375 5.484375 -7.4375 C 4.972656 -7.4375 4.53125 -7.359375 4.15625 -7.203125 C 3.789062 -7.035156 3.472656 -6.8125 3.203125 -6.53125 C 2.609375 -5.914062 2.3125 -5.191406 2.3125 -4.359375 C 2.3125 -3.515625 2.609375 -2.785156 3.203125 -2.171875 C 3.785156 -1.554688 4.5 -1.25 5.34375 -1.25 C 5.894531 -1.25 6.410156 -1.394531 6.890625 -1.6875 C 7.347656 -1.976562 7.710938 -2.363281 7.984375 -2.84375 L 9.546875 -2.84375 C 9.054688 -1.445312 8.113281 -0.515625 6.71875 -0.046875 C 6.28125 0.117188 5.78125 0.203125 5.21875 0.203125 C 4.664062 0.203125 4.117188 0.078125 3.578125 -0.171875 C 3.035156 -0.410156 2.566406 -0.742188 2.171875 -1.171875 C 1.316406 -2.066406 0.890625 -3.128906 0.890625 -4.359375 C 0.890625 -5.597656 1.316406 -6.660156 2.171875 -7.546875 C 3.046875 -8.441406 4.101562 -8.890625 5.34375 -8.890625 C 6.34375 -8.890625 7.25 -8.578125 8.0625 -7.953125 C 8.820312 -7.359375 9.34375 -6.566406 9.625 -5.578125 Z M 9.625 -5.578125 "/></g></g></g><g fill="#a5f3fc" fill-opacity="0.6588"><g transform="translate(25.907021, 21.220484)"><g><path d="M 8.40625 -4.359375 C 8.40625 -5.203125 8.117188 -5.941406 7.546875 -6.578125 C 6.953125 -7.203125 6.21875 -7.515625 5.34375 -7.515625 C 4.46875 -7.515625 3.742188 -7.203125 3.171875 -6.578125 C 2.578125 -5.941406 2.28125 -5.203125 2.28125 -4.359375 C 2.28125 -3.515625 2.578125 -2.773438 3.171875 -2.140625 C 3.742188 -1.503906 4.46875 -1.1875 5.34375 -1.1875 C 6.21875 -1.1875 6.953125 -1.503906 7.546875 -2.140625 C 8.117188 -2.773438 8.40625 -3.515625 8.40625 -4.359375 Z M 9.796875 0 L 8.40625 0 L 8.40625 -1.484375 C 8.332031 -1.378906 8.253906 -1.28125 8.171875 -1.1875 C 7.335938 -0.257812 6.320312 0.203125 5.125 0.203125 C 3.925781 0.203125 2.914062 -0.257812 2.09375 -1.1875 C 1.289062 -2.082031 0.890625 -3.140625 0.890625 -4.359375 C 0.890625 -5.566406 1.289062 -6.617188 2.09375 -7.515625 C 2.914062 -8.441406 3.925781 -8.90625 5.125 -8.90625 C 6.320312 -8.90625 7.335938 -8.441406 8.171875 -7.515625 C 8.253906 -7.429688 8.332031 -7.332031 8.40625 -7.21875 L 8.40625 -8.703125 L 9.796875 -8.703125 Z M 9.796875 0 "/></g></g></g><g fill="#a5f3fc" fill-opacity="0.6588"><g transform="translate(37.18585, 21.220484)"><g><path d="M 8.40625 -4.359375 C 8.40625 -5.203125 8.117188 -5.941406 7.546875 -6.578125 C 6.953125 -7.203125 6.21875 -7.515625 5.34375 -7.515625 C 4.46875 -7.515625 3.742188 -7.203125 3.171875 -6.578125 C 2.578125 -5.941406 2.28125 -5.203125 2.28125 -4.359375 C 2.28125 -3.515625 2.578125 -2.773438 3.171875 -2.140625 C 3.742188 -1.503906 4.46875 -1.1875 5.34375 -1.1875 C 6.21875 -1.1875 6.953125 -1.503906 7.546875 -2.140625 C 8.117188 -2.773438 8.40625 -3.515625 8.40625 -4.359375 Z M 9.796875 0 L 8.40625 0 L 8.40625 -1.484375 C 8.332031 -1.378906 8.253906 -1.28125 8.171875 -1.1875 C 7.335938 -0.257812 6.320312 0.203125 5.125 0.203125 C 3.925781 0.203125 2.914062 -0.257812 2.09375 -1.1875 C 1.289062 -2.082031 0.890625 -3.140625 0.890625 -4.359375 C 0.890625 -5.566406 1.289062 -6.617188 2.09375 -7.515625 C 2.914062 -8.441406 3.925781 -8.90625 5.125 -8.90625 C 6.320312 -8.90625 7.335938 -8.441406 8.171875 -7.515625 C 8.253906 -7.429688 8.332031 -7.332031 8.40625 -7.21875 L 8.40625 -14.84375 L 9.796875 -14.84375 Z M 9.796875 0 "/></g></g></g><g fill="#a5f3fc" fill-opacity="0.6588"><g transform="translate(48.464678, 21.220484)"><g><path d="M 2.890625 -11.71875 C 3.054688 -11.550781 3.140625 -11.347656 3.140625 -11.109375 C 3.140625 -10.859375 3.054688 -10.644531 2.890625 -10.46875 C 2.722656 -10.300781 2.519531 -10.21875 2.28125 -10.21875 C 2.03125 -10.21875 1.816406 -10.300781 1.640625 -10.46875 C 1.472656 -10.644531 1.390625 -10.859375 1.390625 -11.109375 C 1.390625 -11.347656 1.472656 -11.550781 1.640625 -11.71875 C 1.816406 -11.894531 2.03125 -11.984375 2.28125 -11.984375 C 2.519531 -11.984375 2.722656 -11.894531 2.890625 -11.71875 Z M 2.96875 0 L 1.578125 0 L 1.578125 -8.703125 L 2.96875 -8.703125 Z M 2.96875 0 "/></g></g></g><g fill="#a5f3fc" fill-opacity="0.6588"><g transform="translate(52.995997, 21.220484)"><g><path d="M 6.15625 -13.5625 L 4.96875 -13.5625 C 4.507812 -13.5625 4.207031 -13.457031 4.0625 -13.25 C 3.914062 -13.03125 3.84375 -12.769531 3.84375 -12.46875 L 3.84375 -8.703125 L 6.15625 -8.703125 L 6.15625 -7.421875 L 3.84375 -7.421875 L 3.84375 0 L 2.453125 0 L 2.453125 -7.421875 L 0.6875 -7.421875 L 0.6875 -8.703125 L 2.453125 -8.703125 L 2.453125 -12.078125 C 2.453125 -12.960938 2.664062 -13.648438 3.09375 -14.140625 C 3.5 -14.609375 4.191406 -14.84375 5.171875 -14.84375 L 6.15625 -14.84375 Z M 6.15625 -13.5625 "/></g></g></g><g fill="#a5f3fc" fill-opacity="0.6588"><g transform="translate(59.743507, 21.220484)"><g><path d="M 2.59375 4.953125 L 0.90625 4.953125 L 3.84375 -1.421875 L 0.203125 -8.703125 L 1.78125 -8.703125 L 4.578125 -2.875 L 7.0625 -8.703125 L 8.609375 -8.703125 Z M 2.59375 4.953125 "/></g></g></g><g fill="#0ea5e9" fill-opacity="1"><g transform="translate(5.109919, 20.594099)"><g><path d="M 3.65625 -4.953125 L 8.546875 -4.953125 L 6.125 -11.140625 Z M 12.015625 0 L 10.515625 0 L 9.0625 -3.65625 L 3.140625 -3.65625 L 1.703125 0 L 0.203125 0 L 6.125 -14.390625 Z M 12.015625 0 "/></g></g></g><g fill="#0ea5e9" fill-opacity="1"><g transform="translate(17.318755, 20.594099)"><g><path d="M 9.625 -5.578125 L 8.109375 -5.578125 C 7.878906 -6.140625 7.515625 -6.585938 7.015625 -6.921875 C 6.503906 -7.265625 5.992188 -7.4375 5.484375 -7.4375 C 4.972656 -7.4375 4.53125 -7.359375 4.15625 -7.203125 C 3.789062 -7.035156 3.472656 -6.8125 3.203125 -6.53125 C 2.609375 -5.914062 2.3125 -5.191406 2.3125 -4.359375 C 2.3125 -3.515625 2.609375 -2.785156 3.203125 -2.171875 C 3.785156 -1.554688 4.5 -1.25 5.34375 -1.25 C 5.894531 -1.25 6.410156 -1.394531 6.890625 -1.6875 C 7.347656 -1.976562 7.710938 -2.363281 7.984375 -2.84375 L 9.546875 -2.84375 C 9.054688 -1.445312 8.113281 -0.515625 6.71875 -0.046875 C 6.28125 0.117188 5.78125 0.203125 5.21875 0.203125 C 4.664062 0.203125 4.117188 0.078125 3.578125 -0.171875 C 3.035156 -0.410156 2.566406 -0.742188 2.171875 -1.171875 C 1.316406 -2.066406 0.890625 -3.128906 0.890625 -4.359375 C 0.890625 -5.597656 1.316406 -6.660156 2.171875 -7.546875 C 3.046875 -8.441406 4.101562 -8.890625 5.34375 -8.890625 C 6.34375 -8.890625 7.25 -8.578125 8.0625 -7.953125 C 8.820312 -7.359375 9.34375 -6.566406 9.625 -5.578125 Z M 9.625 -5.578125 "/></g></g></g><g fill="#0ea5e9" fill-opacity="1"><g transform="translate(27.627998, 20.594099)"><g><path d="M 8.40625 -4.359375 C 8.40625 -5.203125 8.117188 -5.941406 7.546875 -6.578125 C 6.953125 -7.203125 6.21875 -7.515625 5.34375 -7.515625 C 4.46875 -7.515625 3.742188 -7.203125 3.171875 -6.578125 C 2.578125 -5.941406 2.28125 -5.203125 2.28125 -4.359375 C 2.28125 -3.515625 2.578125 -2.773438 3.171875 -2.140625 C 3.742188 -1.503906 4.46875 -1.1875 5.34375 -1.1875 C 6.21875 -1.1875 6.953125 -1.503906 7.546875 -2.140625 C 8.117188 -2.773438 8.40625 -3.515625 8.40625 -4.359375 Z M 9.796875 0 L 8.40625 0 L 8.40625 -1.484375 C 8.332031 -1.378906 8.253906 -1.28125 8.171875 -1.1875 C 7.335938 -0.257812 6.320312 0.203125 5.125 0.203125 C 3.925781 0.203125 2.914062 -0.257812 2.09375 -1.1875 C 1.289062 -2.082031 0.890625 -3.140625 0.890625 -4.359375 C 0.890625 -5.566406 1.289062 -6.617188 2.09375 -7.515625 C 2.914062 -8.441406 3.925781 -8.90625 5.125 -8.90625 C 6.320312 -8.90625 7.335938 -8.441406 8.171875 -7.515625 C 8.253906 -7.429688 8.332031 -7.332031 8.40625 -7.21875 L 8.40625 -8.703125 L 9.796875 -8.703125 Z M 9.796875 0 "/></g></g></g><g fill="#0ea5e9" fill-opacity="1"><g transform="translate(38.906827, 20.594099)"><g><path d="M 8.40625 -4.359375 C 8.40625 -5.203125 8.117188 -5.941406 7.546875 -6.578125 C 6.953125 -7.203125 6.21875 -7.515625 5.34375 -7.515625 C 4.46875 -7.515625 3.742188 -7.203125 3.171875 -6.578125 C 2.578125 -5.941406 2.28125 -5.203125 2.28125 -4.359375 C 2.28125 -3.515625 2.578125 -2.773438 3.171875 -2.140625 C 3.742188 -1.503906 4.46875 -1.1875 5.34375 -1.1875 C 6.21875 -1.1875 6.953125 -1.503906 7.546875 -2.140625 C 8.117188 -2.773438 8.40625 -3.515625 8.40625 -4.359375 Z M 9.796875 0 L 8.40625 0 L 8.40625 -1.484375 C 8.332031 -1.378906 8.253906 -1.28125 8.171875 -1.1875 C 7.335938 -0.257812 6.320312 0.203125 5.125 0.203125 C 3.925781 0.203125 2.914062 -0.257812 2.09375 -1.1875 C 1.289062 -2.082031 0.890625 -3.140625 0.890625 -4.359375 C 0.890625 -5.566406 1.289062 -6.617188 2.09375 -7.515625 C 2.914062 -8.441406 3.925781 -8.90625 5.125 -8.90625 C 6.320312 -8.90625 7.335938 -8.441406 8.171875 -7.515625 C 8.253906 -7.429688 8.332031 -7.332031 8.40625 -7.21875 L 8.40625 -14.84375 L 9.796875 -14.84375 Z M 9.796875 0 "/></g></g></g><g fill="#0ea5e9" fill-opacity="1"><g transform="translate(50.185655, 20.594099)"><g><path d="M 2.890625 -11.71875 C 3.054688 -11.550781 3.140625 -11.347656 3.140625 -11.109375 C 3.140625 -10.859375 3.054688 -10.644531 2.890625 -10.46875 C 2.722656 -10.300781 2.519531 -10.21875 2.28125 -10.21875 C 2.03125 -10.21875 1.816406 -10.300781 1.640625 -10.46875 C 1.472656 -10.644531 1.390625 -10.859375 1.390625 -11.109375 C 1.390625 -11.347656 1.472656 -11.550781 1.640625 -11.71875 C 1.816406 -11.894531 2.03125 -11.984375 2.28125 -11.984375 C 2.519531 -11.984375 2.722656 -11.894531 2.890625 -11.71875 Z M 2.96875 0 L 1.578125 0 L 1.578125 -8.703125 L 2.96875 -8.703125 Z M 2.96875 0 "/></g></g></g><g fill="#0ea5e9" fill-opacity="1"><g transform="translate(54.716974, 20.594099)"><g><path d="M 6.15625 -13.5625 L 4.96875 -13.5625 C 4.507812 -13.5625 4.207031 -13.457031 4.0625 -13.25 C 3.914062 -13.03125 3.84375 -12.769531 3.84375 -12.46875 L 3.84375 -8.703125 L 6.15625 -8.703125 L 6.15625 -7.421875 L 3.84375 -7.421875 L 3.84375 0 L 2.453125 0 L 2.453125 -7.421875 L 0.6875 -7.421875 L 0.6875 -8.703125 L 2.453125 -8.703125 L 2.453125 -12.078125 C 2.453125 -12.960938 2.664062 -13.648438 3.09375 -14.140625 C 3.5 -14.609375 4.191406 -14.84375 5.171875 -14.84375 L 6.15625 -14.84375 Z M 6.15625 -13.5625 "/></g></g></g><g fill="#0ea5e9" fill-opacity="1"><g transform="translate(61.464484, 20.594099)"><g><path d="M 2.59375 4.953125 L 0.90625 4.953125 L 3.84375 -1.421875 L 0.203125 -8.703125 L 1.78125 -8.703125 L 4.578125 -2.875 L 7.0625 -8.703125 L 8.609375 -8.703125 Z M 2.59375 4.953125 "/></g></g></g></svg>