<svg xmlns="http://www.w3.org/2000/svg" xmlns:xlink="http://www.w3.org/1999/xlink" width="122" zoomAndPan="magnify" viewBox="0 0 91.5 30.000001" height="40" preserveAspectRatio="xMidYMid meet" version="1.0"><defs><g/><clipPath id="00aaf5f569"><path d="M 2.121094 1 L 28.417969 1 L 28.417969 22 L 2.121094 22 Z M 2.121094 1 " clip-rule="nonzero"/></clipPath><clipPath id="23b98deb28"><path d="M 3 10 L 27.417969 10 L 27.417969 26 L 3 26 Z M 3 10 " clip-rule="nonzero"/></clipPath><clipPath id="46ba42b205"><path d="M 3 1 L 27.417969 1 L 27.417969 22 L 3 22 Z M 3 1 " clip-rule="nonzero"/></clipPath></defs><path fill="#b1d0fd" d="M 13.972656 26.636719 C 13.761719 26.601562 13.289062 26.535156 12.914062 26.484375 L 12.234375 26.386719 L 11.980469 26.261719 L 11.722656 26.132812 L 11.515625 26.132812 C 11.292969 26.132812 10.96875 25.984375 10.882812 25.847656 L 10.824219 25.773438 L 10.386719 25.773438 L 10.230469 25.625 C 10.148438 25.550781 10.019531 25.480469 9.949219 25.464844 C 9.882812 25.445312 9.804688 25.394531 9.796875 25.351562 L 9.761719 25.273438 L 9.675781 25.328125 L 9.582031 25.386719 L 9.460938 25.230469 C 9.402344 25.136719 9.351562 25.09375 9.351562 25.128906 L 9.351562 25.199219 L 9.160156 25.09375 C 9.050781 25.035156 8.671875 24.804688 8.324219 24.566406 L 7.679688 24.136719 L 7.226562 23.699219 C 6.976562 23.460938 6.722656 23.238281 6.652344 23.195312 C 6.488281 23.109375 5.214844 21.574219 4.8125 20.992188 C 4.640625 20.738281 4.296875 20.128906 4.058594 19.65625 L 3.621094 18.792969 L 3.398438 18.089844 L 3.175781 17.398438 L 3.203125 17.21875 L 3.226562 17.027344 L 3.363281 16.945312 L 3.5 16.859375 L 3.722656 16.917969 L 3.945312 16.96875 L 4.160156 17.679688 L 4.375 18.382812 L 4.710938 19.066406 C 5.539062 20.753906 7.140625 22.707031 8.304688 23.453125 C 8.503906 23.578125 8.664062 23.714844 8.664062 23.75 L 8.664062 23.820312 L 8.828125 23.820312 C 8.921875 23.820312 9.015625 23.855469 9.042969 23.898438 C 9.066406 23.929688 9.496094 24.171875 9.992188 24.417969 L 10.890625 24.871094 L 10.890625 25.027344 L 10.96875 24.984375 L 11.046875 24.933594 L 11.328125 25.027344 C 11.492188 25.085938 11.664062 25.171875 11.714844 25.242188 L 11.800781 25.351562 L 12.398438 25.480469 C 12.722656 25.550781 13.21875 25.644531 13.511719 25.695312 L 14.027344 25.789062 L 16.527344 25.789062 L 16.628906 25.515625 L 16.738281 25.601562 L 16.84375 25.695312 L 17.398438 25.617188 C 18.160156 25.515625 18.5625 25.402344 18.820312 25.242188 L 19.035156 25.09375 L 19.121094 25.148438 L 19.207031 25.207031 L 19.410156 25.070312 C 19.523438 24.992188 19.824219 24.855469 20.070312 24.761719 C 20.320312 24.667969 20.601562 24.554688 20.695312 24.511719 C 20.789062 24.46875 20.996094 24.382812 21.148438 24.332031 L 21.433594 24.222656 L 21.519531 24.066406 L 21.605469 23.90625 L 21.945312 23.90625 L 21.988281 23.777344 L 22.039062 23.65625 L 22.417969 23.476562 L 22.792969 23.289062 L 23.460938 22.636719 C 23.828125 22.269531 24.34375 21.730469 24.601562 21.429688 L 25.0625 20.882812 L 25.472656 20.1875 C 25.695312 19.804688 26.011719 19.222656 26.175781 18.886719 L 26.46875 18.277344 L 26.714844 17.429688 C 26.851562 16.960938 27 16.394531 27.03125 16.164062 L 27.09375 15.734375 L 26.820312 15.496094 L 26.542969 15.265625 L 26.246094 15.207031 L 25.953125 15.152344 L 24.625 15.1875 L 23.300781 15.230469 L 23.042969 14.921875 L 22.792969 14.613281 L 22.71875 14.332031 L 22.632812 14.050781 L 22.769531 13.328125 L 22.898438 12.609375 L 22.84375 12.398438 L 22.792969 12.191406 L 22.347656 11.660156 L 21.972656 11.660156 L 21.808594 11.496094 L 21.425781 11.609375 L 21.039062 11.71875 L 20.859375 12.054688 L 20.679688 12.386719 L 20.320312 14.382812 L 19.96875 16.378906 L 19.804688 16.695312 L 19.644531 17.011719 L 19.34375 17.304688 L 19.035156 17.59375 L 18.589844 17.6875 L 18.144531 17.792969 L 17.183594 17.621094 L 16.378906 16.816406 L 16.234375 16.328125 L 16.097656 15.832031 L 16.414062 14.023438 C 16.75 12.132812 16.792969 11.976562 17.046875 11.839844 L 17.203125 11.753906 L 17.390625 11.925781 L 17.570312 12.097656 L 17.570312 12.214844 C 17.570312 12.285156 17.433594 13.132812 17.261719 14.109375 L 16.953125 15.875 L 17.109375 16.214844 L 17.261719 16.566406 L 17.527344 16.722656 L 17.785156 16.882812 L 18.425781 16.882812 L 18.761719 16.582031 L 19.09375 16.277344 L 19.1875 15.875 C 19.242188 15.652344 19.421875 14.699219 19.582031 13.757812 L 19.890625 12.046875 L 20.105469 11.601562 L 20.320312 11.164062 L 20.507812 11.042969 C 20.730469 10.898438 21.519531 10.632812 21.722656 10.632812 C 21.800781 10.632812 22.082031 10.691406 22.347656 10.769531 L 22.835938 10.90625 L 23.195312 11.285156 L 23.546875 11.652344 L 23.648438 12.132812 L 23.753906 12.609375 L 23.632812 13.328125 L 23.503906 14.039062 L 23.777344 14.484375 L 25.234375 14.496094 C 26.03125 14.496094 26.777344 14.511719 26.886719 14.539062 L 27.082031 14.570312 L 27.667969 15.015625 L 27.957031 15.789062 L 27.863281 16.429688 L 27.761719 17.070312 L 27.445312 18.015625 L 27.136719 18.957031 L 26.757812 19.691406 L 26.375 20.4375 L 25.738281 21.335938 L 25.105469 22.242188 L 24.25 23.082031 L 23.386719 23.929688 L 22.65625 24.46875 L 21.921875 25.007812 L 21.800781 24.957031 L 21.679688 24.914062 L 21.628906 25.050781 L 21.578125 25.191406 L 21.5 25.136719 L 21.425781 25.09375 L 21.425781 25.242188 L 21.117188 25.386719 L 20.816406 25.53125 L 20.722656 25.480469 L 20.628906 25.421875 L 20.507812 25.574219 C 20.449219 25.667969 20.394531 25.710938 20.394531 25.6875 C 20.394531 25.652344 20.292969 25.675781 20.171875 25.746094 L 19.949219 25.859375 L 19.832031 25.816406 L 19.710938 25.773438 L 19.660156 25.917969 L 19.601562 26.054688 L 19.402344 26.011719 L 19.207031 25.960938 L 19.121094 26.105469 C 19.070312 26.191406 19.027344 26.234375 19.027344 26.191406 L 19.027344 26.132812 L 18.8125 26.269531 L 18.589844 26.414062 L 18.488281 26.3125 L 18.339844 26.386719 C 18.265625 26.429688 17.878906 26.507812 17.476562 26.558594 L 16.757812 26.652344 L 15.558594 26.671875 L 14.359375 26.6875 Z M 13.972656 26.636719 " fill-opacity="1" fill-rule="nonzero"/><g clip-path="url(#00aaf5f569)"><path fill="#b1d0fd" d="M 10.566406 21.960938 L 10.273438 21.925781 L 9.8125 21.449219 L 9.351562 20.96875 L 9.265625 20.660156 C 9.128906 20.171875 9.160156 19.8125 9.480469 18.015625 C 9.648438 17.089844 9.933594 15.488281 10.113281 14.453125 L 10.445312 12.585938 L 10.359375 12.3125 L 10.273438 12.046875 L 10.070312 11.855469 L 9.863281 11.667969 L 9.246094 11.550781 L 8.90625 11.667969 L 8.570312 11.78125 L 8.410156 11.976562 L 8.253906 12.183594 L 8.152344 12.800781 C 8.101562 13.132812 7.996094 13.613281 7.9375 13.851562 L 7.808594 14.289062 L 7.519531 14.65625 C 7.355469 14.863281 7.148438 15.066406 7.054688 15.121094 L 6.875 15.214844 L 5.195312 15.207031 L 3.519531 15.195312 L 3.175781 14.820312 L 2.832031 14.441406 L 2.78125 14.238281 L 2.730469 14.03125 L 2.789062 12.996094 L 2.84375 11.960938 L 3.023438 11.230469 C 3.375 9.742188 3.957031 8.355469 4.667969 7.285156 C 5.683594 5.769531 5.875 5.527344 6.78125 4.664062 L 7.335938 4.132812 L 7.441406 4.125 C 7.492188 4.125 7.59375 4.054688 7.65625 3.960938 L 7.765625 3.808594 L 7.964844 3.746094 L 8.152344 3.6875 L 8.152344 3.535156 L 8.535156 3.363281 C 8.742188 3.269531 9.085938 3.082031 9.296875 2.933594 C 9.511719 2.789062 9.71875 2.667969 9.761719 2.667969 C 9.8125 2.667969 9.871094 2.609375 9.898438 2.53125 L 9.949219 2.394531 L 10.078125 2.445312 L 10.214844 2.496094 L 10.402344 2.386719 C 10.507812 2.335938 10.660156 2.230469 10.738281 2.164062 L 10.882812 2.042969 L 11.054688 2.09375 L 11.226562 2.136719 L 11.320312 2.027344 L 11.414062 1.914062 L 11.6875 1.863281 C 11.84375 1.828125 12.054688 1.804688 12.175781 1.804688 L 12.390625 1.796875 L 12.449219 1.703125 L 12.511719 1.597656 L 12.851562 1.597656 L 13.1875 1.589844 L 13.316406 1.480469 L 13.453125 1.375 L 14.1875 1.445312 L 14.683594 1.34375 L 15.171875 1.246094 L 15.214844 1.289062 C 15.300781 1.367188 15.636719 1.394531 16.441406 1.382812 L 17.246094 1.375 L 17.382812 1.496094 L 17.527344 1.625 L 17.828125 1.625 C 17.988281 1.617188 18.195312 1.648438 18.273438 1.683594 C 18.359375 1.71875 18.53125 1.753906 18.65625 1.753906 L 18.898438 1.769531 L 19.019531 1.882812 L 19.136719 2 L 19.292969 1.957031 L 19.445312 1.914062 L 19.546875 2.035156 L 19.644531 2.15625 L 19.941406 2.15625 L 20.730469 2.539062 C 21.160156 2.753906 21.570312 2.925781 21.636719 2.925781 C 21.699219 2.925781 21.773438 2.960938 21.808594 3.003906 C 21.835938 3.054688 22.132812 3.269531 22.476562 3.492188 C 22.8125 3.714844 23.1875 3.988281 23.308594 4.089844 C 23.425781 4.191406 23.753906 4.492188 24.035156 4.742188 C 26.109375 6.597656 27.46875 9.167969 27.972656 12.191406 L 28.027344 12.507812 L 27.828125 12.679688 C 27.597656 12.902344 27.488281 12.902344 27.316406 12.714844 L 27.179688 12.558594 L 27.074219 12.046875 C 26.757812 10.382812 26.132812 8.824219 25.207031 7.378906 L 24.910156 6.90625 L 23.71875 5.726562 C 23.066406 5.082031 22.496094 4.554688 22.453125 4.554688 C 22.410156 4.554688 22.324219 4.5 22.261719 4.449219 C 22.058594 4.246094 21.457031 3.867188 21.355469 3.867188 L 21.253906 3.867188 L 21.253906 3.695312 L 20.910156 3.695312 L 20.910156 3.628906 C 20.910156 3.558594 20.542969 3.386719 20.199219 3.304688 L 19.949219 3.242188 L 19.910156 3.132812 L 19.867188 3.011719 L 19.464844 3.011719 L 19.410156 2.925781 L 19.359375 2.839844 L 18.949219 2.839844 L 18.847656 2.667969 L 18.359375 2.667969 L 18.128906 2.550781 L 17.894531 2.429688 L 17.605469 2.472656 L 17.3125 2.523438 L 17.210938 2.429688 L 17.101562 2.34375 L 15.816406 2.328125 C 15.105469 2.328125 14.351562 2.308594 14.121094 2.292969 L 13.71875 2.265625 L 13.625 2.386719 L 13.527344 2.496094 L 12.679688 2.496094 L 12.476562 2.636719 L 12.269531 2.773438 L 12.183594 2.710938 L 12.097656 2.660156 L 11.894531 2.796875 L 11.6875 2.925781 L 11.636719 2.867188 L 11.578125 2.816406 L 11.003906 3.089844 C 10.4375 3.363281 10.273438 3.441406 9.976562 3.601562 C 9.890625 3.644531 9.683594 3.746094 9.519531 3.824219 C 9.359375 3.902344 9.109375 4.039062 8.964844 4.125 C 8.828125 4.21875 8.648438 4.320312 8.578125 4.347656 C 8.375 4.441406 7.542969 5.152344 7.140625 5.570312 C 6.300781 6.453125 6.113281 6.683594 5.589844 7.445312 L 5.050781 8.242188 L 4.683594 9.03125 C 4.222656 10.007812 4 10.683594 3.785156 11.769531 L 3.613281 12.621094 L 3.613281 14.039062 L 4.144531 14.484375 L 6.140625 14.484375 L 6.5 14.324219 L 6.859375 14.160156 L 6.996094 13.886719 L 7.132812 13.621094 L 7.296875 12.773438 L 7.457031 11.933594 L 7.679688 11.507812 L 7.902344 11.078125 L 8.261719 10.941406 C 8.46875 10.863281 8.671875 10.804688 8.726562 10.804688 L 8.820312 10.804688 L 8.871094 10.675781 L 8.914062 10.546875 L 9.195312 10.597656 C 9.90625 10.726562 10.523438 10.964844 10.738281 11.207031 C 10.824219 11.292969 10.960938 11.539062 11.054688 11.746094 L 11.234375 12.132812 L 11.234375 12.925781 L 11.054688 13.945312 C 10.960938 14.503906 10.824219 15.265625 10.761719 15.640625 C 10.695312 16.019531 10.507812 17.089844 10.34375 18.023438 C 10.171875 18.957031 10.035156 19.847656 10.035156 19.992188 L 10.035156 20.265625 L 10.1875 20.566406 L 10.351562 20.867188 L 10.675781 21.019531 L 11.003906 21.183594 L 11.285156 21.128906 L 11.558594 21.070312 L 11.859375 20.746094 L 12.160156 20.410156 L 12.210938 20.171875 C 12.253906 19.941406 13.125 15.042969 13.726562 11.660156 C 13.863281 10.882812 14.136719 9.296875 14.351562 8.140625 L 14.726562 6.027344 L 14.925781 5.675781 L 15.113281 5.324219 L 15.445312 5.109375 L 15.773438 4.894531 L 16.054688 4.894531 L 16.210938 4.757812 L 16.363281 4.621094 L 16.835938 4.621094 L 16.867188 4.714844 L 16.902344 4.808594 L 17.304688 4.808594 L 17.707031 5.09375 L 18.101562 5.367188 L 18.308594 5.769531 L 18.511719 6.171875 L 18.511719 7.078125 L 18.265625 8.476562 L 18.007812 9.871094 L 17.90625 10 L 17.808594 10.117188 L 17.433594 10.117188 L 17.332031 10.015625 L 17.226562 9.914062 L 17.226562 9.648438 C 17.226562 9.492188 17.320312 8.859375 17.441406 8.226562 L 17.65625 7.078125 L 17.65625 6.257812 L 17.382812 6 C 17.226562 5.855469 17.003906 5.699219 16.886719 5.65625 L 16.679688 5.570312 L 16.355469 5.625 L 16.039062 5.683594 L 15.773438 5.972656 C 15.636719 6.136719 15.515625 6.300781 15.515625 6.335938 C 15.515625 6.367188 15.363281 7.242188 15.171875 8.277344 C 14.992188 9.3125 14.4375 12.472656 13.941406 15.300781 L 13.03125 20.4375 L 12.808594 20.890625 L 12.578125 21.335938 L 12.246094 21.609375 L 11.902344 21.875 L 11.722656 21.902344 C 11.019531 21.988281 10.8125 21.996094 10.566406 21.960938 Z M 10.566406 21.960938 " fill-opacity="1" fill-rule="nonzero"/></g><g clip-path="url(#23b98deb28)"><path fill="#0d6efe" d="M 13.792969 25.8125 C 13.589844 25.78125 13.144531 25.714844 12.785156 25.667969 L 12.140625 25.578125 L 11.898438 25.453125 L 11.652344 25.332031 L 11.457031 25.332031 C 11.246094 25.332031 10.9375 25.195312 10.855469 25.066406 L 10.796875 24.992188 L 10.382812 24.992188 L 10.238281 24.855469 C 10.15625 24.78125 10.03125 24.714844 9.96875 24.699219 C 9.902344 24.683594 9.828125 24.632812 9.820312 24.59375 L 9.789062 24.519531 L 9.707031 24.570312 L 9.617188 24.625 L 9.503906 24.480469 C 9.445312 24.390625 9.398438 24.351562 9.398438 24.382812 L 9.398438 24.449219 L 9.21875 24.351562 C 9.113281 24.292969 8.753906 24.074219 8.421875 23.847656 L 7.8125 23.441406 L 7.378906 23.027344 C 7.144531 22.796875 6.898438 22.585938 6.832031 22.546875 C 6.679688 22.464844 5.464844 21.011719 5.082031 20.457031 C 4.921875 20.214844 4.59375 19.636719 4.367188 19.191406 L 3.953125 18.371094 L 3.742188 17.703125 L 3.527344 17.046875 L 3.554688 16.875 L 3.578125 16.695312 L 3.707031 16.613281 L 3.839844 16.53125 L 4.050781 16.589844 L 4.261719 16.640625 L 4.464844 17.3125 L 4.667969 17.980469 L 4.984375 18.628906 C 5.777344 20.230469 7.296875 22.082031 8.40625 22.789062 C 8.59375 22.910156 8.746094 23.042969 8.746094 23.074219 L 8.746094 23.140625 L 8.902344 23.140625 C 8.992188 23.140625 9.082031 23.171875 9.105469 23.210938 C 9.128906 23.246094 9.535156 23.472656 10.007812 23.707031 L 10.863281 24.136719 L 10.863281 24.285156 L 10.9375 24.246094 L 11.011719 24.195312 L 11.277344 24.285156 C 11.433594 24.34375 11.597656 24.421875 11.644531 24.488281 L 11.726562 24.59375 L 12.296875 24.714844 C 12.605469 24.78125 13.078125 24.871094 13.355469 24.917969 L 13.84375 25.007812 L 16.21875 25.007812 L 16.269531 24.878906 L 16.316406 24.75 L 16.421875 24.828125 L 16.519531 24.917969 L 17.050781 24.84375 C 17.773438 24.75 18.15625 24.640625 18.402344 24.488281 L 18.605469 24.351562 L 18.6875 24.398438 L 18.769531 24.457031 L 18.964844 24.324219 C 19.070312 24.253906 19.355469 24.121094 19.589844 24.03125 C 19.828125 23.945312 20.09375 23.839844 20.183594 23.796875 C 20.273438 23.757812 20.46875 23.675781 20.617188 23.625 L 20.886719 23.519531 L 20.964844 23.375 L 21.046875 23.21875 L 21.375 23.21875 L 21.414062 23.097656 L 21.460938 22.984375 L 21.820312 22.8125 L 22.179688 22.636719 L 22.8125 22.019531 C 23.164062 21.667969 23.652344 21.15625 23.898438 20.871094 L 24.335938 20.351562 L 24.726562 19.695312 C 24.9375 19.328125 25.238281 18.777344 25.394531 18.457031 L 25.671875 17.882812 L 25.90625 17.078125 C 26.039062 16.628906 26.175781 16.09375 26.207031 15.875 L 26.265625 15.46875 L 26.003906 15.242188 L 25.746094 15.023438 L 25.460938 14.964844 L 25.183594 14.917969 L 23.921875 14.949219 L 22.660156 14.988281 L 22.414062 14.695312 L 22.179688 14.402344 L 22.105469 14.136719 L 22.023438 13.867188 L 22.15625 13.183594 L 22.277344 12.503906 L 22.226562 12.300781 L 22.179688 12.105469 L 21.96875 11.851562 L 21.753906 11.601562 L 21.398438 11.601562 L 21.242188 11.445312 L 20.875 11.550781 L 20.511719 11.65625 L 20.339844 11.976562 L 20.167969 12.292969 L 19.828125 14.183594 L 19.492188 16.078125 L 19.339844 16.378906 L 19.183594 16.679688 L 18.898438 16.957031 L 18.605469 17.230469 L 18.183594 17.320312 L 17.757812 17.417969 L 17.304688 17.335938 L 16.847656 17.257812 L 16.082031 16.492188 L 15.941406 16.03125 L 15.8125 15.558594 L 16.113281 13.84375 C 16.433594 12.046875 16.472656 11.902344 16.714844 11.773438 L 16.863281 11.691406 L 17.042969 11.851562 L 17.214844 12.015625 L 17.214844 12.128906 C 17.214844 12.195312 17.082031 13 16.921875 13.925781 L 16.628906 15.597656 L 16.773438 15.921875 L 16.921875 16.257812 L 17.171875 16.402344 L 17.417969 16.558594 L 18.027344 16.558594 L 18.34375 16.273438 L 18.664062 15.980469 L 18.75 15.597656 C 18.800781 15.386719 18.972656 14.484375 19.125 13.589844 L 19.417969 11.964844 L 19.621094 11.542969 L 19.828125 11.128906 L 20.003906 11.015625 C 20.21875 10.878906 20.964844 10.625 21.160156 10.625 C 21.234375 10.625 21.503906 10.683594 21.753906 10.753906 L 22.21875 10.886719 L 22.5625 11.242188 L 22.894531 11.59375 L 22.992188 12.046875 L 23.089844 12.503906 L 22.976562 13.183594 L 22.855469 13.859375 L 22.984375 14.070312 L 23.117188 14.28125 L 24.5 14.289062 C 25.257812 14.289062 25.964844 14.308594 26.070312 14.332031 L 26.257812 14.363281 L 26.8125 14.785156 L 26.949219 15.152344 L 27.089844 15.515625 L 27 16.125 L 26.902344 16.734375 L 26.601562 17.628906 L 26.304688 18.523438 L 25.949219 19.222656 L 25.582031 19.929688 L 24.980469 20.78125 L 24.378906 21.644531 L 23.5625 22.441406 L 22.742188 23.246094 L 22.050781 23.757812 L 21.347656 24.269531 L 21.234375 24.21875 L 21.121094 24.179688 L 21.070312 24.308594 L 21.023438 24.4375 L 20.949219 24.390625 L 20.875 24.351562 L 20.875 24.488281 L 20.582031 24.625 L 20.296875 24.765625 L 20.210938 24.714844 L 20.121094 24.660156 L 20.003906 24.804688 C 19.949219 24.894531 19.898438 24.933594 19.898438 24.910156 C 19.898438 24.878906 19.800781 24.902344 19.6875 24.96875 L 19.476562 25.074219 L 19.363281 25.03125 L 19.25 24.992188 L 19.199219 25.128906 L 19.144531 25.261719 L 18.957031 25.21875 L 18.769531 25.171875 L 18.6875 25.308594 C 18.636719 25.390625 18.597656 25.429688 18.597656 25.390625 L 18.597656 25.332031 L 18.394531 25.464844 L 18.183594 25.601562 L 18.085938 25.503906 L 17.945312 25.578125 C 17.871094 25.617188 17.507812 25.691406 17.125 25.738281 L 16.441406 25.828125 L 14.160156 25.859375 Z M 13.792969 25.8125 " fill-opacity="1" fill-rule="nonzero"/></g><g clip-path="url(#46ba42b205)"><path fill="#0d6efe" d="M 10.554688 21.375 L 10.277344 21.34375 L 9.835938 20.886719 L 9.398438 20.433594 L 9.316406 20.140625 C 9.1875 19.675781 9.21875 19.335938 9.519531 17.628906 C 9.683594 16.753906 9.953125 15.234375 10.121094 14.25 L 10.441406 12.476562 L 10.359375 12.21875 L 10.277344 11.964844 L 10.082031 11.789062 L 9.886719 11.609375 L 9.59375 11.550781 L 9.300781 11.496094 L 8.976562 11.609375 L 8.65625 11.714844 L 8.503906 11.902344 L 8.355469 12.097656 L 8.257812 12.679688 C 8.210938 13 8.113281 13.453125 8.054688 13.679688 L 7.933594 14.09375 L 7.65625 14.445312 C 7.5 14.640625 7.304688 14.835938 7.214844 14.882812 L 7.046875 14.972656 L 5.449219 14.964844 L 3.855469 14.957031 L 3.527344 14.597656 L 3.203125 14.242188 L 3.152344 14.046875 L 3.105469 13.851562 L 3.164062 12.867188 L 3.210938 11.886719 L 3.382812 11.195312 C 3.714844 9.78125 4.269531 8.464844 4.945312 7.449219 C 5.914062 6.011719 6.09375 5.78125 6.957031 4.960938 L 7.484375 4.457031 L 7.582031 4.449219 C 7.632812 4.449219 7.730469 4.386719 7.785156 4.296875 L 7.890625 4.148438 L 8.078125 4.09375 L 8.257812 4.035156 L 8.257812 3.890625 L 8.625 3.726562 C 8.820312 3.636719 9.144531 3.460938 9.347656 3.320312 C 9.554688 3.183594 9.75 3.070312 9.789062 3.070312 C 9.835938 3.070312 9.894531 3.011719 9.917969 2.9375 L 9.96875 2.808594 L 10.089844 2.859375 L 10.21875 2.90625 L 10.398438 2.800781 C 10.496094 2.753906 10.644531 2.65625 10.71875 2.589844 L 10.855469 2.476562 L 11.019531 2.523438 L 11.179688 2.566406 L 11.359375 2.355469 L 11.621094 2.304688 C 11.765625 2.273438 11.96875 2.25 12.085938 2.25 L 12.289062 2.242188 L 12.34375 2.152344 L 12.402344 2.054688 L 12.726562 2.054688 L 13.046875 2.046875 L 13.167969 1.941406 L 13.296875 1.84375 L 13.648438 1.875 L 13.996094 1.90625 L 14.46875 1.808594 L 14.933594 1.71875 L 14.972656 1.761719 C 15.054688 1.835938 15.375 1.859375 16.140625 1.851562 L 16.902344 1.84375 L 17.035156 1.957031 L 17.171875 2.078125 L 17.457031 2.078125 C 17.613281 2.070312 17.808594 2.101562 17.878906 2.132812 C 17.960938 2.167969 18.125 2.199219 18.246094 2.199219 L 18.476562 2.214844 L 18.589844 2.320312 L 18.703125 2.433594 L 18.847656 2.394531 L 18.996094 2.355469 L 19.09375 2.46875 L 19.183594 2.582031 L 19.46875 2.582031 L 20.21875 2.945312 C 20.625 3.148438 21.015625 3.3125 21.082031 3.3125 C 21.136719 3.3125 21.210938 3.34375 21.242188 3.386719 C 21.265625 3.433594 21.550781 3.636719 21.878906 3.847656 C 22.195312 4.058594 22.554688 4.320312 22.667969 4.417969 C 22.78125 4.515625 23.089844 4.800781 23.359375 5.035156 C 25.328125 6.796875 26.625 9.238281 27.105469 12.105469 L 27.152344 12.40625 L 26.964844 12.566406 C 26.746094 12.777344 26.640625 12.777344 26.476562 12.601562 L 26.347656 12.453125 L 26.25 11.964844 C 25.949219 10.390625 25.355469 8.910156 24.476562 7.539062 L 24.191406 7.089844 L 23.058594 5.96875 C 22.441406 5.359375 21.894531 4.855469 21.855469 4.855469 C 21.8125 4.855469 21.730469 4.808594 21.675781 4.757812 C 21.480469 4.5625 20.910156 4.207031 20.8125 4.207031 L 20.714844 4.207031 L 20.714844 4.042969 L 20.386719 4.042969 L 20.386719 3.980469 C 20.386719 3.914062 20.039062 3.75 19.710938 3.671875 L 19.476562 3.613281 L 19.4375 3.507812 L 19.394531 3.394531 L 19.011719 3.394531 L 18.964844 3.3125 L 18.914062 3.230469 L 18.523438 3.230469 L 18.476562 3.148438 L 18.425781 3.070312 L 17.960938 3.070312 L 17.742188 2.957031 L 17.523438 2.839844 L 17.246094 2.882812 L 16.96875 2.929688 L 16.871094 2.839844 L 16.765625 2.761719 L 15.542969 2.742188 C 14.867188 2.742188 14.152344 2.726562 13.933594 2.710938 L 13.550781 2.6875 L 13.460938 2.800781 L 13.371094 2.90625 L 12.566406 2.90625 L 12.371094 3.035156 L 12.175781 3.167969 L 12.09375 3.109375 L 12.011719 3.0625 L 11.816406 3.191406 L 11.621094 3.3125 L 11.570312 3.257812 L 11.515625 3.207031 L 10.96875 3.46875 C 10.433594 3.726562 10.277344 3.800781 9.992188 3.953125 C 9.910156 3.996094 9.714844 4.09375 9.5625 4.167969 C 9.40625 4.238281 9.171875 4.371094 9.03125 4.449219 C 8.902344 4.539062 8.730469 4.636719 8.664062 4.660156 C 8.46875 4.75 7.679688 5.425781 7.296875 5.824219 C 6.5 6.660156 6.320312 6.878906 5.824219 7.601562 L 5.3125 8.359375 L 4.960938 9.105469 C 4.523438 10.03125 4.308594 10.675781 4.105469 11.707031 L 3.945312 12.511719 L 3.945312 13.859375 L 4.195312 14.070312 L 4.449219 14.28125 L 6.34375 14.28125 L 6.6875 14.128906 L 7.027344 13.972656 L 7.160156 13.714844 L 7.289062 13.460938 L 7.445312 12.65625 L 7.597656 11.859375 L 7.8125 11.453125 L 8.023438 11.046875 L 8.363281 10.917969 C 8.558594 10.84375 8.753906 10.789062 8.804688 10.789062 L 8.894531 10.789062 L 8.941406 10.667969 L 8.984375 10.542969 L 9.25 10.59375 C 9.925781 10.714844 10.511719 10.941406 10.71875 11.171875 C 10.796875 11.25 10.929688 11.488281 11.019531 11.683594 L 11.1875 12.046875 L 11.1875 12.804688 L 11.019531 13.769531 C 10.929688 14.296875 10.796875 15.023438 10.742188 15.378906 C 10.675781 15.738281 10.496094 16.753906 10.34375 17.636719 C 10.179688 18.523438 10.050781 19.367188 10.050781 19.507812 L 10.050781 19.765625 L 10.195312 20.050781 L 10.351562 20.335938 L 10.660156 20.480469 L 10.96875 20.636719 L 11.238281 20.585938 L 11.5 20.53125 L 11.785156 20.222656 L 12.066406 19.90625 L 12.117188 19.675781 C 12.15625 19.457031 12.988281 14.808594 13.558594 11.601562 C 13.6875 10.863281 13.949219 9.359375 14.152344 8.261719 L 14.511719 6.253906 L 14.699219 5.921875 L 14.875 5.589844 L 15.195312 5.386719 L 15.503906 5.183594 L 15.773438 5.183594 L 15.917969 5.050781 L 16.066406 4.921875 L 16.511719 4.921875 L 16.546875 5.011719 L 16.578125 5.101562 L 16.960938 5.101562 L 17.34375 5.367188 L 17.71875 5.628906 L 17.914062 6.011719 L 18.109375 6.390625 L 18.109375 7.253906 L 17.871094 8.578125 L 17.628906 9.902344 L 17.53125 10.023438 L 17.441406 10.136719 L 17.082031 10.136719 L 16.886719 9.941406 L 16.886719 9.691406 C 16.886719 9.546875 16.976562 8.945312 17.089844 8.34375 L 17.292969 7.253906 L 17.292969 6.472656 L 17.035156 6.230469 C 16.886719 6.089844 16.675781 5.945312 16.5625 5.90625 L 16.367188 5.824219 L 16.058594 5.871094 L 15.757812 5.929688 L 15.503906 6.207031 C 15.375 6.359375 15.257812 6.515625 15.257812 6.546875 C 15.257812 6.578125 15.113281 7.40625 14.933594 8.390625 C 14.761719 9.375 14.234375 12.371094 13.761719 15.054688 L 12.898438 19.929688 L 12.6875 20.359375 L 12.46875 20.78125 L 12.148438 21.042969 L 11.824219 21.292969 L 11.652344 21.320312 C 10.984375 21.398438 10.789062 21.410156 10.554688 21.375 Z M 10.554688 21.375 " fill-opacity="1" fill-rule="nonzero"/></g><g fill="#b1d0fd" fill-opacity="1"><g transform="translate(28.648189, 19.951848)"><g><path d="M 3.5625 -3.8125 L 7.328125 -3.8125 L 6.375 -8.578125 Z M 9.25 0 L 8.09375 0 L 7.53125 -2.8125 L 2.96875 -2.8125 L 1.3125 0 L 0.15625 0 L 6.859375 -11.078125 Z M 9.25 0 "/></g></g></g><g fill="#b1d0fd" fill-opacity="1"><g transform="translate(38.05071, 19.951848)"><g><path d="M 8.234375 -4.296875 L 7.078125 -4.296875 C 6.972656 -4.734375 6.753906 -5.078125 6.421875 -5.328125 C 6.078125 -5.597656 5.710938 -5.734375 5.328125 -5.734375 C 5.140625 -5.734375 4.957031 -5.710938 4.78125 -5.671875 C 4.601562 -5.640625 4.4375 -5.59375 4.28125 -5.53125 C 3.976562 -5.40625 3.695312 -5.234375 3.4375 -5.015625 C 2.894531 -4.535156 2.5625 -3.984375 2.4375 -3.359375 C 2.3125 -2.679688 2.425781 -2.113281 2.78125 -1.65625 C 3.15625 -1.1875 3.660156 -0.953125 4.296875 -0.953125 C 4.722656 -0.953125 5.140625 -1.066406 5.546875 -1.296875 C 5.960938 -1.523438 6.300781 -1.820312 6.5625 -2.1875 L 7.765625 -2.1875 C 7.179688 -1.132812 6.316406 -0.414062 5.171875 -0.03125 C 4.816406 0.09375 4.421875 0.15625 3.984375 0.15625 C 3.566406 0.15625 3.164062 0.0625 2.78125 -0.125 C 2.394531 -0.300781 2.082031 -0.554688 1.84375 -0.890625 C 1.320312 -1.585938 1.15625 -2.410156 1.34375 -3.359375 C 1.519531 -4.296875 2.003906 -5.109375 2.796875 -5.796875 C 3.609375 -6.492188 4.488281 -6.84375 5.4375 -6.84375 C 6.207031 -6.84375 6.859375 -6.601562 7.390625 -6.125 C 7.898438 -5.664062 8.179688 -5.054688 8.234375 -4.296875 Z M 8.234375 -4.296875 "/></g></g></g><g fill="#b1d0fd" fill-opacity="1"><g transform="translate(45.990279, 19.951848)"><g><path d="M 7.125 -3.359375 C 7.25 -4.003906 7.132812 -4.570312 6.78125 -5.0625 C 6.414062 -5.550781 5.898438 -5.796875 5.234375 -5.796875 C 4.566406 -5.796875 3.957031 -5.550781 3.40625 -5.0625 C 2.863281 -4.570312 2.53125 -4.003906 2.40625 -3.359375 C 2.28125 -2.691406 2.394531 -2.117188 2.75 -1.640625 C 3.113281 -1.160156 3.628906 -0.921875 4.296875 -0.921875 C 4.953125 -0.921875 5.554688 -1.160156 6.109375 -1.640625 C 6.671875 -2.140625 7.007812 -2.710938 7.125 -3.359375 Z M 7.546875 0 L 6.46875 0 L 6.703125 -1.140625 C 6.660156 -1.097656 6.617188 -1.054688 6.578125 -1.015625 C 6.535156 -0.984375 6.492188 -0.953125 6.453125 -0.921875 C 5.679688 -0.203125 4.835938 0.15625 3.921875 0.15625 C 2.984375 0.15625 2.269531 -0.203125 1.78125 -0.921875 C 1.300781 -1.597656 1.15625 -2.410156 1.34375 -3.359375 C 1.519531 -4.296875 1.984375 -5.109375 2.734375 -5.796875 C 3.503906 -6.503906 4.347656 -6.859375 5.265625 -6.859375 C 6.203125 -6.859375 6.914062 -6.503906 7.40625 -5.796875 C 7.425781 -5.753906 7.453125 -5.710938 7.484375 -5.671875 C 7.515625 -5.640625 7.539062 -5.601562 7.5625 -5.5625 L 7.78125 -6.703125 L 8.84375 -6.703125 Z M 7.546875 0 "/></g></g></g><g fill="#b1d0fd" fill-opacity="1"><g transform="translate(54.676562, 19.951848)"><g><path d="M 7.125 -3.359375 C 7.25 -4.003906 7.132812 -4.570312 6.78125 -5.0625 C 6.414062 -5.550781 5.898438 -5.796875 5.234375 -5.796875 C 4.566406 -5.796875 3.957031 -5.550781 3.40625 -5.0625 C 2.863281 -4.570312 2.53125 -4.003906 2.40625 -3.359375 C 2.28125 -2.691406 2.394531 -2.117188 2.75 -1.640625 C 3.113281 -1.160156 3.628906 -0.921875 4.296875 -0.921875 C 4.953125 -0.921875 5.554688 -1.160156 6.109375 -1.640625 C 6.671875 -2.140625 7.007812 -2.710938 7.125 -3.359375 Z M 7.546875 0 L 6.46875 0 L 6.703125 -1.140625 C 6.660156 -1.097656 6.617188 -1.054688 6.578125 -1.015625 C 6.535156 -0.984375 6.492188 -0.953125 6.453125 -0.921875 C 5.679688 -0.203125 4.835938 0.15625 3.921875 0.15625 C 2.984375 0.15625 2.269531 -0.203125 1.78125 -0.921875 C 1.300781 -1.597656 1.15625 -2.410156 1.34375 -3.359375 C 1.519531 -4.296875 1.984375 -5.109375 2.734375 -5.796875 C 3.503906 -6.503906 4.347656 -6.859375 5.265625 -6.859375 C 6.203125 -6.859375 6.914062 -6.503906 7.40625 -5.796875 C 7.425781 -5.753906 7.453125 -5.710938 7.484375 -5.671875 C 7.515625 -5.640625 7.539062 -5.601562 7.5625 -5.5625 L 8.703125 -11.421875 L 9.765625 -11.421875 Z M 7.546875 0 "/></g></g></g><g fill="#b1d0fd" fill-opacity="1"><g transform="translate(63.362847, 19.951848)"><g><path d="M 3.96875 -9.015625 C 4.070312 -8.890625 4.109375 -8.726562 4.078125 -8.53125 C 4.046875 -8.363281 3.953125 -8.207031 3.796875 -8.0625 C 3.648438 -7.925781 3.476562 -7.859375 3.28125 -7.859375 C 3.082031 -7.859375 2.929688 -7.925781 2.828125 -8.0625 C 2.734375 -8.1875 2.703125 -8.34375 2.734375 -8.53125 C 2.753906 -8.71875 2.847656 -8.878906 3.015625 -9.015625 C 3.160156 -9.148438 3.332031 -9.21875 3.53125 -9.21875 C 3.726562 -9.21875 3.875 -9.148438 3.96875 -9.015625 Z M 2.28125 0 L 1.21875 0 L 2.53125 -6.703125 L 3.59375 -6.703125 Z M 2.28125 0 "/></g></g></g><g fill="#b1d0fd" fill-opacity="1"><g transform="translate(66.8526, 19.951848)"><g><path d="M 6.765625 -10.4375 L 5.84375 -10.4375 C 5.476562 -10.4375 5.234375 -10.351562 5.109375 -10.1875 C 4.953125 -10.007812 4.851562 -9.8125 4.8125 -9.59375 L 4.265625 -6.703125 L 6.046875 -6.703125 L 5.84375 -5.71875 L 4.0625 -5.71875 L 2.953125 0 L 1.890625 0 L 3 -5.71875 L 1.640625 -5.71875 L 1.84375 -6.703125 L 3.203125 -6.703125 L 3.703125 -9.296875 C 3.773438 -9.640625 3.875 -9.941406 4 -10.203125 C 4.125 -10.472656 4.285156 -10.695312 4.484375 -10.875 C 4.878906 -11.238281 5.453125 -11.421875 6.203125 -11.421875 L 6.96875 -11.421875 Z M 6.765625 -10.4375 "/></g></g></g><g fill="#b1d0fd" fill-opacity="1"><g transform="translate(72.049132, 19.951848)"><g><path d="M 1.25 3.8125 L -0.046875 3.8125 L 3.171875 -1.09375 L 1.46875 -6.703125 L 2.6875 -6.703125 L 3.953125 -2.203125 L 6.75 -6.703125 L 7.9375 -6.703125 Z M 1.25 3.8125 "/></g></g></g><g fill="#0d6efe" fill-opacity="1"><g transform="translate(29.58005, 19.05196)"><g><path d="M 3.5625 -3.8125 L 7.328125 -3.8125 L 6.375 -8.578125 Z M 9.25 0 L 8.09375 0 L 7.53125 -2.8125 L 2.96875 -2.8125 L 1.3125 0 L 0.15625 0 L 6.859375 -11.078125 Z M 9.25 0 "/></g></g></g><g fill="#0d6efe" fill-opacity="1"><g transform="translate(38.982571, 19.05196)"><g><path d="M 8.234375 -4.296875 L 7.078125 -4.296875 C 6.972656 -4.734375 6.753906 -5.078125 6.421875 -5.328125 C 6.078125 -5.597656 5.710938 -5.734375 5.328125 -5.734375 C 5.140625 -5.734375 4.957031 -5.710938 4.78125 -5.671875 C 4.601562 -5.640625 4.4375 -5.59375 4.28125 -5.53125 C 3.976562 -5.40625 3.695312 -5.234375 3.4375 -5.015625 C 2.894531 -4.535156 2.5625 -3.984375 2.4375 -3.359375 C 2.3125 -2.679688 2.425781 -2.113281 2.78125 -1.65625 C 3.15625 -1.1875 3.660156 -0.953125 4.296875 -0.953125 C 4.722656 -0.953125 5.140625 -1.066406 5.546875 -1.296875 C 5.960938 -1.523438 6.300781 -1.820312 6.5625 -2.1875 L 7.765625 -2.1875 C 7.179688 -1.132812 6.316406 -0.414062 5.171875 -0.03125 C 4.816406 0.09375 4.421875 0.15625 3.984375 0.15625 C 3.566406 0.15625 3.164062 0.0625 2.78125 -0.125 C 2.394531 -0.300781 2.082031 -0.554688 1.84375 -0.890625 C 1.320312 -1.585938 1.15625 -2.410156 1.34375 -3.359375 C 1.519531 -4.296875 2.003906 -5.109375 2.796875 -5.796875 C 3.609375 -6.492188 4.488281 -6.84375 5.4375 -6.84375 C 6.207031 -6.84375 6.859375 -6.601562 7.390625 -6.125 C 7.898438 -5.664062 8.179688 -5.054688 8.234375 -4.296875 Z M 8.234375 -4.296875 "/></g></g></g><g fill="#0d6efe" fill-opacity="1"><g transform="translate(46.92214, 19.05196)"><g><path d="M 7.125 -3.359375 C 7.25 -4.003906 7.132812 -4.570312 6.78125 -5.0625 C 6.414062 -5.550781 5.898438 -5.796875 5.234375 -5.796875 C 4.566406 -5.796875 3.957031 -5.550781 3.40625 -5.0625 C 2.863281 -4.570312 2.53125 -4.003906 2.40625 -3.359375 C 2.28125 -2.691406 2.394531 -2.117188 2.75 -1.640625 C 3.113281 -1.160156 3.628906 -0.921875 4.296875 -0.921875 C 4.953125 -0.921875 5.554688 -1.160156 6.109375 -1.640625 C 6.671875 -2.140625 7.007812 -2.710938 7.125 -3.359375 Z M 7.546875 0 L 6.46875 0 L 6.703125 -1.140625 C 6.660156 -1.097656 6.617188 -1.054688 6.578125 -1.015625 C 6.535156 -0.984375 6.492188 -0.953125 6.453125 -0.921875 C 5.679688 -0.203125 4.835938 0.15625 3.921875 0.15625 C 2.984375 0.15625 2.269531 -0.203125 1.78125 -0.921875 C 1.300781 -1.597656 1.15625 -2.410156 1.34375 -3.359375 C 1.519531 -4.296875 1.984375 -5.109375 2.734375 -5.796875 C 3.503906 -6.503906 4.347656 -6.859375 5.265625 -6.859375 C 6.203125 -6.859375 6.914062 -6.503906 7.40625 -5.796875 C 7.425781 -5.753906 7.453125 -5.710938 7.484375 -5.671875 C 7.515625 -5.640625 7.539062 -5.601562 7.5625 -5.5625 L 7.78125 -6.703125 L 8.84375 -6.703125 Z M 7.546875 0 "/></g></g></g><g fill="#0d6efe" fill-opacity="1"><g transform="translate(55.608423, 19.05196)"><g><path d="M 7.125 -3.359375 C 7.25 -4.003906 7.132812 -4.570312 6.78125 -5.0625 C 6.414062 -5.550781 5.898438 -5.796875 5.234375 -5.796875 C 4.566406 -5.796875 3.957031 -5.550781 3.40625 -5.0625 C 2.863281 -4.570312 2.53125 -4.003906 2.40625 -3.359375 C 2.28125 -2.691406 2.394531 -2.117188 2.75 -1.640625 C 3.113281 -1.160156 3.628906 -0.921875 4.296875 -0.921875 C 4.953125 -0.921875 5.554688 -1.160156 6.109375 -1.640625 C 6.671875 -2.140625 7.007812 -2.710938 7.125 -3.359375 Z M 7.546875 0 L 6.46875 0 L 6.703125 -1.140625 C 6.660156 -1.097656 6.617188 -1.054688 6.578125 -1.015625 C 6.535156 -0.984375 6.492188 -0.953125 6.453125 -0.921875 C 5.679688 -0.203125 4.835938 0.15625 3.921875 0.15625 C 2.984375 0.15625 2.269531 -0.203125 1.78125 -0.921875 C 1.300781 -1.597656 1.15625 -2.410156 1.34375 -3.359375 C 1.519531 -4.296875 1.984375 -5.109375 2.734375 -5.796875 C 3.503906 -6.503906 4.347656 -6.859375 5.265625 -6.859375 C 6.203125 -6.859375 6.914062 -6.503906 7.40625 -5.796875 C 7.425781 -5.753906 7.453125 -5.710938 7.484375 -5.671875 C 7.515625 -5.640625 7.539062 -5.601562 7.5625 -5.5625 L 8.703125 -11.421875 L 9.765625 -11.421875 Z M 7.546875 0 "/></g></g></g><g fill="#0d6efe" fill-opacity="1"><g transform="translate(64.294708, 19.05196)"><g><path d="M 3.96875 -9.015625 C 4.070312 -8.890625 4.109375 -8.726562 4.078125 -8.53125 C 4.046875 -8.363281 3.953125 -8.207031 3.796875 -8.0625 C 3.648438 -7.925781 3.476562 -7.859375 3.28125 -7.859375 C 3.082031 -7.859375 2.929688 -7.925781 2.828125 -8.0625 C 2.734375 -8.1875 2.703125 -8.34375 2.734375 -8.53125 C 2.753906 -8.71875 2.847656 -8.878906 3.015625 -9.015625 C 3.160156 -9.148438 3.332031 -9.21875 3.53125 -9.21875 C 3.726562 -9.21875 3.875 -9.148438 3.96875 -9.015625 Z M 2.28125 0 L 1.21875 0 L 2.53125 -6.703125 L 3.59375 -6.703125 Z M 2.28125 0 "/></g></g></g><g fill="#0d6efe" fill-opacity="1"><g transform="translate(67.78446, 19.05196)"><g><path d="M 6.765625 -10.4375 L 5.84375 -10.4375 C 5.476562 -10.4375 5.234375 -10.351562 5.109375 -10.1875 C 4.953125 -10.007812 4.851562 -9.8125 4.8125 -9.59375 L 4.265625 -6.703125 L 6.046875 -6.703125 L 5.84375 -5.71875 L 4.0625 -5.71875 L 2.953125 0 L 1.890625 0 L 3 -5.71875 L 1.640625 -5.71875 L 1.84375 -6.703125 L 3.203125 -6.703125 L 3.703125 -9.296875 C 3.773438 -9.640625 3.875 -9.941406 4 -10.203125 C 4.125 -10.472656 4.285156 -10.695312 4.484375 -10.875 C 4.878906 -11.238281 5.453125 -11.421875 6.203125 -11.421875 L 6.96875 -11.421875 Z M 6.765625 -10.4375 "/></g></g></g><g fill="#0d6efe" fill-opacity="1"><g transform="translate(72.980993, 19.05196)"><g><path d="M 1.25 3.8125 L -0.046875 3.8125 L 3.171875 -1.09375 L 1.46875 -6.703125 L 2.6875 -6.703125 L 3.953125 -2.203125 L 6.75 -6.703125 L 7.9375 -6.703125 Z M 1.25 3.8125 "/></g></g></g></svg>