<svg xmlns="http://www.w3.org/2000/svg" xmlns:xlink="http://www.w3.org/1999/xlink" width="212" zoomAndPan="magnify" viewBox="0 0 159 51.749998" height="69" preserveAspectRatio="xMidYMid meet" version="1.0"><defs><g/></defs><path fill="#b1d0fd" d="M 23.292969 47.898438 C 22.90625 47.835938 22.058594 47.714844 21.382812 47.621094 L 20.167969 47.453125 L 19.703125 47.222656 L 19.242188 46.992188 L 18.871094 46.992188 C 18.472656 46.992188 17.886719 46.730469 17.734375 46.480469 L 17.625 46.34375 L 16.839844 46.34375 L 16.5625 46.082031 C 16.410156 45.941406 16.179688 45.820312 16.054688 45.789062 C 15.933594 45.757812 15.792969 45.667969 15.777344 45.589844 L 15.714844 45.449219 L 15.5625 45.542969 L 15.394531 45.652344 L 15.175781 45.375 C 15.070312 45.203125 14.976562 45.128906 14.976562 45.1875 L 14.976562 45.3125 L 14.636719 45.128906 C 14.4375 45.019531 13.761719 44.605469 13.128906 44.171875 L 11.972656 43.402344 L 11.160156 42.617188 C 10.710938 42.1875 10.25 41.785156 10.125 41.707031 C 9.835938 41.554688 7.539062 38.796875 6.816406 37.75 C 6.507812 37.289062 5.890625 36.195312 5.460938 35.347656 L 4.675781 33.792969 L 4.277344 32.53125 L 3.875 31.285156 L 3.921875 30.960938 L 3.96875 30.621094 L 4.214844 30.46875 L 4.460938 30.3125 L 4.859375 30.421875 L 5.261719 30.515625 L 5.644531 31.792969 L 6.03125 33.054688 L 6.632812 34.285156 C 8.125 37.320312 11.003906 40.832031 13.097656 42.171875 C 13.453125 42.402344 13.746094 42.648438 13.746094 42.710938 L 13.746094 42.832031 L 14.039062 42.832031 C 14.207031 42.832031 14.375 42.894531 14.421875 42.972656 C 14.46875 43.03125 15.238281 43.464844 16.132812 43.910156 L 17.75 44.726562 L 17.75 45.003906 L 17.886719 44.925781 L 18.027344 44.835938 L 18.535156 45.003906 C 18.828125 45.113281 19.132812 45.265625 19.226562 45.390625 L 19.382812 45.589844 L 20.457031 45.820312 C 21.042969 45.941406 21.9375 46.113281 22.460938 46.203125 L 23.382812 46.375 L 27.878906 46.375 L 28.066406 45.882812 L 28.265625 46.035156 L 28.449219 46.203125 L 29.453125 46.066406 C 30.820312 45.882812 31.546875 45.679688 32.007812 45.390625 L 32.390625 45.128906 L 32.546875 45.21875 L 32.699219 45.328125 L 33.070312 45.082031 C 33.269531 44.941406 33.808594 44.695312 34.253906 44.527344 C 34.703125 44.355469 35.210938 44.15625 35.378906 44.082031 C 35.550781 44.003906 35.917969 43.847656 36.195312 43.757812 L 36.703125 43.554688 L 36.859375 43.28125 L 37.011719 42.988281 L 37.628906 42.988281 L 37.703125 42.757812 L 37.796875 42.539062 L 38.476562 42.21875 L 39.152344 41.878906 L 40.351562 40.707031 C 41.015625 40.046875 41.9375 39.074219 42.402344 38.535156 L 43.234375 37.550781 L 43.972656 36.304688 C 44.371094 35.609375 44.941406 34.5625 45.234375 33.964844 L 45.757812 32.871094 L 46.203125 31.347656 C 46.449219 30.5 46.710938 29.484375 46.773438 29.066406 L 46.882812 28.296875 L 46.390625 27.867188 L 45.898438 27.449219 L 45.359375 27.34375 L 44.835938 27.25 L 42.449219 27.3125 L 40.0625 27.386719 L 39.597656 26.835938 L 39.152344 26.28125 L 39.011719 25.773438 L 38.859375 25.261719 L 39.105469 23.96875 L 39.335938 22.675781 L 39.246094 22.292969 L 39.152344 21.921875 L 38.75 21.445312 L 38.351562 20.96875 L 37.675781 20.96875 L 37.382812 20.675781 L 36.6875 20.875 L 35.996094 21.074219 L 35.347656 22.277344 L 34.703125 25.863281 L 34.070312 29.453125 L 33.777344 30.023438 L 33.484375 30.589844 L 32.945312 31.113281 L 32.390625 31.636719 L 31.589844 31.808594 L 30.789062 31.992188 L 29.929688 31.839844 L 29.066406 31.683594 L 28.34375 30.960938 L 27.617188 30.238281 L 27.355469 29.359375 L 27.109375 28.464844 L 27.679688 25.21875 C 28.28125 21.816406 28.359375 21.539062 28.820312 21.289062 L 29.097656 21.136719 L 29.4375 21.445312 L 29.757812 21.753906 L 29.757812 21.96875 C 29.757812 22.089844 29.511719 23.617188 29.203125 25.371094 L 28.652344 28.542969 L 28.929688 29.160156 L 29.203125 29.789062 L 29.683594 30.066406 L 30.144531 30.359375 L 31.300781 30.359375 L 31.898438 29.820312 L 32.5 29.265625 L 32.667969 28.542969 C 32.761719 28.144531 33.085938 26.433594 33.378906 24.738281 L 33.933594 21.660156 L 34.316406 20.859375 L 34.703125 20.074219 L 35.039062 19.859375 C 35.441406 19.597656 36.859375 19.121094 37.226562 19.121094 C 37.367188 19.121094 37.875 19.226562 38.351562 19.367188 L 39.230469 19.613281 L 39.875 20.289062 L 40.507812 20.953125 L 40.691406 21.816406 L 40.875 22.675781 L 40.660156 23.96875 L 40.429688 25.25 L 40.675781 25.648438 L 40.921875 26.050781 L 43.539062 26.0625 C 44.972656 26.0625 46.3125 26.09375 46.511719 26.140625 L 46.867188 26.203125 L 47.390625 26.601562 L 47.914062 27.003906 L 48.175781 27.695312 L 48.4375 28.390625 L 48.269531 29.542969 L 48.082031 30.699219 L 47.511719 32.394531 L 46.960938 34.085938 L 46.28125 35.410156 L 45.589844 36.75 L 44.449219 38.367188 L 43.308594 40 L 41.769531 41.507812 L 40.214844 43.03125 L 38.90625 44.003906 L 37.582031 44.972656 L 37.367188 44.878906 L 37.152344 44.804688 L 36.964844 45.296875 L 36.828125 45.203125 L 36.6875 45.128906 L 36.6875 45.390625 L 36.132812 45.652344 L 35.59375 45.914062 L 35.425781 45.820312 L 35.257812 45.710938 L 35.039062 45.988281 C 34.933594 46.160156 34.839844 46.234375 34.839844 46.191406 C 34.839844 46.128906 34.65625 46.175781 34.441406 46.296875 L 34.039062 46.496094 L 33.824219 46.421875 L 33.609375 46.34375 L 33.515625 46.605469 L 33.410156 46.851562 L 33.054688 46.773438 L 32.699219 46.683594 L 32.546875 46.945312 C 32.453125 47.097656 32.378906 47.175781 32.378906 47.097656 L 32.378906 46.992188 L 31.992188 47.238281 L 31.589844 47.5 L 31.5 47.40625 L 31.40625 47.3125 L 31.144531 47.453125 C 31.007812 47.53125 30.3125 47.667969 29.589844 47.761719 L 28.296875 47.929688 L 23.984375 47.992188 Z M 23.292969 47.898438 " fill-opacity="1" fill-rule="nonzero"/><path fill="#b1d0fd" d="M 17.164062 39.492188 L 16.640625 39.429688 L 15.808594 38.566406 L 14.976562 37.707031 L 14.824219 37.152344 C 14.578125 36.273438 14.636719 35.625 15.207031 32.394531 C 15.515625 30.730469 16.023438 27.851562 16.347656 25.988281 L 16.949219 22.628906 L 16.792969 22.136719 L 16.640625 21.660156 L 16.269531 21.320312 L 15.902344 20.984375 L 14.792969 20.765625 L 14.175781 20.984375 L 13.574219 21.183594 L 13.285156 21.539062 L 13.007812 21.90625 L 12.820312 23.015625 C 12.730469 23.617188 12.542969 24.476562 12.4375 24.910156 L 12.207031 25.695312 L 11.683594 26.355469 C 11.390625 26.726562 11.019531 27.097656 10.851562 27.1875 L 10.527344 27.359375 L 7.507812 27.34375 L 4.492188 27.328125 L 3.875 26.648438 L 3.257812 25.972656 L 3.167969 25.601562 L 3.074219 25.234375 L 3.183594 23.371094 L 3.273438 21.507812 L 3.597656 20.199219 C 4.230469 17.519531 5.277344 15.023438 6.554688 13.097656 C 8.386719 10.375 8.726562 9.941406 10.359375 8.386719 L 11.359375 7.433594 L 11.542969 7.417969 C 11.636719 7.417969 11.820312 7.292969 11.929688 7.125 L 12.128906 6.847656 L 12.484375 6.738281 L 12.820312 6.632812 L 12.820312 6.355469 L 13.515625 6.046875 C 13.882812 5.878906 14.5 5.539062 14.886719 5.277344 C 15.269531 5.015625 15.640625 4.800781 15.714844 4.800781 C 15.808594 4.800781 15.917969 4.691406 15.960938 4.554688 L 16.054688 4.308594 L 16.285156 4.398438 L 16.53125 4.492188 L 16.871094 4.292969 C 17.054688 4.199219 17.332031 4.015625 17.472656 3.890625 L 17.734375 3.675781 L 18.042969 3.769531 L 18.347656 3.84375 L 18.519531 3.644531 L 18.6875 3.445312 L 19.179688 3.351562 C 19.457031 3.289062 19.84375 3.246094 20.058594 3.246094 L 20.445312 3.230469 L 20.550781 3.058594 L 20.660156 2.875 L 21.273438 2.875 L 21.875 2.859375 L 22.105469 2.660156 L 22.351562 2.472656 L 23.015625 2.535156 L 23.675781 2.597656 L 24.570312 2.414062 L 25.449219 2.242188 L 25.523438 2.320312 C 25.679688 2.460938 26.28125 2.503906 27.726562 2.488281 L 29.175781 2.472656 L 29.421875 2.691406 L 29.683594 2.921875 L 30.222656 2.921875 C 30.515625 2.90625 30.882812 2.96875 31.023438 3.027344 C 31.175781 3.089844 31.484375 3.152344 31.714844 3.152344 L 32.144531 3.183594 L 32.363281 3.382812 L 32.578125 3.597656 L 32.855469 3.523438 L 33.132812 3.445312 L 33.316406 3.660156 L 33.484375 3.875 L 34.023438 3.875 L 35.441406 4.570312 C 36.210938 4.953125 36.949219 5.261719 37.074219 5.261719 C 37.179688 5.261719 37.320312 5.324219 37.382812 5.398438 C 37.425781 5.492188 37.964844 5.878906 38.582031 6.277344 C 39.183594 6.679688 39.859375 7.171875 40.074219 7.355469 C 40.292969 7.539062 40.875 8.078125 41.386719 8.527344 C 45.109375 11.867188 47.558594 16.488281 48.46875 21.921875 L 48.558594 22.492188 L 48.207031 22.800781 C 47.789062 23.199219 47.589844 23.199219 47.28125 22.863281 L 47.035156 22.585938 L 46.851562 21.660156 C 46.28125 18.671875 45.15625 15.871094 43.496094 13.269531 L 42.957031 12.421875 L 40.816406 10.296875 C 39.644531 9.140625 38.613281 8.1875 38.535156 8.1875 C 38.460938 8.1875 38.304688 8.09375 38.199219 8.003906 C 37.828125 7.632812 36.75 6.957031 36.566406 6.957031 L 36.378906 6.957031 L 36.378906 6.648438 L 35.765625 6.648438 L 35.765625 6.523438 C 35.765625 6.402344 35.101562 6.09375 34.488281 5.9375 L 34.039062 5.832031 L 33.964844 5.632812 L 33.886719 5.414062 L 33.164062 5.414062 L 32.976562 5.109375 L 32.238281 5.109375 L 32.144531 4.953125 L 32.054688 4.800781 L 31.175781 4.800781 L 30.761719 4.585938 L 30.34375 4.367188 L 29.820312 4.445312 L 29.296875 4.539062 L 29.113281 4.367188 L 28.914062 4.214844 L 26.601562 4.183594 C 25.324219 4.183594 23.96875 4.152344 23.554688 4.121094 L 22.832031 4.074219 L 22.660156 4.292969 L 22.492188 4.492188 L 20.96875 4.492188 L 20.226562 4.984375 L 20.074219 4.875 L 19.921875 4.785156 L 19.550781 5.03125 L 19.179688 5.261719 L 19.089844 5.152344 L 18.980469 5.0625 L 17.949219 5.554688 C 16.933594 6.046875 16.640625 6.183594 16.101562 6.476562 C 15.949219 6.554688 15.578125 6.738281 15.285156 6.878906 C 14.992188 7.015625 14.546875 7.261719 14.285156 7.417969 C 14.039062 7.585938 13.714844 7.769531 13.589844 7.816406 C 13.222656 7.988281 11.726562 9.265625 11.003906 10.019531 C 9.496094 11.605469 9.15625 12.019531 8.21875 13.390625 L 7.246094 14.824219 L 6.585938 16.242188 C 5.753906 17.996094 5.351562 19.210938 4.96875 21.167969 L 4.660156 22.691406 L 4.660156 25.25 L 5.136719 25.648438 L 5.613281 26.050781 L 9.203125 26.050781 L 9.851562 25.757812 L 10.496094 25.464844 L 10.742188 24.972656 L 10.988281 24.492188 L 11.28125 22.96875 L 11.574219 21.460938 L 11.972656 20.691406 L 12.375 19.921875 L 13.023438 19.675781 C 13.390625 19.535156 13.761719 19.429688 13.851562 19.429688 L 14.023438 19.429688 L 14.113281 19.195312 L 14.191406 18.964844 L 14.699219 19.058594 C 15.976562 19.289062 17.085938 19.71875 17.472656 20.152344 C 17.625 20.304688 17.871094 20.753906 18.042969 21.121094 L 18.363281 21.816406 L 18.363281 23.246094 L 18.042969 25.078125 C 17.871094 26.078125 17.625 27.449219 17.519531 28.128906 C 17.394531 28.804688 17.054688 30.730469 16.761719 32.410156 C 16.457031 34.085938 16.210938 35.6875 16.210938 35.949219 L 16.210938 36.441406 L 16.484375 36.980469 L 16.777344 37.519531 L 17.363281 37.796875 L 17.949219 38.089844 L 18.457031 37.996094 L 18.949219 37.890625 L 19.488281 37.304688 L 20.027344 36.703125 L 20.121094 36.273438 C 20.195312 35.859375 21.769531 27.050781 22.84375 20.96875 C 23.09375 19.566406 23.585938 16.71875 23.96875 14.640625 L 24.648438 10.835938 L 25 10.203125 L 25.339844 9.574219 L 25.941406 9.1875 L 26.527344 8.804688 L 27.035156 8.804688 L 27.3125 8.558594 L 27.589844 8.308594 L 28.433594 8.308594 L 28.496094 8.480469 L 28.558594 8.648438 L 29.28125 8.648438 L 30.003906 9.15625 L 30.714844 9.648438 L 31.082031 10.375 L 31.453125 11.097656 L 31.453125 12.730469 L 31.007812 15.238281 L 30.542969 17.75 L 30.359375 17.980469 L 30.191406 18.195312 L 29.511719 18.195312 L 29.144531 17.828125 L 29.144531 17.347656 C 29.144531 17.070312 29.3125 15.933594 29.527344 14.792969 L 29.914062 12.730469 L 29.914062 11.25 L 29.421875 10.789062 C 29.144531 10.527344 28.742188 10.25 28.527344 10.171875 L 28.15625 10.019531 L 27.574219 10.113281 L 27.003906 10.21875 L 26.527344 10.742188 C 26.28125 11.035156 26.0625 11.328125 26.0625 11.390625 C 26.0625 11.453125 25.785156 13.023438 25.449219 14.886719 C 25.125 16.75 24.125 22.429688 23.230469 27.511719 L 21.597656 36.75 L 21.199219 37.566406 L 20.78125 38.367188 L 20.183594 38.859375 L 19.566406 39.335938 L 19.242188 39.382812 C 17.980469 39.539062 17.609375 39.554688 17.164062 39.492188 Z M 17.164062 39.492188 " fill-opacity="1" fill-rule="nonzero"/><path fill="#0d6efe" d="M 22.96875 46.417969 C 22.601562 46.359375 21.796875 46.242188 21.152344 46.152344 L 19.996094 45.992188 L 19.558594 45.773438 L 19.117188 45.554688 L 18.765625 45.554688 C 18.386719 45.554688 17.832031 45.304688 17.683594 45.074219 L 17.582031 44.941406 L 16.835938 44.941406 L 16.570312 44.691406 C 16.425781 44.5625 16.207031 44.445312 16.089844 44.414062 C 15.972656 44.386719 15.839844 44.296875 15.824219 44.226562 L 15.765625 44.09375 L 15.621094 44.179688 L 15.457031 44.285156 L 15.253906 44.019531 C 15.152344 43.859375 15.0625 43.785156 15.0625 43.84375 L 15.0625 43.960938 L 14.742188 43.785156 C 14.550781 43.683594 13.90625 43.289062 13.308594 42.878906 L 12.207031 42.148438 L 11.433594 41.40625 C 11.007812 40.996094 10.570312 40.617188 10.453125 40.542969 C 10.175781 40.398438 7.992188 37.78125 7.304688 36.789062 C 7.011719 36.347656 6.425781 35.3125 6.015625 34.507812 L 5.269531 33.03125 L 4.890625 31.835938 L 4.507812 30.652344 L 4.550781 30.34375 L 4.597656 30.023438 L 4.832031 29.875 L 5.066406 29.730469 L 5.445312 29.832031 L 5.824219 29.921875 L 6.191406 31.132812 L 6.558594 32.332031 L 7.128906 33.5 C 8.550781 36.378906 11.285156 39.710938 13.277344 40.980469 C 13.613281 41.199219 13.890625 41.433594 13.890625 41.492188 L 13.890625 41.609375 L 14.171875 41.609375 C 14.332031 41.609375 14.492188 41.667969 14.535156 41.742188 C 14.582031 41.800781 15.3125 42.207031 16.160156 42.632812 L 17.699219 43.40625 L 17.699219 43.667969 L 17.832031 43.597656 L 17.960938 43.507812 L 18.445312 43.667969 C 18.722656 43.773438 19.015625 43.917969 19.105469 44.035156 L 19.25 44.226562 L 20.273438 44.445312 C 20.832031 44.5625 21.679688 44.722656 22.179688 44.808594 L 23.054688 44.96875 L 27.332031 44.96875 L 27.417969 44.738281 L 27.507812 44.503906 L 27.695312 44.648438 L 27.871094 44.808594 L 28.824219 44.679688 C 30.125 44.503906 30.816406 44.3125 31.253906 44.035156 L 31.621094 43.785156 L 31.765625 43.875 L 31.914062 43.976562 L 32.265625 43.742188 C 32.453125 43.613281 32.96875 43.378906 33.390625 43.21875 C 33.816406 43.054688 34.300781 42.867188 34.460938 42.792969 C 34.621094 42.71875 34.972656 42.574219 35.234375 42.484375 L 35.71875 42.296875 L 35.867188 42.035156 L 36.011719 41.753906 L 36.597656 41.753906 L 36.671875 41.535156 L 36.757812 41.332031 L 37.402344 41.023438 L 38.046875 40.703125 L 39.1875 39.59375 C 39.816406 38.964844 40.695312 38.042969 41.136719 37.53125 L 41.925781 36.597656 L 42.628906 35.414062 C 43.007812 34.757812 43.550781 33.761719 43.828125 33.191406 L 44.328125 32.15625 L 44.75 30.710938 C 44.984375 29.90625 45.234375 28.941406 45.292969 28.546875 L 45.394531 27.816406 L 44.925781 27.40625 L 44.457031 27.011719 L 43.945312 26.910156 L 43.449219 26.824219 L 41.179688 26.882812 L 38.910156 26.953125 L 38.472656 26.429688 L 38.046875 25.902344 L 37.914062 25.417969 L 37.769531 24.9375 L 38.003906 23.710938 L 38.222656 22.484375 L 38.132812 22.117188 L 38.046875 21.765625 L 37.667969 21.3125 L 37.285156 20.859375 L 36.640625 20.859375 L 36.363281 20.582031 L 35.703125 20.773438 L 35.046875 20.964844 L 34.738281 21.535156 L 34.429688 22.101562 L 33.816406 25.507812 L 33.214844 28.910156 L 32.9375 29.453125 L 32.660156 29.992188 L 32.148438 30.488281 L 31.621094 30.988281 L 30.859375 31.148438 L 30.097656 31.324219 L 29.277344 31.175781 L 28.457031 31.03125 L 27.082031 29.65625 L 26.832031 28.824219 L 26.597656 27.976562 L 27.140625 24.894531 C 27.710938 21.664062 27.785156 21.402344 28.222656 21.167969 L 28.488281 21.023438 L 28.808594 21.3125 L 29.117188 21.605469 L 29.117188 21.8125 C 29.117188 21.925781 28.882812 23.375 28.589844 25.039062 L 28.0625 28.050781 L 28.328125 28.632812 L 28.589844 29.234375 L 29.042969 29.496094 L 29.484375 29.773438 L 30.582031 29.773438 L 31.152344 29.261719 L 31.722656 28.738281 L 31.882812 28.050781 C 31.972656 27.671875 32.277344 26.046875 32.558594 24.441406 L 33.085938 21.519531 L 33.449219 20.757812 L 33.816406 20.011719 L 34.136719 19.808594 C 34.519531 19.5625 35.867188 19.109375 36.214844 19.109375 C 36.347656 19.109375 36.832031 19.210938 37.285156 19.339844 L 38.121094 19.574219 L 38.734375 20.21875 L 39.335938 20.847656 L 39.511719 21.664062 L 39.6875 22.484375 L 39.480469 23.710938 L 39.261719 24.921875 L 39.496094 25.304688 L 39.730469 25.683594 L 42.21875 25.699219 C 43.582031 25.699219 44.855469 25.726562 45.042969 25.769531 L 45.378906 25.828125 L 45.878906 26.207031 L 46.375 26.589844 L 46.875 27.902344 L 46.714844 29 L 46.539062 30.09375 L 45.996094 31.703125 L 45.46875 33.308594 L 44.824219 34.566406 L 44.164062 35.839844 L 43.082031 37.371094 L 42 38.921875 L 40.535156 40.351562 L 39.058594 41.800781 L 37.8125 42.71875 L 36.554688 43.640625 L 36.347656 43.554688 L 36.144531 43.480469 L 36.054688 43.714844 L 35.96875 43.949219 L 35.835938 43.859375 L 35.703125 43.785156 L 35.703125 44.035156 L 35.175781 44.285156 L 34.664062 44.53125 L 34.503906 44.445312 L 34.34375 44.34375 L 34.136719 44.605469 C 34.035156 44.765625 33.949219 44.839844 33.949219 44.792969 C 33.949219 44.738281 33.773438 44.78125 33.566406 44.898438 L 33.1875 45.085938 L 32.980469 45.015625 L 32.777344 44.941406 L 32.6875 45.1875 L 32.585938 45.421875 L 32.25 45.351562 L 31.914062 45.261719 L 31.765625 45.511719 C 31.679688 45.65625 31.605469 45.730469 31.605469 45.65625 L 31.605469 45.554688 L 31.238281 45.789062 L 30.859375 46.035156 L 30.769531 45.949219 L 30.683594 45.863281 L 30.433594 45.992188 C 30.300781 46.066406 29.644531 46.199219 28.957031 46.285156 L 27.726562 46.445312 L 25.675781 46.476562 L 23.628906 46.503906 Z M 22.96875 46.417969 " fill-opacity="1" fill-rule="nonzero"/><path fill="#0d6efe" d="M 17.140625 38.4375 L 16.644531 38.378906 L 15.855469 37.5625 L 15.0625 36.742188 L 14.917969 36.21875 C 14.683594 35.386719 14.742188 34.769531 15.28125 31.703125 C 15.574219 30.125 16.058594 27.390625 16.367188 25.625 L 16.9375 22.4375 L 16.789062 21.972656 L 16.644531 21.519531 L 16.292969 21.195312 L 15.941406 20.875 L 14.886719 20.671875 L 14.300781 20.875 L 13.730469 21.066406 L 13.453125 21.402344 L 13.191406 21.753906 L 13.015625 22.804688 C 12.925781 23.375 12.75 24.191406 12.648438 24.601562 L 12.429688 25.347656 L 11.929688 25.976562 C 11.652344 26.324219 11.300781 26.675781 11.140625 26.765625 L 10.832031 26.925781 L 7.964844 26.910156 L 5.09375 26.894531 L 4.507812 26.253906 L 3.921875 25.609375 L 3.835938 25.257812 L 3.746094 24.910156 L 3.851562 23.140625 L 3.9375 21.371094 L 4.246094 20.128906 C 4.84375 17.589844 5.839844 15.222656 7.054688 13.394531 C 8.796875 10.808594 9.121094 10.398438 10.671875 8.921875 L 11.625 8.015625 L 11.800781 8.003906 C 11.886719 8.003906 12.0625 7.886719 12.164062 7.726562 L 12.355469 7.460938 L 12.691406 7.359375 L 13.015625 7.257812 L 13.015625 6.996094 L 13.671875 6.703125 C 14.023438 6.542969 14.609375 6.21875 14.976562 5.972656 C 15.339844 5.722656 15.691406 5.519531 15.765625 5.519531 C 15.855469 5.519531 15.957031 5.417969 16 5.285156 L 16.089844 5.050781 L 16.308594 5.140625 L 16.542969 5.226562 L 16.863281 5.035156 C 17.039062 4.949219 17.304688 4.773438 17.433594 4.65625 L 17.683594 4.453125 L 17.976562 4.539062 L 18.269531 4.613281 L 18.429688 4.421875 L 18.589844 4.234375 L 19.058594 4.144531 C 19.324219 4.085938 19.6875 4.042969 19.894531 4.042969 L 20.261719 4.027344 L 20.363281 3.867188 L 20.464844 3.691406 L 21.050781 3.691406 L 21.621094 3.679688 L 21.839844 3.488281 L 22.074219 3.3125 L 22.703125 3.371094 L 23.335938 3.429688 L 24.183594 3.253906 L 25.019531 3.09375 L 25.089844 3.167969 C 25.238281 3.296875 25.808594 3.339844 27.183594 3.328125 L 28.5625 3.3125 L 28.792969 3.515625 L 29.042969 3.734375 L 29.554688 3.734375 C 29.835938 3.722656 30.183594 3.78125 30.316406 3.839844 C 30.464844 3.898438 30.757812 3.957031 30.976562 3.957031 L 31.386719 3.984375 L 31.589844 4.175781 L 31.796875 4.378906 L 32.058594 4.304688 L 32.324219 4.234375 L 32.5 4.4375 L 32.660156 4.640625 L 33.171875 4.640625 L 34.519531 5.300781 C 35.25 5.664062 35.953125 5.957031 36.070312 5.957031 C 36.171875 5.957031 36.304688 6.015625 36.363281 6.089844 C 36.40625 6.175781 36.917969 6.542969 37.503906 6.921875 C 38.074219 7.300781 38.71875 7.769531 38.925781 7.945312 C 39.128906 8.121094 39.6875 8.632812 40.167969 9.054688 C 43.710938 12.226562 46.039062 16.609375 46.902344 21.765625 L 46.992188 22.308594 L 46.65625 22.601562 C 46.257812 22.980469 46.070312 22.980469 45.777344 22.660156 L 45.542969 22.394531 L 45.367188 21.519531 C 44.824219 18.683594 43.757812 16.023438 42.175781 13.554688 L 41.664062 12.75 L 39.628906 10.734375 C 38.515625 9.640625 37.535156 8.734375 37.460938 8.734375 C 37.386719 8.734375 37.242188 8.644531 37.140625 8.558594 C 36.789062 8.207031 35.761719 7.566406 35.585938 7.566406 L 35.410156 7.566406 L 35.410156 7.273438 L 34.824219 7.273438 L 34.824219 7.15625 C 34.824219 7.039062 34.195312 6.746094 33.609375 6.601562 L 33.1875 6.496094 L 33.113281 6.308594 L 33.039062 6.101562 L 32.351562 6.101562 L 32.265625 5.957031 L 32.175781 5.8125 L 31.472656 5.8125 L 31.386719 5.664062 L 31.296875 5.519531 L 30.464844 5.519531 L 30.070312 5.3125 L 29.671875 5.109375 L 29.175781 5.183594 L 28.675781 5.269531 L 28.503906 5.109375 L 28.3125 4.964844 L 26.117188 4.933594 C 24.902344 4.933594 23.613281 4.90625 23.21875 4.875 L 22.527344 4.832031 L 22.367188 5.035156 L 22.207031 5.226562 L 20.757812 5.226562 L 20.054688 5.695312 L 19.910156 5.59375 L 19.761719 5.503906 L 19.410156 5.738281 L 19.058594 5.957031 L 18.972656 5.855469 L 18.871094 5.765625 L 17.890625 6.234375 C 16.921875 6.703125 16.644531 6.832031 16.132812 7.113281 C 15.984375 7.183594 15.632812 7.359375 15.355469 7.492188 C 15.078125 7.621094 14.652344 7.855469 14.40625 8.003906 C 14.171875 8.164062 13.863281 8.339844 13.746094 8.382812 C 13.394531 8.542969 11.972656 9.757812 11.285156 10.472656 C 9.851562 11.976562 9.53125 12.371094 8.636719 13.671875 L 7.714844 15.03125 L 7.085938 16.375 C 6.292969 18.042969 5.914062 19.195312 5.546875 21.050781 L 5.253906 22.496094 L 5.253906 24.921875 L 5.710938 25.304688 L 6.164062 25.683594 L 9.574219 25.683594 L 10.1875 25.40625 L 10.804688 25.128906 L 11.039062 24.660156 L 11.273438 24.207031 L 11.550781 22.761719 L 11.828125 21.328125 L 12.207031 20.597656 L 12.589844 19.867188 L 13.203125 19.632812 C 13.554688 19.503906 13.90625 19.398438 13.996094 19.398438 L 14.15625 19.398438 L 14.242188 19.179688 L 14.316406 18.960938 L 14.800781 19.050781 C 16.015625 19.269531 17.070312 19.675781 17.433594 20.085938 C 17.582031 20.234375 17.816406 20.65625 17.976562 21.007812 L 18.285156 21.664062 L 18.285156 23.023438 L 17.976562 24.761719 C 17.816406 25.710938 17.582031 27.011719 17.480469 27.65625 C 17.363281 28.296875 17.039062 30.125 16.761719 31.71875 C 16.46875 33.308594 16.234375 34.828125 16.234375 35.078125 L 16.234375 35.546875 L 16.496094 36.058594 L 16.777344 36.570312 L 17.332031 36.832031 L 17.890625 37.109375 L 18.371094 37.023438 L 18.839844 36.917969 L 19.351562 36.363281 L 19.863281 35.792969 L 19.953125 35.386719 C 20.027344 34.992188 21.519531 26.632812 22.542969 20.859375 C 22.777344 19.53125 23.246094 16.828125 23.613281 14.855469 L 24.257812 11.246094 L 24.59375 10.648438 L 24.914062 10.046875 L 25.488281 9.683594 L 26.042969 9.316406 L 26.527344 9.316406 L 26.789062 9.085938 L 27.054688 8.851562 L 27.859375 8.851562 L 27.976562 9.171875 L 28.664062 9.171875 L 29.351562 9.652344 L 30.023438 10.121094 L 30.726562 11.496094 L 30.726562 13.042969 L 30.300781 15.425781 L 29.863281 17.808594 L 29.6875 18.027344 L 29.527344 18.230469 L 28.882812 18.230469 L 28.53125 17.878906 L 28.53125 17.425781 C 28.53125 17.164062 28.691406 16.082031 28.898438 15 L 29.261719 13.042969 L 29.261719 11.640625 L 28.792969 11.203125 C 28.53125 10.953125 28.152344 10.691406 27.945312 10.617188 L 27.59375 10.472656 L 27.039062 10.558594 L 26.496094 10.664062 L 26.042969 11.160156 C 25.808594 11.4375 25.601562 11.714844 25.601562 11.773438 C 25.601562 11.832031 25.339844 13.320312 25.019531 15.089844 C 24.710938 16.859375 23.757812 22.25 22.910156 27.070312 L 21.359375 35.839844 L 20.976562 36.613281 L 20.582031 37.371094 L 20.011719 37.839844 L 19.425781 38.292969 L 19.117188 38.335938 C 17.917969 38.484375 17.566406 38.496094 17.140625 38.4375 Z M 17.140625 38.4375 " fill-opacity="1" fill-rule="nonzero"/><g fill="#b1d0fd" fill-opacity="1"><g transform="translate(49.679412, 35.87797)"><g><path d="M 6.40625 -6.84375 L 13.1875 -6.84375 L 11.453125 -15.4375 Z M 16.640625 0 L 14.546875 0 L 13.53125 -5.0625 L 5.34375 -5.0625 L 2.359375 0 L 0.28125 0 L 12.328125 -19.921875 Z M 16.640625 0 "/></g></g></g><g fill="#b1d0fd" fill-opacity="1"><g transform="translate(66.587289, 35.87797)"><g><path d="M 14.828125 -7.734375 L 12.75 -7.734375 C 12.539062 -8.515625 12.144531 -9.132812 11.5625 -9.59375 C 10.945312 -10.070312 10.289062 -10.3125 9.59375 -10.3125 C 9.25 -10.3125 8.914062 -10.273438 8.59375 -10.203125 C 8.269531 -10.140625 7.972656 -10.054688 7.703125 -9.953125 C 7.148438 -9.734375 6.644531 -9.421875 6.1875 -9.015625 C 5.207031 -8.160156 4.609375 -7.164062 4.390625 -6.03125 C 4.171875 -4.820312 4.378906 -3.804688 5.015625 -2.984375 C 5.671875 -2.148438 6.578125 -1.734375 7.734375 -1.734375 C 8.492188 -1.734375 9.238281 -1.929688 9.96875 -2.328125 C 10.71875 -2.742188 11.332031 -3.285156 11.8125 -3.953125 L 13.984375 -3.953125 C 12.921875 -2.046875 11.359375 -0.75 9.296875 -0.0625 C 8.671875 0.164062 7.96875 0.28125 7.1875 0.28125 C 6.4375 0.28125 5.710938 0.113281 5.015625 -0.21875 C 4.316406 -0.550781 3.75 -1.007812 3.3125 -1.59375 C 2.382812 -2.851562 2.082031 -4.332031 2.40625 -6.03125 C 2.738281 -7.726562 3.617188 -9.195312 5.046875 -10.4375 C 6.503906 -11.6875 8.082031 -12.3125 9.78125 -12.3125 C 11.164062 -12.3125 12.335938 -11.878906 13.296875 -11.015625 C 14.203125 -10.191406 14.710938 -9.097656 14.828125 -7.734375 Z M 14.828125 -7.734375 "/></g></g></g><g fill="#b1d0fd" fill-opacity="1"><g transform="translate(80.864445, 35.87797)"><g><path d="M 12.828125 -6.03125 C 13.046875 -7.195312 12.835938 -8.21875 12.203125 -9.09375 C 11.535156 -9.976562 10.609375 -10.421875 9.421875 -10.421875 C 8.222656 -10.421875 7.128906 -9.976562 6.140625 -9.09375 C 5.148438 -8.21875 4.546875 -7.195312 4.328125 -6.03125 C 4.109375 -4.84375 4.3125 -3.816406 4.9375 -2.953125 C 5.59375 -2.078125 6.523438 -1.640625 7.734375 -1.640625 C 8.921875 -1.640625 10.003906 -2.078125 10.984375 -2.953125 C 11.992188 -3.847656 12.609375 -4.875 12.828125 -6.03125 Z M 13.5625 0 L 11.640625 0 L 12.0625 -2.0625 C 11.988281 -1.988281 11.914062 -1.914062 11.84375 -1.84375 C 11.769531 -1.78125 11.695312 -1.710938 11.625 -1.640625 C 10.226562 -0.359375 8.703125 0.28125 7.046875 0.28125 C 5.359375 0.28125 4.078125 -0.359375 3.203125 -1.640625 C 2.347656 -2.867188 2.082031 -4.332031 2.40625 -6.03125 C 2.738281 -7.726562 3.570312 -9.191406 4.90625 -10.421875 C 6.289062 -11.691406 7.816406 -12.328125 9.484375 -12.328125 C 11.160156 -12.328125 12.4375 -11.691406 13.3125 -10.421875 C 13.351562 -10.347656 13.398438 -10.273438 13.453125 -10.203125 C 13.503906 -10.140625 13.550781 -10.070312 13.59375 -10 L 14 -12.0625 L 15.921875 -12.0625 Z M 13.5625 0 "/></g></g></g><g fill="#b1d0fd" fill-opacity="1"><g transform="translate(96.484364, 35.87797)"><g><path d="M 12.828125 -6.03125 C 13.046875 -7.195312 12.835938 -8.21875 12.203125 -9.09375 C 11.535156 -9.976562 10.609375 -10.421875 9.421875 -10.421875 C 8.222656 -10.421875 7.128906 -9.976562 6.140625 -9.09375 C 5.148438 -8.21875 4.546875 -7.195312 4.328125 -6.03125 C 4.109375 -4.84375 4.3125 -3.816406 4.9375 -2.953125 C 5.59375 -2.078125 6.523438 -1.640625 7.734375 -1.640625 C 8.921875 -1.640625 10.003906 -2.078125 10.984375 -2.953125 C 11.992188 -3.847656 12.609375 -4.875 12.828125 -6.03125 Z M 13.5625 0 L 11.640625 0 L 12.0625 -2.0625 C 11.988281 -1.988281 11.914062 -1.914062 11.84375 -1.84375 C 11.769531 -1.78125 11.695312 -1.710938 11.625 -1.640625 C 10.226562 -0.359375 8.703125 0.28125 7.046875 0.28125 C 5.359375 0.28125 4.078125 -0.359375 3.203125 -1.640625 C 2.347656 -2.867188 2.082031 -4.332031 2.40625 -6.03125 C 2.738281 -7.726562 3.570312 -9.191406 4.90625 -10.421875 C 6.289062 -11.691406 7.816406 -12.328125 9.484375 -12.328125 C 11.160156 -12.328125 12.4375 -11.691406 13.3125 -10.421875 C 13.351562 -10.347656 13.398438 -10.273438 13.453125 -10.203125 C 13.503906 -10.140625 13.550781 -10.070312 13.59375 -10 L 15.65625 -20.546875 L 17.5625 -20.546875 Z M 13.5625 0 "/></g></g></g><g fill="#b1d0fd" fill-opacity="1"><g transform="translate(112.104285, 35.87797)"><g><path d="M 7.15625 -16.21875 C 7.332031 -15.988281 7.394531 -15.695312 7.34375 -15.34375 C 7.289062 -15.050781 7.117188 -14.769531 6.828125 -14.5 C 6.566406 -14.257812 6.253906 -14.140625 5.890625 -14.140625 C 5.546875 -14.140625 5.28125 -14.257812 5.09375 -14.5 C 4.914062 -14.738281 4.851562 -15.019531 4.90625 -15.34375 C 4.957031 -15.675781 5.128906 -15.96875 5.421875 -16.21875 C 5.679688 -16.457031 5.992188 -16.578125 6.359375 -16.578125 C 6.703125 -16.578125 6.96875 -16.457031 7.15625 -16.21875 Z M 4.109375 0 L 2.1875 0 L 4.546875 -12.0625 L 6.46875 -12.0625 Z M 4.109375 0 "/></g></g></g><g fill="#b1d0fd" fill-opacity="1"><g transform="translate(118.379656, 35.87797)"><g><path d="M 12.171875 -18.765625 L 10.53125 -18.765625 C 9.863281 -18.765625 9.414062 -18.617188 9.1875 -18.328125 C 8.90625 -18.003906 8.726562 -17.648438 8.65625 -17.265625 L 7.671875 -12.0625 L 10.875 -12.0625 L 10.53125 -10.28125 L 7.3125 -10.28125 L 5.3125 0 L 3.390625 0 L 5.40625 -10.28125 L 2.953125 -10.28125 L 3.3125 -12.0625 L 5.75 -12.0625 L 6.65625 -16.71875 C 6.78125 -17.34375 6.957031 -17.890625 7.1875 -18.359375 C 7.414062 -18.835938 7.707031 -19.238281 8.0625 -19.5625 C 8.769531 -20.21875 9.800781 -20.546875 11.15625 -20.546875 L 12.53125 -20.546875 Z M 12.171875 -18.765625 "/></g></g></g><g fill="#b1d0fd" fill-opacity="1"><g transform="translate(127.724207, 35.87797)"><g><path d="M 2.25 6.84375 L -0.078125 6.84375 L 5.703125 -1.96875 L 2.625 -12.0625 L 4.828125 -12.0625 L 7.09375 -3.96875 L 12.140625 -12.0625 L 14.28125 -12.0625 Z M 2.25 6.84375 "/></g></g></g><g fill="#0d6efe" fill-opacity="1"><g transform="translate(51.355111, 34.259766)"><g><path d="M 6.40625 -6.84375 L 13.1875 -6.84375 L 11.453125 -15.4375 Z M 16.640625 0 L 14.546875 0 L 13.53125 -5.0625 L 5.34375 -5.0625 L 2.359375 0 L 0.28125 0 L 12.328125 -19.921875 Z M 16.640625 0 "/></g></g></g><g fill="#0d6efe" fill-opacity="1"><g transform="translate(68.262988, 34.259766)"><g><path d="M 14.828125 -7.734375 L 12.75 -7.734375 C 12.539062 -8.515625 12.144531 -9.132812 11.5625 -9.59375 C 10.945312 -10.070312 10.289062 -10.3125 9.59375 -10.3125 C 9.25 -10.3125 8.914062 -10.273438 8.59375 -10.203125 C 8.269531 -10.140625 7.972656 -10.054688 7.703125 -9.953125 C 7.148438 -9.734375 6.644531 -9.421875 6.1875 -9.015625 C 5.207031 -8.160156 4.609375 -7.164062 4.390625 -6.03125 C 4.171875 -4.820312 4.378906 -3.804688 5.015625 -2.984375 C 5.671875 -2.148438 6.578125 -1.734375 7.734375 -1.734375 C 8.492188 -1.734375 9.238281 -1.929688 9.96875 -2.328125 C 10.71875 -2.742188 11.332031 -3.285156 11.8125 -3.953125 L 13.984375 -3.953125 C 12.921875 -2.046875 11.359375 -0.75 9.296875 -0.0625 C 8.671875 0.164062 7.96875 0.28125 7.1875 0.28125 C 6.4375 0.28125 5.710938 0.113281 5.015625 -0.21875 C 4.316406 -0.550781 3.75 -1.007812 3.3125 -1.59375 C 2.382812 -2.851562 2.082031 -4.332031 2.40625 -6.03125 C 2.738281 -7.726562 3.617188 -9.195312 5.046875 -10.4375 C 6.503906 -11.6875 8.082031 -12.3125 9.78125 -12.3125 C 11.164062 -12.3125 12.335938 -11.878906 13.296875 -11.015625 C 14.203125 -10.191406 14.710938 -9.097656 14.828125 -7.734375 Z M 14.828125 -7.734375 "/></g></g></g><g fill="#0d6efe" fill-opacity="1"><g transform="translate(82.540144, 34.259766)"><g><path d="M 12.828125 -6.03125 C 13.046875 -7.195312 12.835938 -8.21875 12.203125 -9.09375 C 11.535156 -9.976562 10.609375 -10.421875 9.421875 -10.421875 C 8.222656 -10.421875 7.128906 -9.976562 6.140625 -9.09375 C 5.148438 -8.21875 4.546875 -7.195312 4.328125 -6.03125 C 4.109375 -4.84375 4.3125 -3.816406 4.9375 -2.953125 C 5.59375 -2.078125 6.523438 -1.640625 7.734375 -1.640625 C 8.921875 -1.640625 10.003906 -2.078125 10.984375 -2.953125 C 11.992188 -3.847656 12.609375 -4.875 12.828125 -6.03125 Z M 13.5625 0 L 11.640625 0 L 12.0625 -2.0625 C 11.988281 -1.988281 11.914062 -1.914062 11.84375 -1.84375 C 11.769531 -1.78125 11.695312 -1.710938 11.625 -1.640625 C 10.226562 -0.359375 8.703125 0.28125 7.046875 0.28125 C 5.359375 0.28125 4.078125 -0.359375 3.203125 -1.640625 C 2.347656 -2.867188 2.082031 -4.332031 2.40625 -6.03125 C 2.738281 -7.726562 3.570312 -9.191406 4.90625 -10.421875 C 6.289062 -11.691406 7.816406 -12.328125 9.484375 -12.328125 C 11.160156 -12.328125 12.4375 -11.691406 13.3125 -10.421875 C 13.351562 -10.347656 13.398438 -10.273438 13.453125 -10.203125 C 13.503906 -10.140625 13.550781 -10.070312 13.59375 -10 L 14 -12.0625 L 15.921875 -12.0625 Z M 13.5625 0 "/></g></g></g><g fill="#0d6efe" fill-opacity="1"><g transform="translate(98.160063, 34.259766)"><g><path d="M 12.828125 -6.03125 C 13.046875 -7.195312 12.835938 -8.21875 12.203125 -9.09375 C 11.535156 -9.976562 10.609375 -10.421875 9.421875 -10.421875 C 8.222656 -10.421875 7.128906 -9.976562 6.140625 -9.09375 C 5.148438 -8.21875 4.546875 -7.195312 4.328125 -6.03125 C 4.109375 -4.84375 4.3125 -3.816406 4.9375 -2.953125 C 5.59375 -2.078125 6.523438 -1.640625 7.734375 -1.640625 C 8.921875 -1.640625 10.003906 -2.078125 10.984375 -2.953125 C 11.992188 -3.847656 12.609375 -4.875 12.828125 -6.03125 Z M 13.5625 0 L 11.640625 0 L 12.0625 -2.0625 C 11.988281 -1.988281 11.914062 -1.914062 11.84375 -1.84375 C 11.769531 -1.78125 11.695312 -1.710938 11.625 -1.640625 C 10.226562 -0.359375 8.703125 0.28125 7.046875 0.28125 C 5.359375 0.28125 4.078125 -0.359375 3.203125 -1.640625 C 2.347656 -2.867188 2.082031 -4.332031 2.40625 -6.03125 C 2.738281 -7.726562 3.570312 -9.191406 4.90625 -10.421875 C 6.289062 -11.691406 7.816406 -12.328125 9.484375 -12.328125 C 11.160156 -12.328125 12.4375 -11.691406 13.3125 -10.421875 C 13.351562 -10.347656 13.398438 -10.273438 13.453125 -10.203125 C 13.503906 -10.140625 13.550781 -10.070312 13.59375 -10 L 15.65625 -20.546875 L 17.5625 -20.546875 Z M 13.5625 0 "/></g></g></g><g fill="#0d6efe" fill-opacity="1"><g transform="translate(113.779984, 34.259766)"><g><path d="M 7.15625 -16.21875 C 7.332031 -15.988281 7.394531 -15.695312 7.34375 -15.34375 C 7.289062 -15.050781 7.117188 -14.769531 6.828125 -14.5 C 6.566406 -14.257812 6.253906 -14.140625 5.890625 -14.140625 C 5.546875 -14.140625 5.28125 -14.257812 5.09375 -14.5 C 4.914062 -14.738281 4.851562 -15.019531 4.90625 -15.34375 C 4.957031 -15.675781 5.128906 -15.96875 5.421875 -16.21875 C 5.679688 -16.457031 5.992188 -16.578125 6.359375 -16.578125 C 6.703125 -16.578125 6.96875 -16.457031 7.15625 -16.21875 Z M 4.109375 0 L 2.1875 0 L 4.546875 -12.0625 L 6.46875 -12.0625 Z M 4.109375 0 "/></g></g></g><g fill="#0d6efe" fill-opacity="1"><g transform="translate(120.055355, 34.259766)"><g><path d="M 12.171875 -18.765625 L 10.53125 -18.765625 C 9.863281 -18.765625 9.414062 -18.617188 9.1875 -18.328125 C 8.90625 -18.003906 8.726562 -17.648438 8.65625 -17.265625 L 7.671875 -12.0625 L 10.875 -12.0625 L 10.53125 -10.28125 L 7.3125 -10.28125 L 5.3125 0 L 3.390625 0 L 5.40625 -10.28125 L 2.953125 -10.28125 L 3.3125 -12.0625 L 5.75 -12.0625 L 6.65625 -16.71875 C 6.78125 -17.34375 6.957031 -17.890625 7.1875 -18.359375 C 7.414062 -18.835938 7.707031 -19.238281 8.0625 -19.5625 C 8.769531 -20.21875 9.800781 -20.546875 11.15625 -20.546875 L 12.53125 -20.546875 Z M 12.171875 -18.765625 "/></g></g></g><g fill="#0d6efe" fill-opacity="1"><g transform="translate(129.399906, 34.259766)"><g><path d="M 2.25 6.84375 L -0.078125 6.84375 L 5.703125 -1.96875 L 2.625 -12.0625 L 4.828125 -12.0625 L 7.09375 -3.96875 L 12.140625 -12.0625 L 14.28125 -12.0625 Z M 2.25 6.84375 "/></g></g></g></svg>