<svg xmlns="http://www.w3.org/2000/svg" xmlns:xlink="http://www.w3.org/1999/xlink" width="169" zoomAndPan="magnify" viewBox="0 0 126.75 40.499999" height="54" preserveAspectRatio="xMidYMid meet" version="1.0"><defs><g/><clipPath id="5cc921c874"><path d="M 2 1.113281 L 39 1.113281 L 39 32 L 2 32 Z M 2 1.113281 " clip-rule="nonzero"/></clipPath><clipPath id="328dd4529a"><path d="M 3 15 L 37.804688 15 L 37.804688 37 L 3 37 Z M 3 15 " clip-rule="nonzero"/></clipPath><clipPath id="c2159d48a8"><path d="M 3 2 L 37.804688 2 L 37.804688 31 L 3 31 Z M 3 2 " clip-rule="nonzero"/></clipPath></defs><path fill="#b1d0fd" d="M 18.726562 37.796875 C 18.421875 37.746094 17.753906 37.648438 17.21875 37.578125 L 16.261719 37.441406 L 15.894531 37.261719 L 15.53125 37.078125 L 15.238281 37.078125 C 14.925781 37.078125 14.460938 36.871094 14.339844 36.675781 L 14.253906 36.566406 L 13.636719 36.566406 L 13.417969 36.363281 C 13.296875 36.253906 13.113281 36.15625 13.015625 36.128906 C 12.917969 36.105469 12.808594 36.035156 12.796875 35.972656 L 12.75 35.863281 L 12.628906 35.9375 L 12.492188 36.019531 L 12.324219 35.804688 C 12.238281 35.667969 12.164062 35.609375 12.164062 35.65625 L 12.164062 35.753906 L 11.898438 35.609375 C 11.742188 35.523438 11.207031 35.195312 10.707031 34.855469 L 9.796875 34.246094 L 9.152344 33.628906 C 8.800781 33.289062 8.4375 32.972656 8.339844 32.910156 C 8.109375 32.789062 6.296875 30.613281 5.726562 29.789062 C 5.484375 29.425781 4.996094 28.5625 4.65625 27.894531 L 4.039062 26.664062 L 3.722656 25.667969 L 3.40625 24.683594 L 3.441406 24.429688 L 3.476562 24.164062 L 3.867188 23.921875 L 4.183594 24.003906 L 4.5 24.078125 L 4.804688 25.085938 L 5.105469 26.082031 L 5.582031 27.054688 C 6.757812 29.449219 9.03125 32.21875 10.683594 33.277344 C 10.964844 33.457031 11.195312 33.652344 11.195312 33.699219 L 11.195312 33.796875 L 11.425781 33.796875 C 11.558594 33.796875 11.691406 33.847656 11.726562 33.90625 C 11.765625 33.957031 12.371094 34.296875 13.078125 34.648438 L 14.351562 35.292969 L 14.351562 35.511719 L 14.460938 35.449219 L 14.570312 35.378906 L 14.972656 35.511719 C 15.203125 35.597656 15.445312 35.71875 15.519531 35.816406 L 15.640625 35.972656 L 16.492188 36.15625 C 16.953125 36.253906 17.65625 36.386719 18.070312 36.457031 L 18.800781 36.59375 L 22.347656 36.59375 L 22.421875 36.398438 L 22.492188 36.203125 L 22.652344 36.324219 L 22.796875 36.457031 L 23.585938 36.347656 C 24.667969 36.203125 25.238281 36.046875 25.605469 35.816406 L 25.90625 35.609375 L 26.027344 35.679688 L 26.152344 35.765625 L 26.441406 35.570312 C 26.601562 35.460938 27.023438 35.269531 27.378906 35.132812 C 27.730469 35 28.132812 34.84375 28.265625 34.78125 C 28.398438 34.722656 28.691406 34.601562 28.910156 34.527344 L 29.308594 34.367188 L 29.429688 34.148438 L 29.550781 33.917969 L 30.039062 33.917969 L 30.097656 33.738281 L 30.171875 33.566406 L 30.707031 33.3125 L 31.242188 33.042969 L 32.1875 32.121094 C 32.710938 31.597656 33.441406 30.832031 33.804688 30.40625 L 34.460938 29.628906 L 35.042969 28.644531 C 35.359375 28.097656 35.808594 27.273438 36.039062 26.800781 L 36.453125 25.9375 L 36.804688 24.734375 C 37 24.066406 37.207031 23.265625 37.253906 22.9375 L 37.339844 22.328125 L 36.953125 21.988281 L 36.5625 21.660156 L 36.136719 21.574219 L 35.726562 21.503906 L 33.839844 21.550781 L 31.957031 21.613281 L 31.59375 21.175781 L 31.242188 20.738281 L 31.132812 20.335938 L 31.011719 19.933594 L 31.203125 18.914062 L 31.386719 17.894531 L 31.3125 17.589844 L 31.242188 17.296875 L 30.925781 16.921875 L 30.609375 16.542969 L 30.074219 16.542969 L 29.84375 16.3125 L 29.296875 16.472656 L 28.75 16.628906 L 28.496094 17.105469 L 28.242188 17.578125 L 27.730469 20.410156 L 27.230469 23.238281 L 26.769531 24.136719 L 26.34375 24.550781 L 25.90625 24.964844 L 25.277344 25.097656 L 24.644531 25.246094 L 23.964844 25.121094 L 23.28125 25 L 22.140625 23.859375 L 21.933594 23.167969 L 21.738281 22.460938 L 22.191406 19.898438 C 22.664062 17.214844 22.722656 16.996094 23.089844 16.800781 L 23.308594 16.679688 L 23.574219 16.921875 L 23.828125 17.164062 L 23.828125 17.335938 C 23.828125 17.433594 23.636719 18.632812 23.390625 20.019531 L 22.953125 22.523438 L 23.171875 23.007812 L 23.390625 23.507812 L 23.769531 23.726562 L 24.132812 23.957031 L 25.042969 23.957031 L 25.519531 23.53125 L 25.992188 23.09375 L 26.125 22.523438 C 26.199219 22.207031 26.453125 20.859375 26.683594 19.523438 L 27.121094 17.089844 L 27.425781 16.460938 L 27.730469 15.839844 L 27.996094 15.671875 C 28.3125 15.464844 29.429688 15.085938 29.722656 15.085938 C 29.832031 15.085938 30.234375 15.171875 30.609375 15.28125 L 31.300781 15.476562 L 31.8125 16.011719 L 32.3125 16.53125 L 32.457031 17.214844 L 32.601562 17.894531 L 32.433594 18.914062 L 32.25 19.921875 L 32.640625 20.554688 L 34.703125 20.566406 C 35.835938 20.566406 36.890625 20.589844 37.050781 20.628906 L 37.328125 20.675781 L 38.15625 21.308594 L 38.363281 21.855469 L 38.566406 22.402344 L 38.433594 23.3125 L 38.289062 24.222656 L 37.839844 25.558594 L 37.402344 26.898438 L 36.867188 27.941406 L 36.320312 29 L 35.421875 30.273438 L 34.523438 31.5625 L 33.308594 32.753906 L 32.078125 33.957031 L 31.046875 34.722656 L 30.003906 35.488281 L 29.832031 35.414062 L 29.660156 35.351562 L 29.589844 35.546875 L 29.515625 35.742188 L 29.40625 35.667969 L 29.296875 35.609375 L 29.296875 35.816406 L 28.859375 36.019531 L 28.433594 36.226562 L 28.300781 36.15625 L 28.167969 36.070312 L 27.996094 36.289062 C 27.914062 36.421875 27.839844 36.484375 27.839844 36.445312 C 27.839844 36.398438 27.695312 36.433594 27.523438 36.53125 L 27.207031 36.691406 L 27.039062 36.628906 L 26.867188 36.566406 L 26.792969 36.773438 L 26.710938 36.96875 L 26.429688 36.910156 L 26.152344 36.835938 L 26.027344 37.042969 C 25.957031 37.164062 25.894531 37.222656 25.894531 37.164062 L 25.894531 37.078125 L 25.589844 37.273438 L 25.277344 37.480469 L 25.128906 37.332031 L 24.921875 37.441406 C 24.8125 37.503906 24.265625 37.613281 23.695312 37.6875 L 22.675781 37.820312 L 20.972656 37.84375 L 19.273438 37.867188 Z M 18.726562 37.796875 " fill-opacity="1" fill-rule="nonzero"/><g clip-path="url(#5cc921c874)"><path fill="#b1d0fd" d="M 13.890625 31.160156 L 13.476562 31.113281 L 12.164062 29.753906 L 12.042969 29.316406 C 11.851562 28.621094 11.898438 28.113281 12.347656 25.558594 C 12.589844 24.246094 12.992188 21.976562 13.246094 20.503906 L 13.722656 17.855469 L 13.597656 17.46875 L 13.476562 17.089844 L 13.1875 16.824219 L 12.894531 16.558594 L 12.019531 16.386719 L 11.535156 16.558594 L 11.058594 16.714844 L 10.828125 16.996094 L 10.609375 17.285156 L 10.464844 18.160156 C 10.390625 18.632812 10.246094 19.316406 10.160156 19.65625 L 9.980469 20.273438 L 9.566406 20.796875 C 9.335938 21.089844 9.042969 21.378906 8.910156 21.453125 L 8.65625 21.585938 L 3.890625 21.5625 L 3.40625 21.027344 L 2.917969 20.492188 L 2.847656 20.203125 L 2.773438 19.910156 L 2.859375 18.441406 L 2.933594 16.96875 L 3.1875 15.9375 C 3.683594 13.824219 4.511719 11.855469 5.519531 10.335938 C 6.964844 8.1875 7.234375 7.84375 8.519531 6.617188 L 9.308594 5.863281 L 9.457031 5.851562 C 9.527344 5.851562 9.675781 5.753906 9.761719 5.621094 L 9.917969 5.402344 L 10.199219 5.316406 L 10.464844 5.234375 L 10.464844 5.015625 L 11.011719 4.769531 C 11.304688 4.636719 11.789062 4.371094 12.09375 4.164062 C 12.398438 3.957031 12.6875 3.789062 12.75 3.789062 C 12.820312 3.789062 12.90625 3.703125 12.945312 3.59375 L 13.015625 3.398438 L 13.199219 3.472656 L 13.394531 3.542969 L 13.660156 3.386719 C 13.804688 3.3125 14.023438 3.167969 14.132812 3.070312 L 14.339844 2.898438 L 14.582031 2.972656 L 14.828125 3.035156 L 14.960938 2.875 L 15.09375 2.71875 L 15.484375 2.644531 C 15.703125 2.597656 16.003906 2.558594 16.175781 2.558594 L 16.480469 2.546875 L 16.5625 2.414062 L 16.648438 2.269531 L 17.136719 2.269531 L 17.609375 2.257812 L 17.792969 2.097656 L 17.984375 1.953125 L 18.507812 2 L 19.03125 2.050781 L 19.734375 1.902344 L 20.429688 1.769531 L 20.488281 1.832031 C 20.609375 1.941406 21.082031 1.976562 22.226562 1.964844 L 23.367188 1.953125 L 23.5625 2.121094 L 23.769531 2.304688 L 24.195312 2.304688 C 24.425781 2.292969 24.71875 2.339844 24.828125 2.390625 C 24.949219 2.4375 25.191406 2.488281 25.371094 2.488281 L 25.714844 2.511719 L 25.882812 2.667969 L 26.054688 2.839844 L 26.273438 2.777344 L 26.492188 2.71875 L 26.636719 2.886719 L 26.769531 3.058594 L 27.195312 3.058594 L 28.3125 3.605469 C 28.921875 3.910156 29.503906 4.152344 29.601562 4.152344 C 29.6875 4.152344 29.796875 4.199219 29.84375 4.261719 C 29.878906 4.332031 30.304688 4.636719 30.792969 4.953125 C 31.265625 5.269531 31.800781 5.660156 31.96875 5.804688 C 32.140625 5.949219 32.601562 6.375 33.003906 6.726562 C 35.945312 9.363281 37.875 13.007812 38.59375 17.296875 L 38.664062 17.746094 L 38.386719 17.992188 C 38.058594 18.304688 37.898438 18.304688 37.65625 18.039062 L 37.460938 17.820312 L 37.316406 17.089844 C 36.867188 14.734375 35.980469 12.523438 34.667969 10.46875 L 34.242188 9.800781 L 32.554688 8.125 C 31.628906 7.214844 30.816406 6.460938 30.753906 6.460938 C 30.695312 6.460938 30.574219 6.386719 30.488281 6.3125 C 30.195312 6.023438 29.347656 5.488281 29.199219 5.488281 L 29.054688 5.488281 L 29.054688 5.246094 L 28.570312 5.246094 L 28.570312 5.148438 C 28.570312 5.050781 28.046875 4.808594 27.558594 4.6875 L 27.207031 4.601562 L 27.148438 4.441406 L 27.085938 4.273438 L 26.515625 4.273438 L 26.441406 4.152344 L 26.371094 4.03125 L 25.785156 4.03125 L 25.714844 3.910156 L 25.640625 3.789062 L 24.949219 3.789062 L 24.292969 3.445312 L 23.878906 3.507812 L 23.464844 3.582031 L 23.320312 3.445312 L 23.160156 3.324219 L 21.339844 3.300781 C 20.332031 3.300781 19.261719 3.277344 18.933594 3.253906 L 18.363281 3.214844 L 18.230469 3.386719 L 18.09375 3.542969 L 16.890625 3.542969 L 16.601562 3.738281 L 16.308594 3.933594 L 16.1875 3.847656 L 16.066406 3.773438 L 15.773438 3.96875 L 15.484375 4.152344 L 15.410156 4.066406 L 15.324219 3.992188 L 14.511719 4.382812 C 13.707031 4.769531 13.476562 4.878906 13.054688 5.113281 C 12.929688 5.171875 12.640625 5.316406 12.410156 5.425781 C 12.179688 5.535156 11.824219 5.730469 11.617188 5.851562 C 11.425781 5.988281 11.167969 6.132812 11.074219 6.167969 C 10.78125 6.300781 9.601562 7.3125 9.03125 7.90625 C 7.839844 9.15625 7.574219 9.484375 6.832031 10.566406 L 6.066406 11.695312 L 5.542969 12.816406 C 4.886719 14.199219 4.570312 15.160156 4.269531 16.703125 L 4.023438 17.90625 L 4.023438 19.921875 L 4.402344 20.238281 L 4.777344 20.554688 L 7.609375 20.554688 L 8.121094 20.324219 L 8.628906 20.09375 L 8.824219 19.703125 L 9.019531 19.328125 L 9.25 18.125 L 9.480469 16.933594 L 9.796875 16.324219 L 10.113281 15.71875 L 10.621094 15.523438 C 10.914062 15.414062 11.207031 15.328125 11.277344 15.328125 L 11.414062 15.328125 L 11.484375 15.148438 L 11.546875 14.964844 L 11.945312 15.039062 C 12.957031 15.21875 13.832031 15.5625 14.132812 15.902344 C 14.253906 16.023438 14.449219 16.375 14.582031 16.667969 L 14.839844 17.214844 L 14.839844 18.34375 L 14.582031 19.789062 C 14.449219 20.578125 14.253906 21.660156 14.171875 22.195312 C 14.074219 22.730469 13.804688 24.246094 13.574219 25.574219 C 13.332031 26.898438 13.136719 28.160156 13.136719 28.367188 L 13.136719 28.753906 L 13.355469 29.179688 L 13.585938 29.605469 L 14.050781 29.824219 L 14.511719 30.054688 L 14.910156 29.984375 L 15.300781 29.898438 L 15.726562 29.4375 L 16.152344 28.960938 L 16.222656 28.621094 C 16.285156 28.292969 17.523438 21.34375 18.375 16.542969 C 18.570312 15.4375 18.957031 13.191406 19.261719 11.550781 L 19.796875 8.550781 L 20.074219 8.050781 L 20.34375 7.554688 L 20.816406 7.25 L 21.277344 6.945312 L 21.679688 6.945312 L 21.898438 6.75 L 22.117188 6.558594 L 22.785156 6.558594 L 22.832031 6.691406 L 22.882812 6.824219 L 23.453125 6.824219 L 24.023438 7.226562 L 24.582031 7.613281 L 24.875 8.1875 L 25.167969 8.757812 L 25.167969 10.042969 L 24.8125 12.023438 L 24.449219 14.003906 L 24.304688 14.1875 L 24.171875 14.359375 L 23.636719 14.359375 L 23.34375 14.066406 L 23.34375 13.691406 C 23.34375 13.472656 23.476562 12.570312 23.648438 11.671875 L 23.953125 10.042969 L 23.953125 8.878906 L 23.5625 8.511719 C 23.34375 8.308594 23.027344 8.089844 22.859375 8.027344 L 22.566406 7.90625 L 22.105469 7.980469 L 21.65625 8.0625 L 21.277344 8.476562 C 21.082031 8.707031 20.914062 8.9375 20.914062 8.988281 C 20.914062 9.035156 20.695312 10.273438 20.429688 11.746094 C 20.171875 13.214844 19.382812 17.699219 18.679688 21.707031 L 17.390625 29 L 17.074219 29.644531 L 16.746094 30.273438 L 16.273438 30.664062 L 15.785156 31.039062 L 15.53125 31.078125 C 14.535156 31.199219 14.242188 31.210938 13.890625 31.160156 Z M 13.890625 31.160156 " fill-opacity="1" fill-rule="nonzero"/></g><g clip-path="url(#328dd4529a)"><path fill="#0d6efe" d="M 18.472656 36.625 C 18.183594 36.578125 17.546875 36.488281 17.039062 36.417969 L 16.125 36.292969 L 15.78125 36.117188 L 15.433594 35.945312 L 15.15625 35.945312 C 14.855469 35.945312 14.417969 35.75 14.300781 35.566406 L 14.21875 35.460938 L 13.632812 35.460938 L 13.421875 35.265625 C 13.308594 35.160156 13.136719 35.070312 13.042969 35.046875 C 12.949219 35.023438 12.847656 34.953125 12.835938 34.898438 L 12.789062 34.792969 L 12.671875 34.863281 L 12.546875 34.941406 L 12.382812 34.734375 C 12.304688 34.609375 12.234375 34.550781 12.234375 34.597656 L 12.234375 34.6875 L 11.980469 34.550781 C 11.828125 34.46875 11.320312 34.160156 10.847656 33.835938 L 9.980469 33.257812 L 9.367188 32.671875 C 9.035156 32.347656 8.6875 32.046875 8.59375 31.992188 C 8.375 31.875 6.65625 29.8125 6.113281 29.027344 C 5.878906 28.683594 5.417969 27.863281 5.09375 27.230469 L 4.507812 26.066406 L 4.207031 25.121094 L 3.90625 24.1875 L 3.941406 23.945312 L 3.976562 23.691406 L 4.160156 23.574219 L 4.34375 23.460938 L 4.644531 23.539062 L 4.945312 23.609375 L 5.234375 24.566406 L 5.523438 25.511719 L 5.972656 26.433594 C 7.09375 28.707031 9.253906 31.332031 10.824219 32.335938 C 11.089844 32.511719 11.308594 32.695312 11.308594 32.742188 L 11.308594 32.832031 L 11.527344 32.832031 C 11.65625 32.832031 11.785156 32.878906 11.816406 32.9375 C 11.851562 32.984375 12.429688 33.304688 13.101562 33.640625 L 14.3125 34.25 L 14.3125 34.457031 L 14.417969 34.402344 L 14.519531 34.332031 L 14.902344 34.457031 C 15.121094 34.539062 15.351562 34.65625 15.421875 34.746094 L 15.539062 34.894531 L 16.347656 35.070312 C 16.785156 35.160156 17.453125 35.289062 17.847656 35.359375 L 18.539062 35.484375 L 21.914062 35.484375 L 21.984375 35.300781 L 22.050781 35.117188 L 22.203125 35.230469 L 22.339844 35.359375 L 23.09375 35.253906 C 24.121094 35.117188 24.664062 34.964844 25.007812 34.746094 L 25.296875 34.550781 L 25.414062 34.621094 L 25.527344 34.699219 L 25.804688 34.515625 C 25.957031 34.414062 26.359375 34.226562 26.695312 34.101562 C 27.03125 33.972656 27.410156 33.824219 27.539062 33.765625 C 27.667969 33.707031 27.945312 33.59375 28.152344 33.523438 L 28.53125 33.375 L 28.648438 33.167969 L 28.761719 32.949219 L 29.226562 32.949219 L 29.285156 32.773438 L 29.351562 32.613281 L 29.859375 32.371094 L 30.367188 32.117188 L 31.269531 31.242188 C 31.765625 30.746094 32.460938 30.019531 32.804688 29.617188 L 33.429688 28.878906 L 33.984375 27.945312 C 34.285156 27.425781 34.710938 26.640625 34.933594 26.191406 L 35.324219 25.375 L 35.660156 24.230469 C 35.84375 23.597656 36.039062 22.835938 36.085938 22.523438 L 36.167969 21.949219 L 35.796875 21.625 L 35.429688 21.316406 L 35.023438 21.234375 L 34.632812 21.164062 L 32.839844 21.210938 L 31.050781 21.269531 L 30.703125 20.855469 L 30.367188 20.4375 L 30.265625 20.058594 L 30.148438 19.675781 L 30.335938 18.710938 L 30.507812 17.742188 L 30.4375 17.453125 L 30.367188 17.175781 L 30.070312 16.816406 L 29.769531 16.460938 L 29.261719 16.460938 L 29.144531 16.34375 L 29.039062 16.242188 L 28.519531 16.390625 L 28 16.542969 L 27.515625 17.441406 L 27.03125 20.128906 L 26.558594 22.8125 L 26.335938 23.238281 L 26.117188 23.667969 L 25.714844 24.058594 L 25.296875 24.449219 L 24.699219 24.578125 L 24.097656 24.714844 L 23.449219 24.601562 L 22.804688 24.484375 L 22.261719 23.945312 L 21.71875 23.402344 L 21.519531 22.746094 L 21.335938 22.074219 L 21.761719 19.644531 C 22.214844 17.09375 22.273438 16.886719 22.617188 16.703125 L 22.828125 16.585938 L 23.082031 16.816406 L 23.324219 17.046875 L 23.324219 17.210938 C 23.324219 17.300781 23.136719 18.445312 22.90625 19.757812 L 22.492188 22.132812 L 22.699219 22.59375 L 22.90625 23.066406 L 23.265625 23.273438 L 23.613281 23.492188 L 24.476562 23.492188 L 24.929688 23.089844 L 25.378906 22.675781 L 25.507812 22.132812 C 25.574219 21.832031 25.816406 20.554688 26.039062 19.285156 L 26.453125 16.980469 L 26.742188 16.378906 L 27.03125 15.792969 L 27.285156 15.628906 C 27.585938 15.433594 28.648438 15.078125 28.925781 15.078125 C 29.027344 15.078125 29.410156 15.15625 29.769531 15.261719 L 30.425781 15.445312 L 30.910156 15.953125 L 31.386719 16.449219 L 31.523438 17.09375 L 31.664062 17.742188 L 31.5 18.710938 L 31.328125 19.664062 L 31.511719 19.964844 L 31.699219 20.265625 L 33.660156 20.277344 C 34.734375 20.277344 35.742188 20.300781 35.890625 20.335938 L 36.15625 20.378906 L 36.550781 20.679688 L 36.941406 20.980469 L 37.136719 21.5 L 37.335938 22.019531 L 37.207031 22.882812 L 37.070312 23.746094 L 36.640625 25.015625 L 36.226562 26.285156 L 35.71875 27.277344 L 35.199219 28.277344 L 34.34375 29.488281 L 33.488281 30.710938 L 32.332031 31.839844 L 31.167969 32.984375 L 30.183594 33.707031 L 29.191406 34.433594 L 29.027344 34.367188 L 28.867188 34.308594 L 28.796875 34.492188 L 28.730469 34.675781 L 28.625 34.609375 L 28.519531 34.550781 L 28.519531 34.746094 L 28.105469 34.941406 L 27.699219 35.136719 L 27.574219 35.070312 L 27.445312 34.988281 L 27.285156 35.195312 C 27.203125 35.324219 27.136719 35.378906 27.136719 35.347656 C 27.136719 35.300781 26.996094 35.335938 26.835938 35.425781 L 26.535156 35.578125 L 26.371094 35.519531 L 26.210938 35.460938 L 26.140625 35.65625 L 26.058594 35.84375 L 25.792969 35.785156 L 25.527344 35.714844 L 25.414062 35.910156 C 25.34375 36.027344 25.285156 36.085938 25.285156 36.027344 L 25.285156 35.945312 L 24.996094 36.128906 L 24.699219 36.324219 L 24.628906 36.257812 L 24.558594 36.1875 L 24.363281 36.292969 C 24.257812 36.347656 23.738281 36.453125 23.195312 36.523438 L 22.226562 36.648438 L 18.992188 36.695312 Z M 18.472656 36.625 " fill-opacity="1" fill-rule="nonzero"/></g><g clip-path="url(#c2159d48a8)"><path fill="#0d6efe" d="M 13.875 30.332031 L 13.480469 30.285156 L 12.859375 29.640625 L 12.234375 28.992188 L 12.117188 28.578125 C 11.933594 27.921875 11.980469 27.4375 12.40625 25.015625 C 12.636719 23.769531 13.019531 21.613281 13.261719 20.21875 L 13.710938 17.707031 L 13.597656 17.335938 L 13.480469 16.980469 L 12.925781 16.472656 L 12.511719 16.390625 L 12.09375 16.3125 L 11.632812 16.472656 L 11.183594 16.621094 L 10.964844 16.886719 L 10.753906 17.164062 L 10.617188 17.996094 C 10.546875 18.445312 10.410156 19.089844 10.328125 19.414062 L 10.15625 20 L 9.761719 20.496094 C 9.542969 20.773438 9.265625 21.050781 9.136719 21.117188 L 8.894531 21.246094 L 6.632812 21.234375 L 4.367188 21.222656 L 3.445312 20.207031 L 3.375 19.929688 L 3.304688 19.65625 L 3.386719 18.257812 L 3.453125 16.863281 L 3.699219 15.882812 C 4.171875 13.878906 4.957031 12.011719 5.914062 10.570312 C 7.289062 8.527344 7.542969 8.207031 8.769531 7.042969 L 9.519531 6.328125 L 9.65625 6.316406 C 9.726562 6.316406 9.867188 6.222656 9.945312 6.097656 L 10.097656 5.886719 L 10.363281 5.808594 L 10.617188 5.726562 L 10.617188 5.519531 L 11.136719 5.289062 C 11.414062 5.160156 11.875 4.90625 12.164062 4.710938 C 12.453125 4.515625 12.730469 4.355469 12.789062 4.355469 C 12.859375 4.355469 12.9375 4.273438 12.972656 4.171875 L 13.042969 3.984375 L 13.214844 4.054688 L 13.402344 4.125 L 13.65625 3.972656 C 13.792969 3.90625 14 3.765625 14.105469 3.675781 L 14.300781 3.511719 L 14.53125 3.582031 L 14.761719 3.640625 L 14.890625 3.488281 L 15.019531 3.339844 L 15.386719 3.269531 C 15.59375 3.226562 15.882812 3.191406 16.046875 3.191406 L 16.335938 3.179688 L 16.414062 3.050781 L 16.496094 2.914062 L 16.957031 2.914062 L 17.410156 2.902344 L 17.582031 2.753906 L 17.765625 2.613281 L 18.261719 2.660156 L 18.761719 2.707031 L 19.429688 2.566406 L 20.089844 2.441406 L 20.144531 2.5 C 20.261719 2.601562 20.710938 2.636719 21.796875 2.625 L 22.882812 2.613281 L 23.070312 2.773438 L 23.265625 2.949219 L 23.667969 2.949219 C 23.890625 2.9375 24.167969 2.984375 24.269531 3.027344 C 24.386719 3.074219 24.617188 3.121094 24.789062 3.121094 L 25.113281 3.144531 L 25.273438 3.292969 L 25.4375 3.457031 L 25.851562 3.339844 L 25.992188 3.5 L 26.117188 3.664062 L 26.523438 3.664062 L 27.585938 4.183594 C 28.164062 4.46875 28.71875 4.699219 28.808594 4.699219 C 28.890625 4.699219 28.996094 4.746094 29.039062 4.804688 C 29.074219 4.875 29.480469 5.160156 29.941406 5.460938 C 30.390625 5.761719 30.902344 6.128906 31.0625 6.269531 C 31.222656 6.40625 31.664062 6.8125 32.042969 7.144531 C 34.839844 9.648438 36.675781 13.105469 37.359375 17.175781 L 37.425781 17.601562 L 37.160156 17.832031 C 36.847656 18.132812 36.699219 18.132812 36.46875 17.878906 L 36.285156 17.671875 L 36.144531 16.980469 C 35.71875 14.742188 34.875 12.644531 33.625 10.695312 L 33.222656 10.0625 L 31.617188 8.472656 C 30.738281 7.605469 29.964844 6.890625 29.90625 6.890625 C 29.847656 6.890625 29.734375 6.820312 29.652344 6.753906 C 29.375 6.476562 28.566406 5.96875 28.429688 5.96875 L 28.289062 5.96875 L 28.289062 5.738281 L 27.828125 5.738281 L 27.828125 5.644531 C 27.828125 5.554688 27.332031 5.324219 26.867188 5.207031 L 26.535156 5.128906 L 26.476562 4.976562 L 26.417969 4.816406 L 25.875 4.816406 L 25.804688 4.699219 L 25.738281 4.585938 L 25.183594 4.585938 L 25.113281 4.46875 L 25.042969 4.355469 L 24.386719 4.355469 L 24.074219 4.191406 L 23.761719 4.03125 L 23.367188 4.089844 L 22.976562 4.160156 L 22.835938 4.03125 L 22.6875 3.917969 L 20.953125 3.894531 C 19.996094 3.894531 18.980469 3.871094 18.667969 3.847656 L 18.125 3.8125 L 17.996094 3.972656 L 17.871094 4.125 L 16.726562 4.125 L 16.171875 4.492188 L 16.058594 4.414062 L 15.941406 4.34375 L 15.664062 4.527344 L 15.386719 4.699219 L 15.316406 4.621094 L 15.238281 4.550781 L 14.464844 4.917969 C 13.699219 5.289062 13.480469 5.390625 13.078125 5.613281 C 12.960938 5.667969 12.683594 5.808594 12.464844 5.910156 C 12.246094 6.015625 11.910156 6.199219 11.714844 6.316406 C 11.527344 6.441406 11.285156 6.578125 11.195312 6.613281 C 10.917969 6.742188 9.796875 7.699219 9.253906 8.261719 C 8.121094 9.449219 7.867188 9.761719 7.164062 10.789062 L 6.433594 11.859375 L 5.9375 12.921875 C 5.316406 14.234375 5.015625 15.144531 4.726562 16.609375 L 4.496094 17.753906 L 4.496094 19.664062 L 4.851562 19.964844 L 5.210938 20.265625 L 7.902344 20.265625 L 8.871094 19.828125 L 9.058594 19.457031 L 9.242188 19.101562 L 9.460938 17.960938 L 9.679688 16.828125 L 9.980469 16.253906 L 10.28125 15.675781 L 10.765625 15.492188 C 11.042969 15.386719 11.320312 15.308594 11.390625 15.308594 L 11.519531 15.308594 L 11.585938 15.136719 L 11.644531 14.960938 L 12.027344 15.03125 C 12.984375 15.203125 13.816406 15.527344 14.105469 15.851562 C 14.21875 15.964844 14.40625 16.300781 14.53125 16.574219 L 14.773438 17.09375 L 14.773438 18.167969 L 14.53125 19.539062 C 14.40625 20.289062 14.21875 21.316406 14.140625 21.820312 C 14.046875 22.328125 13.792969 23.769531 13.574219 25.027344 C 13.34375 26.285156 13.15625 27.484375 13.15625 27.679688 L 13.15625 28.046875 L 13.367188 28.453125 L 13.585938 28.855469 L 14.023438 29.0625 L 14.464844 29.28125 L 14.84375 29.210938 L 15.214844 29.132812 L 15.617188 28.695312 L 16.023438 28.242188 L 16.09375 27.921875 C 16.148438 27.609375 17.328125 21.015625 18.136719 16.460938 C 18.320312 15.410156 18.691406 13.277344 18.980469 11.722656 L 19.488281 8.875 L 19.753906 8.402344 L 20.007812 7.929688 L 20.457031 7.640625 L 20.898438 7.351562 L 21.277344 7.351562 L 21.484375 7.167969 L 21.695312 6.984375 L 22.328125 6.984375 L 22.375 7.109375 L 22.421875 7.238281 L 22.964844 7.238281 L 23.507812 7.617188 L 24.039062 7.988281 L 24.316406 8.527344 L 24.59375 9.070312 L 24.59375 10.292969 L 24.257812 12.171875 L 23.910156 14.050781 L 23.773438 14.222656 L 23.644531 14.386719 L 23.136719 14.386719 L 23 14.246094 L 22.859375 14.109375 L 22.859375 13.75 C 22.859375 13.542969 22.988281 12.691406 23.148438 11.835938 L 23.4375 10.292969 L 23.4375 9.1875 L 23.070312 8.839844 C 22.859375 8.644531 22.558594 8.4375 22.398438 8.378906 L 22.121094 8.261719 L 21.683594 8.332031 L 21.253906 8.414062 L 20.898438 8.804688 C 20.710938 9.023438 20.550781 9.242188 20.550781 9.289062 C 20.550781 9.335938 20.34375 10.511719 20.089844 11.90625 C 19.847656 13.300781 19.09375 17.554688 18.425781 21.359375 L 17.199219 28.277344 L 16.902344 28.890625 L 16.589844 29.488281 L 16.136719 29.859375 L 15.675781 30.214844 L 15.433594 30.25 C 14.484375 30.367188 14.210938 30.375 13.875 30.332031 Z M 13.875 30.332031 " fill-opacity="1" fill-rule="nonzero"/></g><g fill="#b1d0fd" fill-opacity="1"><g transform="translate(39.559425, 27.281247)"><g><path d="M 4 -5.40625 L 9.34375 -5.40625 L 6.6875 -12.171875 Z M 13.125 0 L 11.484375 0 L 9.90625 -4 L 3.4375 -4 L 1.859375 0 L 0.21875 0 L 6.6875 -15.71875 Z M 13.125 0 "/></g></g></g><g fill="#b1d0fd" fill-opacity="1"><g transform="translate(52.894111, 27.281247)"><g><path d="M 10.515625 -6.09375 L 8.859375 -6.09375 C 8.609375 -6.695312 8.207031 -7.1875 7.65625 -7.5625 C 7.101562 -7.9375 6.546875 -8.125 5.984375 -8.125 C 5.421875 -8.125 4.941406 -8.039062 4.546875 -7.875 C 4.140625 -7.6875 3.789062 -7.441406 3.5 -7.140625 C 2.851562 -6.460938 2.53125 -5.664062 2.53125 -4.75 C 2.53125 -3.832031 2.851562 -3.039062 3.5 -2.375 C 4.132812 -1.695312 4.914062 -1.359375 5.84375 -1.359375 C 6.445312 -1.359375 7.007812 -1.519531 7.53125 -1.84375 C 8.03125 -2.15625 8.425781 -2.578125 8.71875 -3.109375 L 10.421875 -3.109375 C 9.890625 -1.585938 8.859375 -0.566406 7.328125 -0.046875 C 6.859375 0.128906 6.316406 0.21875 5.703125 0.21875 C 5.097656 0.21875 4.503906 0.0820312 3.921875 -0.1875 C 3.328125 -0.445312 2.8125 -0.8125 2.375 -1.28125 C 1.4375 -2.257812 0.96875 -3.414062 0.96875 -4.75 C 0.96875 -6.113281 1.4375 -7.273438 2.375 -8.234375 C 3.332031 -9.210938 4.488281 -9.703125 5.84375 -9.703125 C 6.9375 -9.703125 7.921875 -9.363281 8.796875 -8.6875 C 9.640625 -8.039062 10.210938 -7.175781 10.515625 -6.09375 Z M 10.515625 -6.09375 "/></g></g></g><g fill="#b1d0fd" fill-opacity="1"><g transform="translate(64.154033, 27.281247)"><g><path d="M 9.1875 -4.75 C 9.1875 -5.675781 8.867188 -6.484375 8.234375 -7.171875 C 7.585938 -7.867188 6.789062 -8.21875 5.84375 -8.21875 C 4.882812 -8.21875 4.085938 -7.867188 3.453125 -7.171875 C 2.804688 -6.484375 2.484375 -5.675781 2.484375 -4.75 C 2.484375 -3.832031 2.804688 -3.023438 3.453125 -2.328125 C 4.085938 -1.640625 4.882812 -1.296875 5.84375 -1.296875 C 6.789062 -1.296875 7.585938 -1.640625 8.234375 -2.328125 C 8.867188 -3.023438 9.1875 -3.832031 9.1875 -4.75 Z M 10.703125 0 L 9.1875 0 L 9.1875 -1.625 C 9.101562 -1.507812 9.019531 -1.398438 8.9375 -1.296875 C 8.019531 -0.285156 6.90625 0.21875 5.59375 0.21875 C 4.289062 0.21875 3.191406 -0.285156 2.296875 -1.296875 C 1.410156 -2.273438 0.96875 -3.425781 0.96875 -4.75 C 0.96875 -6.082031 1.410156 -7.238281 2.296875 -8.21875 C 3.191406 -9.226562 4.289062 -9.734375 5.59375 -9.734375 C 6.90625 -9.734375 8.019531 -9.226562 8.9375 -8.21875 C 9.019531 -8.113281 9.101562 -8.003906 9.1875 -7.890625 L 9.1875 -9.515625 L 10.703125 -9.515625 Z M 10.703125 0 "/></g></g></g><g fill="#b1d0fd" fill-opacity="1"><g transform="translate(76.472951, 27.281247)"><g><path d="M 9.1875 -4.75 C 9.1875 -5.675781 8.867188 -6.484375 8.234375 -7.171875 C 7.585938 -7.867188 6.789062 -8.21875 5.84375 -8.21875 C 4.882812 -8.21875 4.085938 -7.867188 3.453125 -7.171875 C 2.804688 -6.484375 2.484375 -5.675781 2.484375 -4.75 C 2.484375 -3.832031 2.804688 -3.023438 3.453125 -2.328125 C 4.085938 -1.640625 4.882812 -1.296875 5.84375 -1.296875 C 6.789062 -1.296875 7.585938 -1.640625 8.234375 -2.328125 C 8.867188 -3.023438 9.1875 -3.832031 9.1875 -4.75 Z M 10.703125 0 L 9.1875 0 L 9.1875 -1.625 C 9.101562 -1.507812 9.019531 -1.398438 8.9375 -1.296875 C 8.019531 -0.285156 6.90625 0.21875 5.59375 0.21875 C 4.289062 0.21875 3.191406 -0.285156 2.296875 -1.296875 C 1.410156 -2.273438 0.96875 -3.425781 0.96875 -4.75 C 0.96875 -6.082031 1.410156 -7.238281 2.296875 -8.21875 C 3.191406 -9.226562 4.289062 -9.734375 5.59375 -9.734375 C 6.90625 -9.734375 8.019531 -9.226562 8.9375 -8.21875 C 9.019531 -8.113281 9.101562 -8.003906 9.1875 -7.890625 L 9.1875 -16.21875 L 10.703125 -16.21875 Z M 10.703125 0 "/></g></g></g><g fill="#b1d0fd" fill-opacity="1"><g transform="translate(88.791869, 27.281247)"><g><path d="M 3.15625 -12.796875 C 3.34375 -12.609375 3.4375 -12.382812 3.4375 -12.125 C 3.4375 -11.851562 3.34375 -11.625 3.15625 -11.4375 C 2.96875 -11.25 2.742188 -11.15625 2.484375 -11.15625 C 2.210938 -11.15625 1.984375 -11.25 1.796875 -11.4375 C 1.609375 -11.625 1.515625 -11.851562 1.515625 -12.125 C 1.515625 -12.382812 1.609375 -12.609375 1.796875 -12.796875 C 1.984375 -12.984375 2.210938 -13.078125 2.484375 -13.078125 C 2.742188 -13.078125 2.96875 -12.984375 3.15625 -12.796875 Z M 3.25 0 L 1.734375 0 L 1.734375 -9.515625 L 3.25 -9.515625 Z M 3.25 0 "/></g></g></g><g fill="#b1d0fd" fill-opacity="1"><g transform="translate(93.741048, 27.281247)"><g><path d="M 6.71875 -14.8125 L 5.421875 -14.8125 C 4.921875 -14.8125 4.59375 -14.695312 4.4375 -14.46875 C 4.269531 -14.238281 4.1875 -13.957031 4.1875 -13.625 L 4.1875 -9.515625 L 6.71875 -9.515625 L 6.71875 -8.109375 L 4.1875 -8.109375 L 4.1875 0 L 2.6875 0 L 2.6875 -8.109375 L 0.75 -8.109375 L 0.75 -9.515625 L 2.6875 -9.515625 L 2.6875 -13.1875 C 2.6875 -14.15625 2.914062 -14.90625 3.375 -15.4375 C 3.820312 -15.957031 4.578125 -16.21875 5.640625 -16.21875 L 6.71875 -16.21875 Z M 6.71875 -14.8125 "/></g></g></g><g fill="#b1d0fd" fill-opacity="1"><g transform="translate(101.110787, 27.281247)"><g><path d="M 2.828125 5.40625 L 1 5.40625 L 4.1875 -1.5625 L 0.21875 -9.515625 L 1.953125 -9.515625 L 5 -3.140625 L 7.71875 -9.515625 L 9.40625 -9.515625 Z M 2.828125 5.40625 "/></g></g></g><g fill="#0d6efe" fill-opacity="1"><g transform="translate(40.881661, 26.004378)"><g><path d="M 4 -5.40625 L 9.34375 -5.40625 L 6.6875 -12.171875 Z M 13.125 0 L 11.484375 0 L 9.90625 -4 L 3.4375 -4 L 1.859375 0 L 0.21875 0 L 6.6875 -15.71875 Z M 13.125 0 "/></g></g></g><g fill="#0d6efe" fill-opacity="1"><g transform="translate(54.216347, 26.004378)"><g><path d="M 10.515625 -6.09375 L 8.859375 -6.09375 C 8.609375 -6.695312 8.207031 -7.1875 7.65625 -7.5625 C 7.101562 -7.9375 6.546875 -8.125 5.984375 -8.125 C 5.421875 -8.125 4.941406 -8.039062 4.546875 -7.875 C 4.140625 -7.6875 3.789062 -7.441406 3.5 -7.140625 C 2.851562 -6.460938 2.53125 -5.664062 2.53125 -4.75 C 2.53125 -3.832031 2.851562 -3.039062 3.5 -2.375 C 4.132812 -1.695312 4.914062 -1.359375 5.84375 -1.359375 C 6.445312 -1.359375 7.007812 -1.519531 7.53125 -1.84375 C 8.03125 -2.15625 8.425781 -2.578125 8.71875 -3.109375 L 10.421875 -3.109375 C 9.890625 -1.585938 8.859375 -0.566406 7.328125 -0.046875 C 6.859375 0.128906 6.316406 0.21875 5.703125 0.21875 C 5.097656 0.21875 4.503906 0.0820312 3.921875 -0.1875 C 3.328125 -0.445312 2.8125 -0.8125 2.375 -1.28125 C 1.4375 -2.257812 0.96875 -3.414062 0.96875 -4.75 C 0.96875 -6.113281 1.4375 -7.273438 2.375 -8.234375 C 3.332031 -9.210938 4.488281 -9.703125 5.84375 -9.703125 C 6.9375 -9.703125 7.921875 -9.363281 8.796875 -8.6875 C 9.640625 -8.039062 10.210938 -7.175781 10.515625 -6.09375 Z M 10.515625 -6.09375 "/></g></g></g><g fill="#0d6efe" fill-opacity="1"><g transform="translate(65.476268, 26.004378)"><g><path d="M 9.1875 -4.75 C 9.1875 -5.675781 8.867188 -6.484375 8.234375 -7.171875 C 7.585938 -7.867188 6.789062 -8.21875 5.84375 -8.21875 C 4.882812 -8.21875 4.085938 -7.867188 3.453125 -7.171875 C 2.804688 -6.484375 2.484375 -5.675781 2.484375 -4.75 C 2.484375 -3.832031 2.804688 -3.023438 3.453125 -2.328125 C 4.085938 -1.640625 4.882812 -1.296875 5.84375 -1.296875 C 6.789062 -1.296875 7.585938 -1.640625 8.234375 -2.328125 C 8.867188 -3.023438 9.1875 -3.832031 9.1875 -4.75 Z M 10.703125 0 L 9.1875 0 L 9.1875 -1.625 C 9.101562 -1.507812 9.019531 -1.398438 8.9375 -1.296875 C 8.019531 -0.285156 6.90625 0.21875 5.59375 0.21875 C 4.289062 0.21875 3.191406 -0.285156 2.296875 -1.296875 C 1.410156 -2.273438 0.96875 -3.425781 0.96875 -4.75 C 0.96875 -6.082031 1.410156 -7.238281 2.296875 -8.21875 C 3.191406 -9.226562 4.289062 -9.734375 5.59375 -9.734375 C 6.90625 -9.734375 8.019531 -9.226562 8.9375 -8.21875 C 9.019531 -8.113281 9.101562 -8.003906 9.1875 -7.890625 L 9.1875 -9.515625 L 10.703125 -9.515625 Z M 10.703125 0 "/></g></g></g><g fill="#0d6efe" fill-opacity="1"><g transform="translate(77.795186, 26.004378)"><g><path d="M 9.1875 -4.75 C 9.1875 -5.675781 8.867188 -6.484375 8.234375 -7.171875 C 7.585938 -7.867188 6.789062 -8.21875 5.84375 -8.21875 C 4.882812 -8.21875 4.085938 -7.867188 3.453125 -7.171875 C 2.804688 -6.484375 2.484375 -5.675781 2.484375 -4.75 C 2.484375 -3.832031 2.804688 -3.023438 3.453125 -2.328125 C 4.085938 -1.640625 4.882812 -1.296875 5.84375 -1.296875 C 6.789062 -1.296875 7.585938 -1.640625 8.234375 -2.328125 C 8.867188 -3.023438 9.1875 -3.832031 9.1875 -4.75 Z M 10.703125 0 L 9.1875 0 L 9.1875 -1.625 C 9.101562 -1.507812 9.019531 -1.398438 8.9375 -1.296875 C 8.019531 -0.285156 6.90625 0.21875 5.59375 0.21875 C 4.289062 0.21875 3.191406 -0.285156 2.296875 -1.296875 C 1.410156 -2.273438 0.96875 -3.425781 0.96875 -4.75 C 0.96875 -6.082031 1.410156 -7.238281 2.296875 -8.21875 C 3.191406 -9.226562 4.289062 -9.734375 5.59375 -9.734375 C 6.90625 -9.734375 8.019531 -9.226562 8.9375 -8.21875 C 9.019531 -8.113281 9.101562 -8.003906 9.1875 -7.890625 L 9.1875 -16.21875 L 10.703125 -16.21875 Z M 10.703125 0 "/></g></g></g><g fill="#0d6efe" fill-opacity="1"><g transform="translate(90.114104, 26.004378)"><g><path d="M 3.15625 -12.796875 C 3.34375 -12.609375 3.4375 -12.382812 3.4375 -12.125 C 3.4375 -11.851562 3.34375 -11.625 3.15625 -11.4375 C 2.96875 -11.25 2.742188 -11.15625 2.484375 -11.15625 C 2.210938 -11.15625 1.984375 -11.25 1.796875 -11.4375 C 1.609375 -11.625 1.515625 -11.851562 1.515625 -12.125 C 1.515625 -12.382812 1.609375 -12.609375 1.796875 -12.796875 C 1.984375 -12.984375 2.210938 -13.078125 2.484375 -13.078125 C 2.742188 -13.078125 2.96875 -12.984375 3.15625 -12.796875 Z M 3.25 0 L 1.734375 0 L 1.734375 -9.515625 L 3.25 -9.515625 Z M 3.25 0 "/></g></g></g><g fill="#0d6efe" fill-opacity="1"><g transform="translate(95.063284, 26.004378)"><g><path d="M 6.71875 -14.8125 L 5.421875 -14.8125 C 4.921875 -14.8125 4.59375 -14.695312 4.4375 -14.46875 C 4.269531 -14.238281 4.1875 -13.957031 4.1875 -13.625 L 4.1875 -9.515625 L 6.71875 -9.515625 L 6.71875 -8.109375 L 4.1875 -8.109375 L 4.1875 0 L 2.6875 0 L 2.6875 -8.109375 L 0.75 -8.109375 L 0.75 -9.515625 L 2.6875 -9.515625 L 2.6875 -13.1875 C 2.6875 -14.15625 2.914062 -14.90625 3.375 -15.4375 C 3.820312 -15.957031 4.578125 -16.21875 5.640625 -16.21875 L 6.71875 -16.21875 Z M 6.71875 -14.8125 "/></g></g></g><g fill="#0d6efe" fill-opacity="1"><g transform="translate(102.433023, 26.004378)"><g><path d="M 2.828125 5.40625 L 1 5.40625 L 4.1875 -1.5625 L 0.21875 -9.515625 L 1.953125 -9.515625 L 5 -3.140625 L 7.71875 -9.515625 L 9.40625 -9.515625 Z M 2.828125 5.40625 "/></g></g></g></svg>