<svg xmlns="http://www.w3.org/2000/svg" xmlns:xlink="http://www.w3.org/1999/xlink" width="169" zoomAndPan="magnify" viewBox="0 0 126.75 41.25" height="55" preserveAspectRatio="xMidYMid meet" version="1.0"><defs><g/><clipPath id="45e89fc227"><path d="M 3 1.105469 L 39 1.105469 L 39 32 L 3 32 Z M 3 1.105469 " clip-rule="nonzero"/></clipPath><clipPath id="399774796c"><path d="M 4 14 L 37.953125 14 L 37.953125 37 L 4 37 Z M 4 14 " clip-rule="nonzero"/></clipPath><clipPath id="eb86543118"><path d="M 3 2 L 37.953125 2 L 37.953125 31 L 3 31 Z M 3 2 " clip-rule="nonzero"/></clipPath></defs><path fill="#b1d0fd" d="M 18.984375 37.578125 C 18.679688 37.53125 18.015625 37.433594 17.484375 37.359375 L 16.53125 37.226562 L 15.804688 36.867188 L 15.515625 36.867188 C 15.203125 36.867188 14.742188 36.660156 14.621094 36.46875 L 14.539062 36.359375 L 13.921875 36.359375 L 13.703125 36.152344 C 13.582031 36.042969 13.402344 35.949219 13.304688 35.921875 C 13.207031 35.898438 13.097656 35.828125 13.085938 35.765625 L 13.039062 35.65625 L 12.917969 35.730469 L 12.785156 35.816406 L 12.617188 35.597656 C 12.53125 35.464844 12.460938 35.402344 12.460938 35.453125 L 12.460938 35.550781 L 12.195312 35.402344 C 12.035156 35.320312 11.503906 34.992188 11.007812 34.65625 L 10.105469 34.050781 L 9.464844 33.433594 C 9.113281 33.097656 8.75 32.78125 8.652344 32.722656 C 8.425781 32.601562 6.625 30.4375 6.058594 29.617188 C 5.816406 29.253906 5.332031 28.398438 4.992188 27.734375 L 4.378906 26.511719 L 4.0625 25.523438 L 3.75 24.542969 L 3.785156 24.289062 L 3.820312 24.023438 L 4.015625 23.902344 L 4.207031 23.78125 L 4.523438 23.867188 L 4.835938 23.941406 L 5.136719 24.941406 L 5.441406 25.933594 L 5.910156 26.898438 C 7.082031 29.28125 9.34375 32.035156 10.984375 33.085938 C 11.261719 33.265625 11.492188 33.460938 11.492188 33.507812 L 11.492188 33.605469 L 11.722656 33.605469 C 11.855469 33.605469 11.988281 33.652344 12.023438 33.714844 C 12.0625 33.761719 12.664062 34.097656 13.367188 34.449219 L 14.632812 35.089844 L 14.632812 35.308594 L 14.742188 35.246094 L 14.851562 35.175781 L 15.25 35.308594 C 15.480469 35.390625 15.722656 35.511719 15.792969 35.609375 L 15.914062 35.765625 L 16.761719 35.949219 C 17.21875 36.042969 17.917969 36.175781 18.332031 36.25 L 19.054688 36.382812 L 22.582031 36.382812 L 22.65625 36.191406 L 22.726562 35.996094 L 22.882812 36.117188 L 23.03125 36.25 L 23.816406 36.140625 C 24.890625 35.996094 25.457031 35.839844 25.820312 35.609375 L 26.121094 35.402344 L 26.242188 35.476562 L 26.363281 35.5625 L 26.652344 35.367188 C 26.8125 35.257812 27.234375 35.066406 27.585938 34.933594 C 27.933594 34.800781 28.332031 34.644531 28.464844 34.582031 C 28.597656 34.523438 28.890625 34.402344 29.105469 34.328125 L 29.503906 34.171875 L 29.625 33.953125 L 29.746094 33.726562 L 30.230469 33.726562 L 30.289062 33.542969 L 30.363281 33.375 L 30.894531 33.121094 L 31.425781 32.855469 L 32.367188 31.9375 C 32.886719 31.417969 33.613281 30.65625 33.976562 30.234375 L 34.628906 29.460938 L 35.207031 28.480469 C 35.519531 27.9375 35.96875 27.117188 36.199219 26.644531 L 36.609375 25.789062 L 36.957031 24.59375 C 37.152344 23.929688 37.355469 23.128906 37.40625 22.804688 L 37.488281 22.199219 L 37.101562 21.863281 L 36.71875 21.535156 L 36.292969 21.453125 L 35.882812 21.378906 L 34.011719 21.425781 L 32.136719 21.488281 L 31.777344 21.050781 L 31.425781 20.617188 L 31.316406 20.21875 L 31.195312 19.820312 L 31.390625 18.804688 L 31.570312 17.789062 L 31.5 17.488281 L 31.425781 17.199219 L 31.113281 16.824219 L 30.796875 16.449219 L 30.265625 16.449219 L 30.035156 16.21875 L 29.492188 16.378906 L 28.949219 16.535156 L 28.695312 17.003906 L 28.441406 17.476562 L 27.933594 20.292969 L 27.4375 23.105469 L 27.210938 23.554688 L 26.980469 24 L 26.558594 24.410156 L 26.121094 24.820312 L 25.492188 24.953125 L 24.867188 25.097656 L 24.1875 24.980469 L 23.511719 24.859375 L 22.945312 24.289062 L 22.378906 23.722656 L 22.171875 23.035156 L 21.980469 22.332031 L 22.425781 19.785156 C 22.898438 17.113281 22.957031 16.898438 23.320312 16.703125 L 23.535156 16.582031 L 23.804688 16.824219 L 24.054688 17.066406 L 24.054688 17.234375 C 24.054688 17.332031 23.863281 18.527344 23.621094 19.90625 L 23.1875 22.394531 L 23.402344 22.875 L 23.621094 23.371094 L 23.996094 23.589844 L 24.359375 23.820312 L 25.265625 23.820312 L 25.734375 23.394531 L 26.207031 22.960938 L 26.339844 22.394531 C 26.414062 22.078125 26.664062 20.738281 26.894531 19.410156 L 27.332031 16.992188 L 27.632812 16.367188 L 27.933594 15.75 L 28.199219 15.582031 C 28.515625 15.375 29.625 15 29.914062 15 C 30.023438 15 30.421875 15.085938 30.796875 15.195312 L 31.484375 15.386719 L 31.992188 15.917969 L 32.488281 16.4375 L 32.777344 17.789062 L 32.609375 18.804688 L 32.429688 19.808594 L 32.621094 20.121094 L 32.816406 20.4375 L 34.867188 20.449219 C 35.992188 20.449219 37.042969 20.472656 37.199219 20.507812 L 37.476562 20.558594 L 37.890625 20.871094 L 38.300781 21.183594 L 38.503906 21.730469 L 38.710938 22.273438 L 38.578125 23.179688 L 38.433594 24.085938 L 37.984375 25.414062 L 37.550781 26.742188 L 37.019531 27.78125 L 36.476562 28.832031 L 35.582031 30.101562 L 34.6875 31.382812 L 33.480469 32.566406 L 32.257812 33.761719 L 31.230469 34.523438 L 30.195312 35.285156 L 30.023438 35.210938 L 29.855469 35.152344 L 29.78125 35.34375 L 29.710938 35.539062 L 29.601562 35.464844 L 29.492188 35.402344 L 29.492188 35.609375 L 29.058594 35.816406 L 28.636719 36.019531 L 28.503906 35.949219 L 28.371094 35.863281 L 28.199219 36.082031 C 28.117188 36.214844 28.042969 36.273438 28.042969 36.238281 C 28.042969 36.191406 27.898438 36.226562 27.730469 36.324219 L 27.414062 36.480469 L 27.246094 36.417969 L 27.078125 36.359375 L 27.003906 36.5625 L 26.917969 36.757812 L 26.640625 36.695312 L 26.363281 36.625 L 26.242188 36.828125 C 26.171875 36.949219 26.109375 37.011719 26.109375 36.949219 L 26.109375 36.867188 L 25.808594 37.058594 L 25.492188 37.265625 L 25.421875 37.191406 L 25.347656 37.121094 L 25.144531 37.226562 C 25.035156 37.289062 24.492188 37.398438 23.921875 37.46875 L 22.910156 37.601562 L 21.21875 37.628906 L 19.527344 37.652344 Z M 18.984375 37.578125 " fill-opacity="1" fill-rule="nonzero"/><g clip-path="url(#45e89fc227)"><path fill="#b1d0fd" d="M 14.175781 30.984375 L 13.765625 30.933594 L 12.460938 29.582031 L 12.339844 29.148438 C 12.144531 28.457031 12.195312 27.949219 12.640625 25.414062 C 12.882812 24.109375 13.28125 21.851562 13.535156 20.386719 L 14.003906 17.753906 L 13.886719 17.367188 L 13.765625 16.992188 L 13.472656 16.726562 L 13.183594 16.460938 L 12.75 16.378906 L 12.3125 16.292969 L 11.832031 16.460938 L 11.359375 16.617188 L 11.128906 16.898438 L 10.914062 17.1875 L 10.769531 18.058594 C 10.695312 18.527344 10.550781 19.203125 10.464844 19.542969 L 10.285156 20.160156 L 9.875 20.679688 C 9.644531 20.96875 9.355469 21.257812 9.222656 21.332031 L 8.96875 21.464844 L 6.601562 21.453125 L 4.234375 21.4375 L 3.265625 20.375 L 3.195312 20.085938 L 3.121094 19.796875 L 3.207031 18.335938 L 3.277344 16.871094 L 3.53125 15.847656 C 4.027344 13.742188 4.847656 11.785156 5.851562 10.277344 C 7.289062 8.136719 7.554688 7.800781 8.835938 6.582031 L 9.621094 5.832031 L 9.765625 5.820312 C 9.835938 5.820312 9.984375 5.722656 10.066406 5.589844 L 10.222656 5.371094 L 10.503906 5.289062 L 10.769531 5.203125 L 10.769531 4.984375 L 11.3125 4.742188 C 11.601562 4.609375 12.085938 4.34375 12.386719 4.140625 C 12.6875 3.933594 12.980469 3.765625 13.039062 3.765625 C 13.113281 3.765625 13.195312 3.679688 13.234375 3.570312 L 13.304688 3.378906 L 13.484375 3.453125 L 13.679688 3.523438 L 13.945312 3.367188 C 14.089844 3.292969 14.308594 3.148438 14.417969 3.054688 L 14.621094 2.882812 L 14.863281 2.957031 L 15.105469 3.015625 L 15.371094 2.703125 L 15.757812 2.628906 C 15.976562 2.582031 16.277344 2.546875 16.445312 2.546875 L 16.746094 2.535156 L 16.832031 2.402344 L 16.917969 2.253906 L 17.398438 2.253906 L 17.871094 2.242188 L 18.050781 2.085938 L 18.246094 1.941406 L 18.765625 1.988281 L 19.285156 2.039062 L 19.984375 1.894531 L 20.675781 1.761719 L 20.734375 1.820312 C 20.855469 1.929688 21.328125 1.964844 22.460938 1.953125 L 23.597656 1.941406 L 23.789062 2.109375 L 23.996094 2.292969 L 24.417969 2.292969 C 24.648438 2.28125 24.9375 2.328125 25.046875 2.375 C 25.167969 2.425781 25.410156 2.472656 25.589844 2.472656 L 25.929688 2.496094 L 26.097656 2.652344 L 26.265625 2.824219 L 26.484375 2.761719 L 26.703125 2.703125 L 26.847656 2.871094 L 26.980469 3.039062 L 27.402344 3.039062 L 28.515625 3.585938 C 29.117188 3.886719 29.699219 4.128906 29.792969 4.128906 C 29.878906 4.128906 29.988281 4.175781 30.035156 4.238281 C 30.074219 4.308594 30.496094 4.609375 30.980469 4.925781 C 31.449219 5.238281 31.980469 5.625 32.152344 5.769531 C 32.320312 5.914062 32.777344 6.339844 33.175781 6.6875 C 36.101562 9.308594 38.023438 12.933594 38.734375 17.199219 L 38.808594 17.644531 L 38.527344 17.886719 C 38.203125 18.203125 38.046875 18.203125 37.804688 17.9375 L 37.609375 17.71875 L 37.464844 16.992188 C 37.019531 14.648438 36.136719 12.453125 34.832031 10.410156 L 34.410156 9.746094 L 32.730469 8.078125 C 31.8125 7.171875 31.003906 6.421875 30.941406 6.421875 C 30.882812 6.421875 30.761719 6.351562 30.675781 6.277344 C 30.386719 5.988281 29.542969 5.457031 29.394531 5.457031 L 29.25 5.457031 L 29.25 5.214844 L 28.769531 5.214844 L 28.769531 5.117188 C 28.769531 5.023438 28.25 4.78125 27.765625 4.660156 L 27.414062 4.574219 L 27.355469 4.417969 L 27.292969 4.25 L 26.726562 4.25 L 26.652344 4.128906 L 26.582031 4.007812 L 26 4.007812 L 25.929688 3.886719 L 25.855469 3.765625 L 25.167969 3.765625 L 24.839844 3.597656 L 24.515625 3.425781 L 24.105469 3.488281 L 23.695312 3.558594 L 23.550781 3.425781 L 23.390625 3.304688 L 21.578125 3.28125 C 20.578125 3.28125 19.515625 3.257812 19.1875 3.234375 L 18.621094 3.199219 L 18.488281 3.367188 L 18.355469 3.523438 L 17.160156 3.523438 L 16.867188 3.71875 L 16.578125 3.910156 L 16.457031 3.824219 L 16.335938 3.753906 L 16.046875 3.945312 L 15.757812 4.128906 L 15.683594 4.042969 L 15.601562 3.972656 L 14.789062 4.359375 C 13.992188 4.742188 13.765625 4.851562 13.339844 5.082031 C 13.21875 5.144531 12.929688 5.289062 12.699219 5.394531 C 12.472656 5.503906 12.121094 5.699219 11.914062 5.820312 C 11.722656 5.953125 11.46875 6.097656 11.371094 6.132812 C 11.082031 6.265625 9.910156 7.269531 9.34375 7.859375 C 8.160156 9.105469 7.894531 9.429688 7.15625 10.507812 L 6.394531 11.628906 L 5.875 12.742188 C 5.222656 14.117188 4.910156 15.074219 4.605469 16.605469 L 4.367188 17.804688 L 4.367188 19.808594 L 4.738281 20.121094 L 5.113281 20.4375 L 7.929688 20.4375 L 8.945312 19.976562 L 9.136719 19.589844 L 9.332031 19.214844 L 9.558594 18.019531 L 9.789062 16.835938 L 10.105469 16.234375 L 10.417969 15.628906 L 10.925781 15.433594 C 11.214844 15.328125 11.503906 15.242188 11.578125 15.242188 L 11.710938 15.242188 L 11.78125 15.0625 L 11.84375 14.878906 L 12.242188 14.953125 C 13.246094 15.132812 14.113281 15.472656 14.417969 15.808594 C 14.539062 15.929688 14.730469 16.28125 14.863281 16.570312 L 15.117188 17.113281 L 15.117188 18.238281 L 14.863281 19.675781 C 14.730469 20.460938 14.539062 21.535156 14.453125 22.066406 C 14.355469 22.597656 14.089844 24.109375 13.859375 25.425781 C 13.617188 26.742188 13.425781 28 13.425781 28.203125 L 13.425781 28.589844 L 13.644531 29.015625 L 13.871094 29.4375 L 14.332031 29.652344 L 14.789062 29.882812 L 15.191406 29.8125 L 15.574219 29.726562 L 16 29.265625 L 16.421875 28.796875 L 16.496094 28.457031 C 16.554688 28.132812 17.785156 21.222656 18.632812 16.449219 C 18.824219 15.351562 19.210938 13.117188 19.515625 11.484375 L 20.046875 8.5 L 20.324219 8.003906 L 20.589844 7.511719 L 21.0625 7.207031 L 21.519531 6.90625 L 21.917969 6.90625 L 22.136719 6.714844 L 22.351562 6.519531 L 23.019531 6.519531 L 23.113281 6.785156 L 23.683594 6.785156 L 24.25 7.183594 L 24.804688 7.570312 L 25.09375 8.136719 L 25.386719 8.707031 L 25.386719 9.988281 L 25.035156 11.957031 L 24.671875 13.925781 L 24.527344 14.105469 L 24.394531 14.277344 L 23.863281 14.277344 L 23.71875 14.128906 L 23.574219 13.984375 L 23.574219 13.609375 C 23.574219 13.394531 23.707031 12.5 23.875 11.605469 L 24.175781 9.988281 L 24.175781 8.828125 L 23.789062 8.464844 C 23.574219 8.257812 23.257812 8.042969 23.089844 7.980469 L 22.800781 7.859375 L 22.339844 7.933594 L 21.894531 8.019531 L 21.519531 8.429688 C 21.328125 8.65625 21.15625 8.886719 21.15625 8.9375 C 21.15625 8.984375 20.941406 10.214844 20.675781 11.679688 C 20.421875 13.140625 19.636719 17.597656 18.933594 21.585938 L 17.652344 28.832031 L 17.339844 29.472656 L 17.011719 30.101562 L 16.542969 30.488281 L 16.058594 30.863281 L 15.804688 30.898438 C 14.816406 31.019531 14.523438 31.03125 14.175781 30.984375 Z M 14.175781 30.984375 " fill-opacity="1" fill-rule="nonzero"/></g><g clip-path="url(#399774796c)"><path fill="#0d6efe" d="M 18.730469 36.414062 C 18.441406 36.371094 17.808594 36.277344 17.304688 36.210938 L 16.398438 36.082031 L 16.054688 35.910156 L 15.707031 35.738281 L 15.433594 35.738281 C 15.132812 35.738281 14.699219 35.542969 14.582031 35.363281 L 14.503906 35.257812 L 13.917969 35.257812 L 13.710938 35.0625 C 13.59375 34.960938 13.421875 34.867188 13.332031 34.84375 C 13.238281 34.824219 13.136719 34.753906 13.125 34.695312 L 13.078125 34.59375 L 12.964844 34.660156 L 12.835938 34.742188 L 12.675781 34.535156 C 12.597656 34.410156 12.527344 34.351562 12.527344 34.398438 L 12.527344 34.488281 L 12.273438 34.351562 C 12.125 34.273438 11.621094 33.960938 11.148438 33.640625 L 10.289062 33.070312 L 9.679688 32.484375 C 9.34375 32.164062 9 31.863281 8.910156 31.808594 C 8.691406 31.691406 6.980469 29.640625 6.441406 28.863281 C 6.210938 28.519531 5.75 27.703125 5.429688 27.074219 L 4.84375 25.914062 L 4.542969 24.976562 L 4.246094 24.046875 L 4.28125 23.804688 L 4.316406 23.554688 L 4.5 23.4375 L 4.683594 23.324219 L 4.980469 23.40625 L 5.28125 23.472656 L 5.566406 24.425781 L 5.855469 25.363281 L 6.300781 26.28125 C 7.417969 28.539062 9.5625 31.152344 11.125 32.152344 C 11.390625 32.324219 11.609375 32.507812 11.609375 32.554688 L 11.609375 32.644531 L 11.828125 32.644531 C 11.953125 32.644531 12.078125 32.691406 12.113281 32.746094 C 12.148438 32.792969 12.722656 33.113281 13.386719 33.445312 L 14.59375 34.054688 L 14.59375 34.261719 L 14.699219 34.203125 L 14.800781 34.132812 L 15.179688 34.261719 C 15.398438 34.339844 15.628906 34.457031 15.695312 34.546875 L 15.8125 34.695312 L 16.617188 34.867188 C 17.050781 34.960938 17.71875 35.085938 18.109375 35.15625 L 18.796875 35.28125 L 22.152344 35.28125 L 22.21875 35.097656 L 22.289062 34.914062 L 22.4375 35.027344 L 22.578125 35.15625 L 23.324219 35.050781 C 24.34375 34.914062 24.882812 34.765625 25.230469 34.546875 L 25.515625 34.351562 L 25.632812 34.421875 L 25.746094 34.5 L 26.023438 34.316406 C 26.171875 34.214844 26.574219 34.03125 26.90625 33.90625 C 27.238281 33.78125 27.617188 33.628906 27.746094 33.574219 C 27.871094 33.515625 28.144531 33.402344 28.351562 33.332031 L 28.730469 33.183594 L 28.847656 32.976562 L 28.960938 32.757812 L 29.421875 32.757812 L 29.480469 32.585938 L 29.546875 32.425781 L 30.054688 32.1875 L 30.558594 31.933594 L 31.453125 31.0625 C 31.949219 30.570312 32.636719 29.847656 32.980469 29.445312 L 33.601562 28.710938 L 34.152344 27.785156 C 34.453125 27.269531 34.875 26.488281 35.09375 26.042969 L 35.484375 25.226562 L 35.820312 24.09375 C 36.003906 23.460938 36.199219 22.707031 36.242188 22.394531 L 36.324219 21.824219 L 35.957031 21.503906 L 35.589844 21.191406 L 35.1875 21.113281 L 34.796875 21.042969 L 33.015625 21.089844 L 31.234375 21.148438 L 30.890625 20.734375 L 30.558594 20.320312 L 30.453125 19.941406 L 30.339844 19.566406 L 30.523438 18.601562 L 30.695312 17.640625 L 30.628906 17.351562 L 30.558594 17.078125 L 30.257812 16.722656 L 29.960938 16.367188 L 29.457031 16.367188 L 29.238281 16.148438 L 28.71875 16.296875 L 28.203125 16.445312 L 27.960938 16.894531 L 27.722656 17.339844 L 27.238281 20.011719 L 26.769531 22.683594 L 26.550781 23.105469 L 26.332031 23.53125 L 25.929688 23.921875 L 25.515625 24.3125 L 24.917969 24.4375 L 24.320312 24.574219 L 23.679688 24.460938 L 23.035156 24.34375 L 21.957031 23.265625 L 21.761719 22.613281 L 21.578125 21.949219 L 22.003906 19.53125 C 22.449219 16.996094 22.507812 16.789062 22.851562 16.605469 L 23.058594 16.492188 L 23.3125 16.722656 L 23.550781 16.949219 L 23.550781 17.113281 C 23.550781 17.203125 23.367188 18.339844 23.140625 19.644531 L 22.726562 22.007812 L 22.933594 22.464844 L 23.140625 22.933594 L 23.496094 23.140625 L 23.839844 23.359375 L 24.699219 23.359375 L 25.148438 22.957031 L 25.597656 22.546875 L 25.722656 22.007812 C 25.792969 21.707031 26.035156 20.4375 26.25 19.175781 L 26.664062 16.882812 L 26.953125 16.285156 L 27.238281 15.703125 L 27.492188 15.542969 C 27.789062 15.347656 28.847656 14.992188 29.121094 14.992188 C 29.226562 14.992188 29.605469 15.070312 29.960938 15.175781 L 30.617188 15.359375 L 31.097656 15.863281 L 31.570312 16.355469 L 31.707031 16.996094 L 31.84375 17.640625 L 31.683594 18.601562 L 31.511719 19.554688 L 31.878906 20.148438 L 33.832031 20.160156 C 34.898438 20.160156 35.898438 20.183594 36.046875 20.21875 L 36.3125 20.265625 L 37.09375 20.859375 L 37.484375 21.890625 L 37.355469 22.75 L 37.21875 23.609375 L 36.792969 24.871094 L 36.382812 26.132812 L 35.875 27.117188 L 35.359375 28.117188 L 34.507812 29.320312 L 33.660156 30.535156 L 32.511719 31.660156 L 31.351562 32.792969 L 30.375 33.515625 L 29.386719 34.238281 L 29.226562 34.167969 L 29.066406 34.113281 L 28.925781 34.480469 L 28.824219 34.410156 L 28.71875 34.351562 L 28.71875 34.546875 L 28.308594 34.742188 L 27.90625 34.9375 L 27.777344 34.867188 L 27.652344 34.789062 L 27.492188 34.996094 C 27.410156 35.121094 27.34375 35.179688 27.34375 35.144531 C 27.34375 35.097656 27.203125 35.132812 27.042969 35.222656 L 26.746094 35.371094 L 26.585938 35.316406 L 26.421875 35.257812 L 26.355469 35.453125 L 26.273438 35.636719 L 26.011719 35.578125 L 25.746094 35.511719 L 25.632812 35.707031 C 25.5625 35.820312 25.503906 35.878906 25.503906 35.820312 L 25.503906 35.738281 L 25.21875 35.921875 L 24.917969 36.117188 L 24.78125 35.980469 L 24.585938 36.082031 C 24.484375 36.140625 23.964844 36.242188 23.425781 36.3125 L 22.460938 36.4375 L 20.851562 36.460938 L 19.246094 36.484375 Z M 18.730469 36.414062 " fill-opacity="1" fill-rule="nonzero"/></g><g clip-path="url(#eb86543118)"><path fill="#0d6efe" d="M 14.15625 30.15625 L 13.765625 30.109375 L 13.148438 29.46875 L 12.527344 28.828125 L 12.410156 28.414062 C 12.226562 27.761719 12.273438 27.28125 12.699219 24.871094 C 12.929688 23.632812 13.308594 21.492188 13.550781 20.101562 L 13.996094 17.605469 L 13.882812 17.238281 L 13.765625 16.882812 L 13.492188 16.628906 L 13.214844 16.378906 L 12.800781 16.296875 L 12.390625 16.21875 L 11.929688 16.378906 L 11.480469 16.527344 L 11.261719 16.789062 L 11.058594 17.066406 L 10.917969 17.890625 C 10.851562 18.339844 10.710938 18.980469 10.632812 19.300781 L 10.460938 19.886719 L 10.070312 20.378906 C 9.851562 20.652344 9.574219 20.929688 9.449219 20.996094 L 9.207031 21.125 L 4.707031 21.101562 L 3.785156 20.09375 L 3.71875 19.816406 L 3.648438 19.542969 L 3.730469 18.15625 L 3.796875 16.769531 L 4.039062 15.792969 C 4.511719 13.796875 5.292969 11.941406 6.246094 10.507812 C 7.613281 8.480469 7.863281 8.160156 9.082031 7 L 9.828125 6.289062 L 9.964844 6.277344 C 10.035156 6.277344 10.171875 6.1875 10.253906 6.0625 L 10.402344 5.855469 L 10.667969 5.773438 L 10.917969 5.695312 L 10.917969 5.488281 L 11.4375 5.257812 C 11.710938 5.132812 12.171875 4.878906 12.457031 4.683594 C 12.746094 4.492188 13.019531 4.328125 13.078125 4.328125 C 13.148438 4.328125 13.226562 4.25 13.261719 4.144531 L 13.332031 3.964844 L 13.503906 4.03125 L 13.6875 4.101562 L 13.941406 3.953125 C 14.078125 3.882812 14.285156 3.746094 14.386719 3.652344 L 14.582031 3.492188 L 14.8125 3.5625 L 15.042969 3.617188 L 15.292969 3.320312 L 15.664062 3.253906 C 15.867188 3.207031 16.15625 3.171875 16.316406 3.171875 L 16.605469 3.160156 L 16.683594 3.035156 L 16.765625 2.898438 L 17.222656 2.898438 L 17.671875 2.886719 L 17.84375 2.738281 L 18.027344 2.597656 L 18.523438 2.644531 L 19.015625 2.691406 L 19.683594 2.554688 L 20.335938 2.425781 L 20.394531 2.484375 C 20.507812 2.585938 20.957031 2.621094 22.035156 2.609375 L 23.117188 2.597656 L 23.300781 2.757812 L 23.496094 2.929688 L 23.898438 2.929688 C 24.117188 2.917969 24.390625 2.964844 24.496094 3.011719 C 24.609375 3.058594 24.839844 3.101562 25.011719 3.101562 L 25.332031 3.125 L 25.492188 3.273438 L 25.652344 3.4375 L 26.066406 3.320312 L 26.207031 3.480469 L 26.332031 3.640625 L 26.734375 3.640625 L 27.789062 4.15625 C 28.363281 4.445312 28.914062 4.671875 29.007812 4.671875 C 29.089844 4.671875 29.191406 4.71875 29.238281 4.777344 C 29.273438 4.84375 29.675781 5.132812 30.132812 5.429688 C 30.582031 5.726562 31.085938 6.09375 31.246094 6.234375 C 31.40625 6.371094 31.84375 6.773438 32.222656 7.105469 C 35.003906 9.589844 36.828125 13.03125 37.507812 17.078125 L 37.574219 17.5 L 37.3125 17.730469 C 37 18.027344 36.851562 18.027344 36.621094 17.777344 L 36.4375 17.570312 L 36.300781 16.882812 C 35.875 14.660156 35.039062 12.570312 33.796875 10.632812 L 33.394531 10.003906 L 31.796875 8.421875 C 30.925781 7.5625 30.15625 6.851562 30.097656 6.851562 C 30.042969 6.851562 29.925781 6.78125 29.847656 6.714844 C 29.570312 6.4375 28.765625 5.933594 28.628906 5.933594 L 28.492188 5.933594 L 28.492188 5.707031 L 28.03125 5.707031 L 28.03125 5.613281 C 28.03125 5.523438 27.539062 5.292969 27.078125 5.179688 L 26.746094 5.097656 L 26.6875 4.949219 L 26.628906 4.789062 L 26.089844 4.789062 L 26.023438 4.671875 L 25.953125 4.558594 L 25.402344 4.558594 L 25.332031 4.445312 L 25.265625 4.328125 L 24.609375 4.328125 L 24.300781 4.167969 L 23.988281 4.007812 L 23.597656 4.066406 L 23.207031 4.136719 L 23.070312 4.007812 L 22.921875 3.894531 L 21.199219 3.871094 C 20.246094 3.871094 19.234375 3.847656 18.925781 3.824219 L 18.382812 3.792969 L 18.257812 3.953125 L 18.132812 4.101562 L 16.996094 4.101562 L 16.441406 4.46875 L 16.328125 4.386719 L 16.214844 4.316406 L 15.9375 4.5 L 15.664062 4.671875 L 15.59375 4.59375 L 15.511719 4.523438 L 14.742188 4.890625 C 13.984375 5.257812 13.765625 5.363281 13.367188 5.578125 C 13.25 5.636719 12.976562 5.773438 12.757812 5.878906 C 12.539062 5.980469 12.207031 6.164062 12.011719 6.277344 C 11.828125 6.40625 11.585938 6.542969 11.492188 6.578125 C 11.21875 6.703125 10.105469 7.652344 9.5625 8.214844 C 8.4375 9.398438 8.1875 9.707031 7.484375 10.726562 L 6.761719 11.792969 L 6.269531 12.847656 C 5.648438 14.152344 5.347656 15.058594 5.0625 16.515625 L 4.832031 17.648438 L 4.832031 19.554688 L 5.542969 20.148438 L 8.21875 20.148438 L 8.703125 19.929688 L 9.183594 19.714844 L 9.367188 19.347656 L 9.550781 18.992188 L 9.769531 17.855469 L 9.988281 16.734375 L 10.289062 16.160156 L 10.585938 15.585938 L 11.066406 15.402344 C 11.34375 15.300781 11.621094 15.21875 11.6875 15.21875 L 11.816406 15.21875 L 11.882812 15.046875 L 11.941406 14.875 L 12.320312 14.945312 C 13.273438 15.117188 14.101562 15.4375 14.386719 15.757812 C 14.503906 15.875 14.6875 16.207031 14.8125 16.480469 L 15.054688 16.996094 L 15.054688 18.0625 L 14.8125 19.425781 C 14.6875 20.171875 14.503906 21.191406 14.421875 21.695312 C 14.328125 22.203125 14.078125 23.632812 13.859375 24.882812 C 13.628906 26.132812 13.445312 27.324219 13.445312 27.519531 L 13.445312 27.886719 L 13.652344 28.289062 L 13.871094 28.691406 L 14.308594 28.894531 L 14.742188 29.113281 L 15.121094 29.046875 L 15.488281 28.964844 L 15.890625 28.527344 L 16.292969 28.082031 L 16.363281 27.761719 C 16.421875 27.453125 17.59375 20.894531 18.394531 16.367188 C 18.578125 15.324219 18.945312 13.203125 19.234375 11.65625 L 19.738281 8.824219 L 20.003906 8.351562 L 20.257812 7.882812 L 20.703125 7.597656 L 21.140625 7.308594 L 21.519531 7.308594 L 21.726562 7.125 L 21.933594 6.945312 L 22.566406 6.945312 L 22.609375 7.070312 L 22.65625 7.195312 L 23.195312 7.195312 L 23.734375 7.574219 L 24.265625 7.941406 L 24.539062 8.480469 L 24.816406 9.019531 L 24.816406 10.234375 L 24.484375 12.101562 L 24.136719 13.96875 L 24 14.140625 L 23.875 14.304688 L 23.367188 14.304688 L 23.230469 14.164062 L 23.09375 14.027344 L 23.09375 13.671875 C 23.09375 13.464844 23.21875 12.617188 23.378906 11.769531 L 23.667969 10.234375 L 23.667969 9.132812 L 23.300781 8.789062 C 23.09375 8.59375 22.792969 8.386719 22.632812 8.332031 L 22.359375 8.214844 L 21.921875 8.285156 L 21.496094 8.363281 L 21.140625 8.753906 C 20.957031 8.972656 20.796875 9.191406 20.796875 9.234375 C 20.796875 9.28125 20.589844 10.453125 20.335938 11.839844 C 20.09375 13.226562 19.347656 17.457031 18.683594 21.238281 L 17.464844 28.117188 L 17.167969 28.722656 L 16.855469 29.320312 L 16.410156 29.6875 L 15.949219 30.042969 L 15.707031 30.078125 C 14.765625 30.191406 14.492188 30.203125 14.15625 30.15625 Z M 14.15625 30.15625 " fill-opacity="1" fill-rule="nonzero"/></g><g fill="#b1d0fd" fill-opacity="1"><g transform="translate(39.684705, 28.147813)"><g><path d="M 5.03125 -5.375 L 10.34375 -5.375 L 8.984375 -12.109375 Z M 13.046875 0 L 11.421875 0 L 10.625 -3.984375 L 4.1875 -3.984375 L 1.84375 0 L 0.21875 0 L 9.671875 -15.625 Z M 13.046875 0 "/></g></g></g><g fill="#b1d0fd" fill-opacity="1"><g transform="translate(52.949662, 28.147813)"><g><path d="M 11.625 -6.0625 L 10 -6.0625 C 9.84375 -6.675781 9.535156 -7.164062 9.078125 -7.53125 C 8.585938 -7.894531 8.070312 -8.078125 7.53125 -8.078125 C 7.25 -8.078125 6.984375 -8.050781 6.734375 -8 C 6.484375 -7.957031 6.253906 -7.890625 6.046875 -7.796875 C 5.609375 -7.628906 5.210938 -7.390625 4.859375 -7.078125 C 4.085938 -6.398438 3.613281 -5.617188 3.4375 -4.734375 C 3.269531 -3.785156 3.4375 -2.988281 3.9375 -2.34375 C 4.445312 -1.6875 5.15625 -1.359375 6.0625 -1.359375 C 6.664062 -1.359375 7.253906 -1.515625 7.828125 -1.828125 C 8.410156 -2.160156 8.890625 -2.582031 9.265625 -3.09375 L 10.96875 -3.09375 C 10.132812 -1.601562 8.90625 -0.585938 7.28125 -0.046875 C 6.800781 0.128906 6.253906 0.21875 5.640625 0.21875 C 5.046875 0.21875 4.476562 0.0859375 3.9375 -0.171875 C 3.394531 -0.429688 2.945312 -0.789062 2.59375 -1.25 C 1.863281 -2.238281 1.628906 -3.398438 1.890625 -4.734375 C 2.148438 -6.066406 2.835938 -7.21875 3.953125 -8.1875 C 5.097656 -9.164062 6.335938 -9.65625 7.671875 -9.65625 C 8.765625 -9.65625 9.679688 -9.316406 10.421875 -8.640625 C 11.140625 -7.992188 11.539062 -7.132812 11.625 -6.0625 Z M 11.625 -6.0625 "/></g></g></g><g fill="#b1d0fd" fill-opacity="1"><g transform="translate(64.150706, 28.147813)"><g><path d="M 10.0625 -4.734375 C 10.226562 -5.648438 10.0625 -6.453125 9.5625 -7.140625 C 9.050781 -7.828125 8.328125 -8.171875 7.390625 -8.171875 C 6.453125 -8.171875 5.59375 -7.828125 4.8125 -7.140625 C 4.039062 -6.453125 3.566406 -5.648438 3.390625 -4.734375 C 3.222656 -3.796875 3.382812 -2.992188 3.875 -2.328125 C 4.382812 -1.640625 5.113281 -1.296875 6.0625 -1.296875 C 6.988281 -1.296875 7.84375 -1.640625 8.625 -2.328125 C 9.40625 -3.023438 9.882812 -3.828125 10.0625 -4.734375 Z M 10.640625 0 L 9.140625 0 L 9.453125 -1.609375 C 9.398438 -1.554688 9.34375 -1.503906 9.28125 -1.453125 C 9.226562 -1.398438 9.171875 -1.347656 9.109375 -1.296875 C 8.023438 -0.285156 6.832031 0.21875 5.53125 0.21875 C 4.207031 0.21875 3.203125 -0.285156 2.515625 -1.296875 C 1.835938 -2.253906 1.628906 -3.398438 1.890625 -4.734375 C 2.148438 -6.066406 2.800781 -7.210938 3.84375 -8.171875 C 4.9375 -9.171875 6.132812 -9.671875 7.4375 -9.671875 C 8.757812 -9.671875 9.765625 -9.171875 10.453125 -8.171875 C 10.472656 -8.109375 10.503906 -8.050781 10.546875 -8 C 10.597656 -7.957031 10.632812 -7.90625 10.65625 -7.84375 L 10.984375 -9.453125 L 12.484375 -9.453125 Z M 10.640625 0 "/></g></g></g><g fill="#b1d0fd" fill-opacity="1"><g transform="translate(76.405204, 28.147813)"><g><path d="M 10.0625 -4.734375 C 10.226562 -5.648438 10.0625 -6.453125 9.5625 -7.140625 C 9.050781 -7.828125 8.328125 -8.171875 7.390625 -8.171875 C 6.453125 -8.171875 5.59375 -7.828125 4.8125 -7.140625 C 4.039062 -6.453125 3.566406 -5.648438 3.390625 -4.734375 C 3.222656 -3.796875 3.382812 -2.992188 3.875 -2.328125 C 4.382812 -1.640625 5.113281 -1.296875 6.0625 -1.296875 C 6.988281 -1.296875 7.84375 -1.640625 8.625 -2.328125 C 9.40625 -3.023438 9.882812 -3.828125 10.0625 -4.734375 Z M 10.640625 0 L 9.140625 0 L 9.453125 -1.609375 C 9.398438 -1.554688 9.34375 -1.503906 9.28125 -1.453125 C 9.226562 -1.398438 9.171875 -1.347656 9.109375 -1.296875 C 8.023438 -0.285156 6.832031 0.21875 5.53125 0.21875 C 4.207031 0.21875 3.203125 -0.285156 2.515625 -1.296875 C 1.835938 -2.253906 1.628906 -3.398438 1.890625 -4.734375 C 2.148438 -6.066406 2.800781 -7.210938 3.84375 -8.171875 C 4.9375 -9.171875 6.132812 -9.671875 7.4375 -9.671875 C 8.757812 -9.671875 9.765625 -9.171875 10.453125 -8.171875 C 10.472656 -8.109375 10.503906 -8.050781 10.546875 -8 C 10.597656 -7.957031 10.632812 -7.90625 10.65625 -7.84375 L 12.28125 -16.125 L 13.78125 -16.125 Z M 10.640625 0 "/></g></g></g><g fill="#b1d0fd" fill-opacity="1"><g transform="translate(88.659705, 28.147813)"><g><path d="M 5.609375 -12.734375 C 5.753906 -12.546875 5.804688 -12.316406 5.765625 -12.046875 C 5.722656 -11.816406 5.585938 -11.59375 5.359375 -11.375 C 5.148438 -11.1875 4.90625 -11.09375 4.625 -11.09375 C 4.351562 -11.09375 4.144531 -11.1875 4 -11.375 C 3.851562 -11.5625 3.800781 -11.785156 3.84375 -12.046875 C 3.882812 -12.296875 4.019531 -12.523438 4.25 -12.734375 C 4.457031 -12.910156 4.703125 -13 4.984375 -13 C 5.253906 -13 5.460938 -12.910156 5.609375 -12.734375 Z M 3.21875 0 L 1.71875 0 L 3.5625 -9.453125 L 5.078125 -9.453125 Z M 3.21875 0 "/></g></g></g><g fill="#b1d0fd" fill-opacity="1"><g transform="translate(93.583003, 28.147813)"><g><path d="M 9.546875 -14.734375 L 8.25 -14.734375 C 7.738281 -14.734375 7.390625 -14.617188 7.203125 -14.390625 C 6.984375 -14.128906 6.847656 -13.847656 6.796875 -13.546875 L 6.015625 -9.453125 L 8.53125 -9.453125 L 8.25 -8.0625 L 5.734375 -8.0625 L 4.171875 0 L 2.671875 0 L 4.234375 -8.0625 L 2.328125 -8.0625 L 2.59375 -9.453125 L 4.515625 -9.453125 L 5.21875 -13.109375 C 5.320312 -13.597656 5.460938 -14.03125 5.640625 -14.40625 C 5.816406 -14.78125 6.046875 -15.09375 6.328125 -15.34375 C 6.878906 -15.863281 7.6875 -16.125 8.75 -16.125 L 9.828125 -16.125 Z M 9.546875 -14.734375 "/></g></g></g><g fill="#b1d0fd" fill-opacity="1"><g transform="translate(100.914206, 28.147813)"><g><path d="M 1.765625 5.375 L -0.0625 5.375 L 4.46875 -1.546875 L 2.0625 -9.453125 L 3.78125 -9.453125 L 5.5625 -3.125 L 9.53125 -9.453125 L 11.203125 -9.453125 Z M 1.765625 5.375 "/></g></g></g><g fill="#0d6efe" fill-opacity="1"><g transform="translate(40.999362, 26.878262)"><g><path d="M 5.03125 -5.375 L 10.34375 -5.375 L 8.984375 -12.109375 Z M 13.046875 0 L 11.421875 0 L 10.625 -3.984375 L 4.1875 -3.984375 L 1.84375 0 L 0.21875 0 L 9.671875 -15.625 Z M 13.046875 0 "/></g></g></g><g fill="#0d6efe" fill-opacity="1"><g transform="translate(54.264319, 26.878262)"><g><path d="M 11.625 -6.0625 L 10 -6.0625 C 9.84375 -6.675781 9.535156 -7.164062 9.078125 -7.53125 C 8.585938 -7.894531 8.070312 -8.078125 7.53125 -8.078125 C 7.25 -8.078125 6.984375 -8.050781 6.734375 -8 C 6.484375 -7.957031 6.253906 -7.890625 6.046875 -7.796875 C 5.609375 -7.628906 5.210938 -7.390625 4.859375 -7.078125 C 4.085938 -6.398438 3.613281 -5.617188 3.4375 -4.734375 C 3.269531 -3.785156 3.4375 -2.988281 3.9375 -2.34375 C 4.445312 -1.6875 5.15625 -1.359375 6.0625 -1.359375 C 6.664062 -1.359375 7.253906 -1.515625 7.828125 -1.828125 C 8.410156 -2.160156 8.890625 -2.582031 9.265625 -3.09375 L 10.96875 -3.09375 C 10.132812 -1.601562 8.90625 -0.585938 7.28125 -0.046875 C 6.800781 0.128906 6.253906 0.21875 5.640625 0.21875 C 5.046875 0.21875 4.476562 0.0859375 3.9375 -0.171875 C 3.394531 -0.429688 2.945312 -0.789062 2.59375 -1.25 C 1.863281 -2.238281 1.628906 -3.398438 1.890625 -4.734375 C 2.148438 -6.066406 2.835938 -7.21875 3.953125 -8.1875 C 5.097656 -9.164062 6.335938 -9.65625 7.671875 -9.65625 C 8.765625 -9.65625 9.679688 -9.316406 10.421875 -8.640625 C 11.140625 -7.992188 11.539062 -7.132812 11.625 -6.0625 Z M 11.625 -6.0625 "/></g></g></g><g fill="#0d6efe" fill-opacity="1"><g transform="translate(65.465363, 26.878262)"><g><path d="M 10.0625 -4.734375 C 10.226562 -5.648438 10.0625 -6.453125 9.5625 -7.140625 C 9.050781 -7.828125 8.328125 -8.171875 7.390625 -8.171875 C 6.453125 -8.171875 5.59375 -7.828125 4.8125 -7.140625 C 4.039062 -6.453125 3.566406 -5.648438 3.390625 -4.734375 C 3.222656 -3.796875 3.382812 -2.992188 3.875 -2.328125 C 4.382812 -1.640625 5.113281 -1.296875 6.0625 -1.296875 C 6.988281 -1.296875 7.84375 -1.640625 8.625 -2.328125 C 9.40625 -3.023438 9.882812 -3.828125 10.0625 -4.734375 Z M 10.640625 0 L 9.140625 0 L 9.453125 -1.609375 C 9.398438 -1.554688 9.34375 -1.503906 9.28125 -1.453125 C 9.226562 -1.398438 9.171875 -1.347656 9.109375 -1.296875 C 8.023438 -0.285156 6.832031 0.21875 5.53125 0.21875 C 4.207031 0.21875 3.203125 -0.285156 2.515625 -1.296875 C 1.835938 -2.253906 1.628906 -3.398438 1.890625 -4.734375 C 2.148438 -6.066406 2.800781 -7.210938 3.84375 -8.171875 C 4.9375 -9.171875 6.132812 -9.671875 7.4375 -9.671875 C 8.757812 -9.671875 9.765625 -9.171875 10.453125 -8.171875 C 10.472656 -8.109375 10.503906 -8.050781 10.546875 -8 C 10.597656 -7.957031 10.632812 -7.90625 10.65625 -7.84375 L 10.984375 -9.453125 L 12.484375 -9.453125 Z M 10.640625 0 "/></g></g></g><g fill="#0d6efe" fill-opacity="1"><g transform="translate(77.719861, 26.878262)"><g><path d="M 10.0625 -4.734375 C 10.226562 -5.648438 10.0625 -6.453125 9.5625 -7.140625 C 9.050781 -7.828125 8.328125 -8.171875 7.390625 -8.171875 C 6.453125 -8.171875 5.59375 -7.828125 4.8125 -7.140625 C 4.039062 -6.453125 3.566406 -5.648438 3.390625 -4.734375 C 3.222656 -3.796875 3.382812 -2.992188 3.875 -2.328125 C 4.382812 -1.640625 5.113281 -1.296875 6.0625 -1.296875 C 6.988281 -1.296875 7.84375 -1.640625 8.625 -2.328125 C 9.40625 -3.023438 9.882812 -3.828125 10.0625 -4.734375 Z M 10.640625 0 L 9.140625 0 L 9.453125 -1.609375 C 9.398438 -1.554688 9.34375 -1.503906 9.28125 -1.453125 C 9.226562 -1.398438 9.171875 -1.347656 9.109375 -1.296875 C 8.023438 -0.285156 6.832031 0.21875 5.53125 0.21875 C 4.207031 0.21875 3.203125 -0.285156 2.515625 -1.296875 C 1.835938 -2.253906 1.628906 -3.398438 1.890625 -4.734375 C 2.148438 -6.066406 2.800781 -7.210938 3.84375 -8.171875 C 4.9375 -9.171875 6.132812 -9.671875 7.4375 -9.671875 C 8.757812 -9.671875 9.765625 -9.171875 10.453125 -8.171875 C 10.472656 -8.109375 10.503906 -8.050781 10.546875 -8 C 10.597656 -7.957031 10.632812 -7.90625 10.65625 -7.84375 L 12.28125 -16.125 L 13.78125 -16.125 Z M 10.640625 0 "/></g></g></g><g fill="#0d6efe" fill-opacity="1"><g transform="translate(89.974362, 26.878262)"><g><path d="M 5.609375 -12.734375 C 5.753906 -12.546875 5.804688 -12.316406 5.765625 -12.046875 C 5.722656 -11.816406 5.585938 -11.59375 5.359375 -11.375 C 5.148438 -11.1875 4.90625 -11.09375 4.625 -11.09375 C 4.351562 -11.09375 4.144531 -11.1875 4 -11.375 C 3.851562 -11.5625 3.800781 -11.785156 3.84375 -12.046875 C 3.882812 -12.296875 4.019531 -12.523438 4.25 -12.734375 C 4.457031 -12.910156 4.703125 -13 4.984375 -13 C 5.253906 -13 5.460938 -12.910156 5.609375 -12.734375 Z M 3.21875 0 L 1.71875 0 L 3.5625 -9.453125 L 5.078125 -9.453125 Z M 3.21875 0 "/></g></g></g><g fill="#0d6efe" fill-opacity="1"><g transform="translate(94.89766, 26.878262)"><g><path d="M 9.546875 -14.734375 L 8.25 -14.734375 C 7.738281 -14.734375 7.390625 -14.617188 7.203125 -14.390625 C 6.984375 -14.128906 6.847656 -13.847656 6.796875 -13.546875 L 6.015625 -9.453125 L 8.53125 -9.453125 L 8.25 -8.0625 L 5.734375 -8.0625 L 4.171875 0 L 2.671875 0 L 4.234375 -8.0625 L 2.328125 -8.0625 L 2.59375 -9.453125 L 4.515625 -9.453125 L 5.21875 -13.109375 C 5.320312 -13.597656 5.460938 -14.03125 5.640625 -14.40625 C 5.816406 -14.78125 6.046875 -15.09375 6.328125 -15.34375 C 6.878906 -15.863281 7.6875 -16.125 8.75 -16.125 L 9.828125 -16.125 Z M 9.546875 -14.734375 "/></g></g></g><g fill="#0d6efe" fill-opacity="1"><g transform="translate(102.228863, 26.878262)"><g><path d="M 1.765625 5.375 L -0.0625 5.375 L 4.46875 -1.546875 L 2.0625 -9.453125 L 3.78125 -9.453125 L 5.5625 -3.125 L 9.53125 -9.453125 L 11.203125 -9.453125 Z M 1.765625 5.375 "/></g></g></g></svg>