<svg xmlns="http://www.w3.org/2000/svg" xmlns:xlink="http://www.w3.org/1999/xlink" width="793" zoomAndPan="magnify" viewBox="0 0 100 100" height="258" preserveAspectRatio="xMidYMid meet" version="1.0"><defs><g/></defs><path fill="#b1d0fd" d="M 86.535156 179.585938 C 85.09375 179.355469 81.917969 178.890625 79.378906 178.546875 L 74.816406 177.910156 L 73.085938 177.046875 L 71.355469 176.179688 L 69.96875 176.179688 C 68.46875 176.179688 66.273438 175.199219 65.695312 174.273438 L 65.292969 173.753906 L 62.347656 173.753906 L 61.308594 172.773438 C 60.730469 172.253906 59.863281 171.792969 59.402344 171.675781 C 58.941406 171.558594 58.421875 171.214844 58.363281 170.925781 L 58.132812 170.40625 L 57.554688 170.753906 L 56.921875 171.15625 L 56.113281 170.117188 C 55.707031 169.480469 55.363281 169.195312 55.363281 169.425781 L 55.363281 169.886719 L 54.09375 169.195312 C 53.339844 168.789062 50.800781 167.230469 48.433594 165.613281 L 44.105469 162.726562 L 41.042969 159.785156 C 39.371094 158.167969 37.636719 156.664062 37.175781 156.378906 C 36.078125 155.800781 27.476562 145.464844 24.765625 141.539062 C 23.609375 139.808594 21.300781 135.710938 19.683594 132.535156 L 16.738281 126.703125 L 15.238281 121.96875 L 13.738281 117.292969 L 13.910156 116.082031 L 14.085938 114.808594 L 15.007812 114.234375 L 15.929688 113.65625 L 17.433594 114.058594 L 18.933594 114.40625 L 20.375 119.199219 L 21.820312 123.933594 L 24.070312 128.550781 C 29.671875 139.921875 40.46875 153.085938 48.320312 158.109375 C 49.648438 158.976562 50.742188 159.898438 50.742188 160.128906 L 50.742188 160.589844 L 51.839844 160.589844 C 52.476562 160.589844 53.109375 160.824219 53.285156 161.109375 C 53.457031 161.34375 56.34375 162.957031 59.691406 164.632812 L 65.753906 167.691406 L 65.753906 168.730469 L 66.273438 168.441406 L 66.792969 168.097656 L 68.699219 168.730469 C 69.792969 169.136719 70.949219 169.714844 71.296875 170.175781 L 71.875 170.925781 L 75.914062 171.792969 C 78.109375 172.253906 81.457031 172.886719 83.417969 173.234375 L 86.882812 173.871094 L 103.742188 173.871094 L 104.085938 172.945312 L 104.433594 172.023438 L 105.183594 172.601562 L 105.878906 173.234375 L 109.628906 172.714844 C 114.769531 172.023438 117.480469 171.273438 119.214844 170.175781 L 120.65625 169.195312 L 121.234375 169.539062 L 121.8125 169.945312 L 123.195312 169.019531 C 123.945312 168.5 125.96875 167.578125 127.640625 166.941406 C 129.316406 166.308594 131.222656 165.554688 131.855469 165.269531 C 132.492188 164.980469 133.875 164.402344 134.914062 164.054688 L 136.820312 163.304688 L 137.398438 162.265625 L 137.976562 161.167969 L 140.285156 161.167969 L 140.574219 160.304688 L 140.921875 159.496094 L 143.460938 158.28125 L 146 157.011719 L 150.503906 152.625 C 152.984375 150.140625 156.449219 146.503906 158.179688 144.484375 L 161.300781 140.789062 L 164.070312 136.113281 C 165.570312 133.515625 167.707031 129.589844 168.804688 127.339844 L 170.765625 123.238281 L 172.441406 117.523438 C 173.363281 114.347656 174.347656 110.539062 174.578125 108.980469 L 174.980469 106.09375 L 173.132812 104.476562 L 171.285156 102.917969 L 169.265625 102.515625 L 167.304688 102.167969 L 158.355469 102.398438 L 149.40625 102.6875 L 147.675781 100.609375 L 146 98.53125 L 145.480469 96.625 L 144.902344 94.71875 L 145.828125 89.871094 L 146.691406 85.019531 L 146.347656 83.578125 L 146 82.191406 L 143 78.613281 L 140.457031 78.613281 L 139.359375 77.515625 L 134.164062 79.015625 L 132.953125 81.269531 L 131.742188 83.519531 L 129.316406 96.972656 L 126.949219 110.421875 L 124.753906 114.695312 L 122.734375 116.65625 L 120.65625 118.621094 L 117.652344 119.253906 L 114.652344 119.949219 L 111.417969 119.371094 L 108.1875 118.792969 L 105.472656 116.082031 L 102.757812 113.367188 L 101.777344 110.078125 L 100.855469 106.726562 L 102.992188 94.546875 C 105.242188 81.789062 105.53125 80.75 107.261719 79.824219 L 108.300781 79.246094 L 109.570312 80.402344 L 110.785156 81.558594 L 110.785156 82.367188 C 110.785156 82.828125 109.859375 88.542969 108.707031 95.125 L 106.628906 107.015625 L 107.667969 109.324219 L 108.707031 111.691406 L 110.496094 112.730469 L 112.226562 113.828125 L 116.558594 113.828125 L 118.808594 111.808594 L 121.058594 109.730469 L 121.695312 107.015625 C 122.042969 105.515625 123.253906 99.109375 124.351562 92.757812 L 126.429688 81.210938 L 127.871094 78.207031 L 129.316406 75.265625 L 130.585938 74.457031 C 132.085938 73.476562 137.398438 71.683594 138.785156 71.683594 C 139.304688 71.683594 141.207031 72.089844 143 72.609375 L 146.289062 73.53125 L 148.714844 76.074219 L 151.082031 78.554688 L 151.773438 81.789062 L 152.464844 85.019531 L 151.65625 89.871094 L 150.792969 94.664062 L 151.714844 96.164062 L 152.640625 97.664062 L 162.453125 97.722656 C 167.824219 97.722656 172.84375 97.835938 173.597656 98.011719 L 174.921875 98.242188 L 176.886719 99.742188 L 178.847656 101.242188 L 179.832031 103.839844 L 180.8125 106.441406 L 180.175781 110.769531 L 179.484375 115.097656 L 177.347656 121.449219 L 175.269531 127.800781 L 172.730469 132.765625 L 170.132812 137.789062 L 165.859375 143.847656 L 161.585938 149.96875 L 155.816406 155.625 L 149.984375 161.34375 L 145.078125 164.980469 L 140.113281 168.617188 L 139.304688 168.269531 L 138.496094 167.980469 L 138.148438 168.90625 L 137.800781 169.828125 L 137.28125 169.480469 L 136.761719 169.195312 L 136.761719 170.175781 L 134.683594 171.15625 L 132.664062 172.136719 L 132.027344 171.792969 L 131.394531 171.386719 L 130.585938 172.425781 C 130.183594 173.0625 129.835938 173.351562 129.835938 173.175781 C 129.835938 172.945312 129.144531 173.121094 128.335938 173.582031 L 126.832031 174.332031 L 126.023438 174.042969 L 125.21875 173.753906 L 124.871094 174.734375 L 124.464844 175.660156 L 123.136719 175.371094 L 121.8125 175.023438 L 121.234375 176.003906 C 120.886719 176.582031 120.597656 176.871094 120.597656 176.582031 L 120.597656 176.179688 L 119.15625 177.101562 L 117.652344 178.085938 L 117.308594 177.738281 L 116.960938 177.390625 L 115.980469 177.910156 C 115.460938 178.199219 112.863281 178.71875 110.148438 179.066406 L 105.300781 179.699219 L 97.21875 179.816406 L 89.136719 179.929688 Z M 86.535156 179.585938 " fill-opacity="1" fill-rule="nonzero"/><path fill="#b1d0fd" d="M 63.558594 148.0625 L 61.597656 147.832031 L 58.480469 144.601562 L 55.363281 141.367188 L 54.785156 139.289062 C 53.859375 135.996094 54.09375 133.574219 56.226562 121.449219 C 57.382812 115.214844 59.289062 104.417969 60.5 97.433594 L 62.75 84.847656 L 62.175781 83 L 61.597656 81.210938 L 58.824219 78.671875 L 56.746094 78.265625 L 54.667969 77.863281 L 52.359375 78.671875 L 50.109375 79.421875 L 49.011719 80.75 L 47.972656 82.132812 L 47.28125 86.292969 C 46.933594 88.542969 46.242188 91.777344 45.835938 93.390625 L 44.96875 96.335938 L 43.007812 98.820312 C 41.910156 100.203125 40.523438 101.589844 39.890625 101.9375 L 38.675781 102.570312 L 27.363281 102.515625 L 16.046875 102.457031 L 13.738281 99.914062 L 11.429688 97.375 L 11.082031 95.988281 L 10.734375 94.605469 L 11.140625 87.617188 L 11.484375 80.632812 L 12.699219 75.726562 C 15.066406 65.679688 18.992188 56.328125 23.78125 49.113281 C 30.652344 38.894531 31.921875 37.277344 38.042969 31.445312 L 41.796875 27.867188 L 42.488281 27.808594 C 42.835938 27.808594 43.527344 27.347656 43.929688 26.710938 L 44.683594 25.671875 L 46.007812 25.269531 L 47.28125 24.863281 L 47.28125 23.824219 L 49.878906 22.671875 C 51.261719 22.035156 53.574219 20.765625 55.015625 19.785156 C 56.457031 18.804688 57.84375 17.996094 58.132812 17.996094 C 58.480469 17.996094 58.882812 17.589844 59.058594 17.070312 L 59.402344 16.148438 L 60.269531 16.492188 L 61.191406 16.839844 L 62.464844 16.089844 C 63.15625 15.742188 64.195312 15.050781 64.714844 14.589844 L 65.695312 13.78125 L 66.851562 14.128906 L 68.003906 14.414062 L 68.640625 13.664062 L 69.273438 12.914062 L 71.121094 12.566406 C 72.160156 12.335938 73.605469 12.164062 74.414062 12.164062 L 75.855469 12.105469 L 76.261719 11.472656 L 76.664062 10.777344 L 78.972656 10.777344 L 81.226562 10.722656 L 82.089844 9.96875 L 83.015625 9.277344 L 85.496094 9.507812 L 87.980469 9.738281 L 91.328125 9.046875 L 94.621094 8.410156 L 94.90625 8.699219 C 95.484375 9.21875 97.738281 9.394531 103.164062 9.335938 L 108.589844 9.277344 L 109.515625 10.085938 L 110.496094 10.953125 L 112.515625 10.953125 C 113.613281 10.894531 115 11.125 115.519531 11.355469 C 116.09375 11.585938 117.25 11.816406 118.117188 11.816406 L 119.734375 11.933594 L 120.539062 12.683594 L 121.347656 13.492188 L 123.425781 12.914062 L 124.121094 13.722656 L 124.753906 14.53125 L 126.777344 14.53125 L 132.085938 17.128906 C 134.972656 18.574219 137.746094 19.726562 138.207031 19.726562 C 138.609375 19.726562 139.128906 19.957031 139.359375 20.246094 C 139.535156 20.59375 141.554688 22.035156 143.863281 23.539062 C 146.117188 25.039062 148.65625 26.886719 149.464844 27.578125 C 150.273438 28.269531 152.464844 30.292969 154.371094 31.964844 C 168.34375 44.492188 177.523438 61.8125 180.929688 82.191406 L 181.273438 84.328125 L 179.945312 85.484375 C 178.386719 86.984375 177.636719 86.984375 176.484375 85.714844 L 175.558594 84.675781 L 174.867188 81.210938 C 172.730469 70.011719 168.515625 59.503906 162.28125 49.746094 L 160.261719 46.570312 L 152.234375 38.605469 C 147.847656 34.273438 143.980469 30.695312 143.691406 30.695312 C 143.402344 30.695312 142.824219 30.347656 142.421875 30.003906 C 141.035156 28.617188 136.996094 26.078125 136.300781 26.078125 L 135.609375 26.078125 L 135.609375 24.921875 L 133.300781 24.921875 L 133.300781 24.460938 C 133.300781 24 130.816406 22.84375 128.507812 22.265625 L 126.832031 21.863281 L 126.542969 21.113281 L 126.257812 20.304688 L 123.542969 20.304688 L 123.195312 19.726562 L 122.851562 19.148438 L 120.078125 19.148438 L 119.734375 18.574219 L 119.386719 17.996094 L 116.09375 17.996094 L 112.976562 16.378906 L 111.015625 16.667969 L 109.050781 17.011719 L 108.359375 16.378906 L 107.609375 15.800781 L 98.949219 15.6875 C 94.15625 15.6875 89.078125 15.570312 87.519531 15.453125 L 84.804688 15.28125 L 84.171875 16.089844 L 83.535156 16.839844 L 77.820312 16.839844 L 76.433594 17.765625 L 75.046875 18.6875 L 74.472656 18.285156 L 73.894531 17.9375 L 72.507812 18.859375 L 71.121094 19.726562 L 70.777344 19.324219 L 70.371094 18.976562 L 66.503906 20.824219 C 62.695312 22.671875 61.597656 23.191406 59.578125 24.289062 C 59 24.578125 57.613281 25.269531 56.515625 25.789062 C 55.417969 26.308594 53.746094 27.230469 52.765625 27.808594 C 51.839844 28.445312 50.628906 29.136719 50.167969 29.308594 C 48.78125 29.945312 43.179688 34.738281 40.46875 37.566406 C 34.808594 43.511719 33.539062 45.070312 30.019531 50.210938 L 26.382812 55.578125 L 23.898438 60.890625 C 20.78125 67.472656 19.28125 72.03125 17.835938 79.363281 L 16.683594 85.078125 L 16.683594 94.664062 L 20.261719 97.664062 L 33.710938 97.664062 L 38.5625 95.46875 L 39.484375 93.625 L 40.410156 91.832031 L 41.507812 86.117188 L 42.601562 80.460938 L 44.105469 77.574219 L 45.605469 74.6875 L 48.03125 73.761719 C 49.414062 73.242188 50.800781 72.839844 51.148438 72.839844 L 51.78125 72.839844 L 52.128906 71.972656 L 52.417969 71.109375 L 54.324219 71.453125 C 59.113281 72.320312 63.269531 73.9375 64.714844 75.554688 C 65.292969 76.128906 66.214844 77.804688 66.851562 79.191406 L 68.0625 81.789062 L 68.0625 87.15625 L 66.851562 94.027344 C 66.214844 97.78125 65.292969 102.917969 64.886719 105.457031 C 64.425781 108 63.15625 115.214844 62.058594 121.507812 C 60.90625 127.800781 59.980469 133.804688 59.980469 134.785156 L 59.980469 136.632812 L 61.019531 138.652344 L 62.117188 140.675781 L 64.308594 141.714844 L 66.503906 142.808594 L 68.410156 142.464844 L 70.257812 142.058594 L 72.277344 139.867188 L 74.296875 137.613281 L 74.644531 135.996094 C 74.933594 134.4375 80.820312 101.417969 84.863281 78.613281 C 85.785156 73.359375 87.632812 62.679688 89.078125 54.886719 L 91.617188 40.625 L 92.945312 38.257812 L 94.214844 35.890625 L 96.46875 34.449219 L 98.660156 33.003906 L 100.566406 33.003906 L 101.605469 32.082031 L 102.644531 31.15625 L 105.820312 31.15625 L 106.28125 32.429688 L 108.996094 32.429688 L 111.707031 34.332031 L 114.363281 36.179688 L 115.75 38.894531 L 117.132812 41.605469 L 117.132812 47.726562 L 115.460938 57.136719 L 113.726562 66.546875 L 113.035156 67.414062 L 112.402344 68.222656 L 109.859375 68.222656 L 109.167969 67.527344 L 108.476562 66.835938 L 108.476562 65.046875 C 108.476562 64.007812 109.109375 59.734375 109.917969 55.460938 L 111.363281 47.726562 L 111.363281 42.183594 L 109.515625 40.453125 C 108.476562 39.472656 106.972656 38.433594 106.164062 38.144531 L 104.78125 37.566406 L 102.585938 37.914062 L 100.449219 38.316406 L 98.660156 40.28125 C 97.738281 41.375 96.929688 42.472656 96.929688 42.703125 C 96.929688 42.933594 95.890625 48.824219 94.621094 55.808594 C 93.40625 62.792969 89.65625 84.097656 86.304688 103.148438 L 80.1875 137.789062 L 78.683594 140.847656 L 77.125 143.847656 L 74.875 145.695312 L 72.566406 147.488281 L 71.355469 147.660156 C 66.621094 148.238281 65.234375 148.292969 63.558594 148.0625 Z M 63.558594 148.0625 " fill-opacity="1" fill-rule="nonzero"/><path fill="#0d6efe" d="M 85.324219 174.027344 C 83.953125 173.808594 80.933594 173.371094 78.515625 173.042969 L 74.179688 172.441406 L 72.535156 171.617188 L 70.886719 170.796875 L 69.570312 170.796875 C 68.144531 170.796875 66.058594 169.863281 65.507812 168.988281 L 65.125 168.496094 L 62.328125 168.496094 L 61.339844 167.5625 C 60.789062 167.070312 59.964844 166.632812 59.527344 166.523438 C 59.089844 166.414062 58.59375 166.085938 58.539062 165.8125 L 58.320312 165.316406 L 57.769531 165.648438 L 57.167969 166.03125 L 56.398438 165.042969 C 56.015625 164.441406 55.683594 164.167969 55.683594 164.386719 L 55.683594 164.824219 L 54.476562 164.167969 C 53.765625 163.785156 51.347656 162.304688 49.097656 160.769531 L 44.984375 158.03125 L 42.074219 155.238281 C 40.480469 153.703125 38.835938 152.28125 38.394531 152.007812 C 37.351562 151.457031 29.175781 141.652344 26.597656 137.925781 C 25.5 136.285156 23.304688 132.394531 21.765625 129.378906 L 18.96875 123.847656 L 17.539062 119.355469 L 16.113281 114.917969 L 16.277344 113.765625 L 16.441406 112.5625 L 17.320312 112.015625 L 18.199219 111.464844 L 19.625 111.851562 L 21.050781 112.179688 L 22.425781 116.726562 L 23.796875 121.21875 L 25.9375 125.601562 C 31.261719 136.394531 41.523438 148.882812 48.988281 153.648438 C 50.25 154.472656 51.292969 155.347656 51.292969 155.566406 L 51.292969 156.003906 L 52.335938 156.003906 C 52.941406 156.003906 53.542969 156.222656 53.710938 156.496094 C 53.875 156.71875 56.617188 158.25 59.800781 159.839844 L 65.566406 162.742188 L 65.566406 163.730469 L 66.058594 163.457031 L 66.550781 163.125 L 68.363281 163.730469 C 69.40625 164.113281 70.503906 164.660156 70.832031 165.097656 L 71.382812 165.8125 L 75.222656 166.632812 C 77.308594 167.070312 80.492188 167.671875 82.359375 168.003906 L 85.652344 168.605469 L 101.679688 168.605469 L 102.007812 167.726562 L 102.335938 166.851562 L 103.050781 167.398438 L 103.710938 168.003906 L 107.277344 167.507812 C 112.164062 166.851562 114.742188 166.140625 116.386719 165.097656 L 117.761719 164.167969 L 118.308594 164.496094 L 118.859375 164.878906 L 120.175781 164.003906 C 120.890625 163.511719 122.808594 162.632812 124.402344 162.03125 C 125.992188 161.429688 127.804688 160.714844 128.410156 160.441406 C 129.011719 160.167969 130.328125 159.621094 131.316406 159.292969 L 133.128906 158.578125 L 133.675781 157.59375 L 134.226562 156.554688 L 136.421875 156.554688 L 136.695312 155.730469 L 137.027344 154.964844 L 139.441406 153.8125 L 141.855469 152.609375 L 146.136719 148.445312 C 148.496094 146.089844 151.789062 142.636719 153.4375 140.71875 L 156.398438 137.214844 L 159.035156 132.777344 C 160.460938 130.3125 162.492188 126.585938 163.535156 124.449219 L 165.402344 120.5625 L 166.992188 115.136719 C 167.871094 112.125 168.804688 108.507812 169.023438 107.027344 L 169.40625 104.289062 L 167.652344 102.757812 L 165.894531 101.277344 L 163.972656 100.894531 L 162.109375 100.566406 L 153.601562 100.785156 L 145.09375 101.058594 L 143.445312 99.085938 L 141.855469 97.113281 L 141.363281 95.304688 L 140.8125 93.496094 L 141.691406 88.894531 L 142.515625 84.292969 L 142.183594 82.925781 L 141.855469 81.609375 L 140.429688 79.910156 L 139 78.214844 L 136.585938 78.214844 L 136.039062 77.664062 L 135.542969 77.171875 L 133.074219 77.886719 L 130.605469 78.597656 L 129.453125 80.734375 L 128.296875 82.871094 L 125.992188 95.632812 L 123.742188 108.398438 L 121.65625 112.453125 L 119.738281 114.316406 L 117.761719 116.179688 L 114.90625 116.78125 L 112.050781 117.4375 L 108.980469 116.890625 L 105.90625 116.34375 L 103.324219 113.765625 L 100.746094 111.191406 L 99.8125 108.070312 L 98.933594 104.894531 L 100.964844 93.332031 C 103.105469 81.226562 103.378906 80.242188 105.027344 79.363281 L 106.015625 78.816406 L 107.222656 79.910156 L 108.375 81.007812 L 108.375 81.773438 C 108.375 82.210938 107.496094 87.636719 106.398438 93.882812 L 104.421875 105.167969 L 105.410156 107.359375 L 106.398438 109.605469 L 108.101562 110.589844 L 109.746094 111.632812 L 113.863281 111.632812 L 116.003906 109.714844 L 118.144531 107.742188 L 118.75 105.167969 C 119.078125 103.742188 120.230469 97.660156 121.273438 91.636719 L 123.25 80.679688 L 124.621094 77.828125 L 125.992188 75.035156 L 127.199219 74.269531 C 128.628906 73.335938 133.675781 71.640625 134.996094 71.640625 C 135.488281 71.640625 137.300781 72.023438 139 72.515625 L 142.128906 73.394531 L 144.433594 75.804688 L 146.683594 78.160156 L 148.003906 84.292969 L 147.234375 88.894531 L 146.410156 93.441406 L 148.167969 96.292969 L 157.496094 96.347656 C 162.601562 96.347656 167.378906 96.457031 168.089844 96.621094 L 169.351562 96.839844 L 171.21875 98.265625 L 173.085938 99.6875 L 174.953125 104.617188 L 174.347656 108.726562 L 173.6875 112.835938 L 171.65625 118.863281 L 169.683594 124.886719 L 167.265625 129.601562 L 164.796875 134.367188 L 160.734375 140.117188 L 156.675781 145.925781 L 151.1875 151.292969 L 145.640625 156.71875 L 140.976562 160.167969 L 136.257812 163.621094 L 135.488281 163.292969 L 134.71875 163.015625 L 134.390625 163.894531 L 134.0625 164.769531 L 133.566406 164.441406 L 133.074219 164.167969 L 133.074219 165.097656 L 131.097656 166.03125 L 129.175781 166.960938 L 128.574219 166.632812 L 127.96875 166.25 L 127.199219 167.234375 C 126.816406 167.839844 126.488281 168.113281 126.488281 167.949219 C 126.488281 167.726562 125.828125 167.894531 125.058594 168.332031 L 123.632812 169.042969 L 122.863281 168.769531 L 122.097656 168.496094 L 121.765625 169.425781 L 121.382812 170.304688 L 120.121094 170.03125 L 118.859375 169.699219 L 118.308594 170.632812 C 117.980469 171.179688 117.707031 171.453125 117.707031 171.179688 L 117.707031 170.796875 L 116.332031 171.671875 L 114.90625 172.605469 L 114.246094 171.945312 L 113.316406 172.441406 C 112.820312 172.714844 110.351562 173.207031 107.769531 173.535156 L 103.160156 174.136719 L 87.792969 174.355469 Z M 85.324219 174.027344 " fill-opacity="1" fill-rule="nonzero"/><path fill="#0d6efe" d="M 63.480469 144.117188 L 61.613281 143.898438 L 58.648438 140.832031 L 55.683594 137.761719 L 55.136719 135.789062 C 54.257812 132.667969 54.476562 130.367188 56.507812 118.863281 C 57.605469 112.945312 59.417969 102.703125 60.570312 96.074219 L 62.710938 84.128906 L 62.160156 82.378906 L 61.613281 80.679688 L 60.296875 79.472656 L 58.976562 78.269531 L 57.003906 77.886719 L 55.027344 77.5 L 52.832031 78.269531 L 50.691406 78.980469 L 49.648438 80.242188 L 48.660156 81.554688 L 48 85.5 C 47.671875 87.636719 47.011719 90.703125 46.628906 92.238281 L 45.804688 95.03125 L 43.941406 97.386719 C 42.898438 98.703125 41.578125 100.015625 40.976562 100.347656 L 39.824219 100.949219 L 18.308594 100.839844 L 13.917969 96.019531 L 13.589844 94.703125 L 13.257812 93.386719 L 13.644531 86.757812 L 13.972656 80.132812 L 15.125 75.472656 C 17.375 65.941406 21.105469 57.066406 25.664062 50.21875 C 32.195312 40.523438 33.402344 38.988281 39.21875 33.457031 L 42.785156 30.058594 L 43.445312 30.003906 C 43.773438 30.003906 44.433594 29.566406 44.816406 28.964844 L 45.53125 27.976562 L 46.792969 27.59375 L 48 27.210938 L 48 26.226562 L 50.472656 25.128906 C 51.789062 24.527344 53.984375 23.320312 55.355469 22.390625 C 56.726562 21.457031 58.046875 20.691406 58.320312 20.691406 C 58.648438 20.691406 59.03125 20.308594 59.199219 19.816406 L 59.527344 18.9375 L 60.351562 19.265625 L 61.230469 19.597656 L 62.4375 18.882812 C 63.09375 18.554688 64.082031 17.898438 64.578125 17.460938 L 65.507812 16.691406 L 66.605469 17.019531 L 67.707031 17.296875 L 68.308594 16.582031 L 68.914062 15.871094 L 70.667969 15.542969 C 71.65625 15.324219 73.027344 15.160156 73.796875 15.160156 L 75.167969 15.105469 L 75.554688 14.5 L 75.9375 13.84375 L 78.132812 13.84375 L 80.273438 13.789062 L 81.097656 13.078125 L 81.976562 12.417969 L 84.335938 12.640625 L 86.695312 12.859375 L 89.878906 12.199219 L 93.007812 11.597656 L 93.28125 11.871094 C 93.832031 12.363281 95.972656 12.527344 101.128906 12.472656 L 106.289062 12.417969 L 107.167969 13.1875 L 108.101562 14.007812 L 110.023438 14.007812 C 111.066406 13.953125 112.382812 14.171875 112.875 14.390625 C 113.425781 14.609375 114.523438 14.828125 115.34375 14.828125 L 116.882812 14.941406 L 117.652344 15.652344 L 118.417969 16.417969 L 120.394531 15.871094 L 121.054688 16.636719 L 121.65625 17.40625 L 123.578125 17.40625 L 128.628906 19.871094 C 131.371094 21.238281 134.007812 22.335938 134.445312 22.335938 C 134.828125 22.335938 135.324219 22.554688 135.542969 22.828125 C 135.707031 23.15625 137.628906 24.527344 139.824219 25.949219 C 141.964844 27.375 144.378906 29.128906 145.148438 29.785156 C 145.917969 30.441406 148.003906 32.359375 149.8125 33.949219 C 163.097656 45.835938 171.824219 62.273438 175.0625 81.609375 L 175.390625 83.636719 L 174.128906 84.734375 C 172.644531 86.15625 171.933594 86.15625 170.835938 84.953125 L 169.957031 83.964844 L 169.296875 80.679688 C 167.265625 70.050781 163.261719 60.082031 157.332031 50.820312 L 155.410156 47.808594 L 147.78125 40.25 C 143.613281 36.140625 139.933594 32.742188 139.660156 32.742188 C 139.386719 32.742188 138.835938 32.414062 138.453125 32.085938 C 137.136719 30.773438 133.292969 28.359375 132.632812 28.359375 L 131.976562 28.359375 L 131.976562 27.265625 L 129.78125 27.265625 L 129.78125 26.828125 C 129.78125 26.390625 127.421875 25.292969 125.226562 24.746094 L 123.632812 24.363281 L 123.359375 23.648438 L 123.085938 22.882812 L 120.503906 22.882812 L 119.847656 21.789062 L 117.210938 21.789062 L 116.882812 21.238281 L 116.554688 20.691406 L 113.425781 20.691406 L 111.941406 19.925781 L 110.460938 19.15625 L 108.59375 19.433594 L 106.730469 19.761719 L 106.070312 19.15625 L 105.355469 18.609375 L 97.125 18.5 C 92.566406 18.5 87.738281 18.390625 86.257812 18.28125 L 83.675781 18.117188 L 83.074219 18.882812 L 82.46875 19.597656 L 77.035156 19.597656 L 74.402344 21.347656 L 73.851562 20.964844 L 73.304688 20.636719 L 71.984375 21.511719 L 70.667969 22.335938 L 70.339844 21.953125 L 69.957031 21.625 L 66.277344 23.375 C 62.65625 25.128906 61.613281 25.621094 59.691406 26.664062 C 59.144531 26.9375 57.824219 27.59375 56.78125 28.085938 C 55.738281 28.582031 54.148438 29.457031 53.214844 30.003906 C 52.335938 30.605469 51.183594 31.265625 50.746094 31.429688 C 49.429688 32.03125 44.105469 36.578125 41.523438 39.261719 C 36.144531 44.90625 34.9375 46.386719 31.589844 51.261719 L 28.132812 56.355469 L 25.773438 61.394531 C 22.808594 67.640625 21.382812 71.96875 20.007812 78.925781 L 18.910156 84.347656 L 18.910156 93.441406 L 22.316406 96.292969 L 35.101562 96.292969 L 37.410156 95.25 L 39.714844 94.210938 L 40.589844 92.457031 L 41.46875 90.757812 L 42.511719 85.335938 L 43.554688 79.964844 L 44.984375 77.226562 L 46.410156 74.488281 L 48.714844 73.613281 C 50.03125 73.117188 51.347656 72.734375 51.679688 72.734375 L 52.28125 72.734375 L 52.613281 71.914062 L 52.886719 71.09375 L 54.699219 71.421875 C 59.253906 72.242188 63.203125 73.777344 64.578125 75.308594 C 65.125 75.859375 66.003906 77.445312 66.609375 78.761719 L 67.761719 81.226562 L 67.761719 86.320312 L 66.609375 92.839844 C 66.003906 96.402344 65.125 101.277344 64.742188 103.6875 C 64.300781 106.097656 63.09375 112.945312 62.050781 118.917969 C 60.953125 124.886719 60.074219 130.585938 60.074219 131.515625 L 60.074219 133.269531 L 61.0625 135.1875 L 62.105469 137.105469 L 64.191406 138.089844 L 66.277344 139.132812 L 68.089844 138.804688 L 69.84375 138.417969 L 71.765625 136.339844 L 73.6875 134.203125 L 74.015625 132.667969 C 74.292969 131.1875 79.890625 99.851562 83.730469 78.214844 C 84.609375 73.226562 86.367188 63.09375 87.738281 55.699219 L 90.152344 42.167969 L 91.414062 39.921875 L 92.625 37.675781 L 94.761719 36.304688 L 96.847656 34.933594 L 98.660156 34.933594 L 100.636719 33.183594 L 103.65625 33.183594 L 104.09375 34.386719 L 106.671875 34.386719 L 109.253906 36.195312 L 111.777344 37.949219 L 113.09375 40.523438 L 114.414062 43.097656 L 114.414062 48.90625 L 112.820312 57.835938 L 111.175781 66.765625 L 110.515625 67.585938 L 109.910156 68.351562 L 107.496094 68.351562 L 106.839844 67.695312 L 106.179688 67.039062 L 106.179688 65.339844 C 106.179688 64.355469 106.785156 60.300781 107.550781 56.246094 L 108.925781 48.90625 L 108.925781 43.644531 L 107.167969 42.003906 C 106.179688 41.070312 104.753906 40.085938 103.984375 39.8125 L 102.667969 39.261719 L 100.582031 39.589844 L 98.550781 39.976562 L 96.847656 41.835938 C 95.972656 42.878906 95.203125 43.917969 95.203125 44.140625 C 95.203125 44.359375 94.214844 49.945312 93.007812 56.574219 C 91.855469 63.203125 88.289062 83.417969 85.105469 101.496094 L 79.285156 134.367188 L 77.859375 137.269531 L 76.378906 140.117188 L 74.238281 141.871094 L 72.042969 143.570312 L 70.886719 143.734375 C 66.386719 144.28125 65.070312 144.335938 63.480469 144.117188 Z M 63.480469 144.117188 " fill-opacity="1" fill-rule="nonzero"/><g fill="#b1d0fd" fill-opacity="1"><g transform="translate(185.469601, 134.515697)"><g><path d="M 24.046875 -25.6875 L 49.421875 -25.6875 L 42.953125 -57.84375 Z M 62.375 0 L 54.5625 0 L 50.765625 -19.015625 L 20.03125 -19.015625 L 8.84375 0 L 1.03125 0 L 46.234375 -74.703125 Z M 62.375 0 "/></g></g></g><g fill="#b1d0fd" fill-opacity="1"><g transform="translate(248.861564, 134.515697)"><g><path d="M 55.59375 -28.96875 L 47.78125 -28.96875 C 47.03125 -31.914062 45.554688 -34.25 43.359375 -35.96875 C 41.023438 -37.75 38.5625 -38.640625 35.96875 -38.640625 C 34.664062 -38.640625 33.410156 -38.519531 32.203125 -38.28125 C 31.003906 -38.039062 29.894531 -37.710938 28.875 -37.296875 C 26.820312 -36.472656 24.9375 -35.3125 23.21875 -33.8125 C 19.519531 -30.582031 17.257812 -26.847656 16.4375 -22.609375 C 15.613281 -18.085938 16.398438 -14.285156 18.796875 -11.203125 C 21.265625 -8.046875 24.65625 -6.46875 28.96875 -6.46875 C 31.851562 -6.46875 34.664062 -7.222656 37.40625 -8.734375 C 40.207031 -10.304688 42.5 -12.328125 44.28125 -14.796875 L 52.40625 -14.796875 C 48.425781 -7.671875 42.566406 -2.804688 34.828125 -0.203125 C 32.503906 0.617188 29.867188 1.03125 26.921875 1.03125 C 24.109375 1.03125 21.398438 0.410156 18.796875 -0.828125 C 16.203125 -2.054688 14.082031 -3.765625 12.4375 -5.953125 C 8.9375 -10.679688 7.804688 -16.234375 9.046875 -22.609375 C 10.273438 -28.972656 13.5625 -34.484375 18.90625 -39.140625 C 24.382812 -43.804688 30.3125 -46.140625 36.6875 -46.140625 C 41.882812 -46.140625 46.265625 -44.53125 49.828125 -41.3125 C 53.253906 -38.226562 55.175781 -34.113281 55.59375 -28.96875 Z M 55.59375 -28.96875 "/></g></g></g><g fill="#b1d0fd" fill-opacity="1"><g transform="translate(302.390278, 134.515697)"><g><path d="M 48.09375 -22.609375 C 48.90625 -26.992188 48.113281 -30.828125 45.71875 -34.109375 C 43.257812 -37.398438 39.800781 -39.046875 35.34375 -39.046875 C 30.820312 -39.046875 26.710938 -37.398438 23.015625 -34.109375 C 19.316406 -30.828125 17.054688 -26.992188 16.234375 -22.609375 C 15.410156 -18.148438 16.164062 -14.3125 18.5 -11.09375 C 20.957031 -7.8125 24.445312 -6.171875 28.96875 -6.171875 C 33.425781 -6.171875 37.503906 -7.8125 41.203125 -11.09375 C 44.972656 -14.445312 47.269531 -18.285156 48.09375 -22.609375 Z M 50.859375 0 L 43.671875 0 L 45.203125 -7.703125 C 44.929688 -7.429688 44.660156 -7.175781 44.390625 -6.9375 C 44.117188 -6.695312 43.84375 -6.441406 43.5625 -6.171875 C 38.351562 -1.367188 32.632812 1.03125 26.40625 1.03125 C 20.101562 1.03125 15.304688 -1.367188 12.015625 -6.171875 C 8.796875 -10.753906 7.804688 -16.234375 9.046875 -22.609375 C 10.273438 -28.972656 13.390625 -34.453125 18.390625 -39.046875 C 23.597656 -43.835938 29.316406 -46.234375 35.546875 -46.234375 C 41.847656 -46.234375 46.644531 -43.835938 49.9375 -39.046875 C 50.070312 -38.773438 50.242188 -38.519531 50.453125 -38.28125 C 50.660156 -38.039062 50.832031 -37.78125 50.96875 -37.5 L 52.5 -45.203125 L 59.703125 -45.203125 Z M 50.859375 0 "/></g></g></g><g fill="#b1d0fd" fill-opacity="1"><g transform="translate(360.953353, 134.515697)"><g><path d="M 48.09375 -22.609375 C 48.90625 -26.992188 48.113281 -30.828125 45.71875 -34.109375 C 43.257812 -37.398438 39.800781 -39.046875 35.34375 -39.046875 C 30.820312 -39.046875 26.710938 -37.398438 23.015625 -34.109375 C 19.316406 -30.828125 17.054688 -26.992188 16.234375 -22.609375 C 15.410156 -18.148438 16.164062 -14.3125 18.5 -11.09375 C 20.957031 -7.8125 24.445312 -6.171875 28.96875 -6.171875 C 33.425781 -6.171875 37.503906 -7.8125 41.203125 -11.09375 C 44.972656 -14.445312 47.269531 -18.285156 48.09375 -22.609375 Z M 50.859375 0 L 43.671875 0 L 45.203125 -7.703125 C 44.929688 -7.429688 44.660156 -7.175781 44.390625 -6.9375 C 44.117188 -6.695312 43.84375 -6.441406 43.5625 -6.171875 C 38.351562 -1.367188 32.632812 1.03125 26.40625 1.03125 C 20.101562 1.03125 15.304688 -1.367188 12.015625 -6.171875 C 8.796875 -10.753906 7.804688 -16.234375 9.046875 -22.609375 C 10.273438 -28.972656 13.390625 -34.453125 18.390625 -39.046875 C 23.597656 -43.835938 29.316406 -46.234375 35.546875 -46.234375 C 41.847656 -46.234375 46.644531 -43.835938 49.9375 -39.046875 C 50.070312 -38.773438 50.242188 -38.519531 50.453125 -38.28125 C 50.660156 -38.039062 50.832031 -37.78125 50.96875 -37.5 L 58.671875 -77.0625 L 65.859375 -77.0625 Z M 50.859375 0 "/></g></g></g><g fill="#b1d0fd" fill-opacity="1"><g transform="translate(419.51644, 134.515697)"><g><path d="M 26.8125 -60.828125 C 27.5 -59.941406 27.738281 -58.847656 27.53125 -57.546875 C 27.332031 -56.441406 26.679688 -55.378906 25.578125 -54.359375 C 24.617188 -53.460938 23.457031 -53.015625 22.09375 -53.015625 C 20.789062 -53.015625 19.796875 -53.460938 19.109375 -54.359375 C 18.421875 -55.242188 18.179688 -56.304688 18.390625 -57.546875 C 18.597656 -58.773438 19.25 -59.867188 20.34375 -60.828125 C 21.300781 -61.710938 22.46875 -62.15625 23.84375 -62.15625 C 25.144531 -62.15625 26.132812 -61.710938 26.8125 -60.828125 Z M 15.40625 0 L 8.21875 0 L 17.0625 -45.203125 L 24.25 -45.203125 Z M 15.40625 0 "/></g></g></g><g fill="#b1d0fd" fill-opacity="1"><g transform="translate(443.044411, 134.515697)"><g><path d="M 45.625 -70.390625 L 39.453125 -70.390625 C 36.984375 -70.390625 35.304688 -69.835938 34.421875 -68.734375 C 33.390625 -67.503906 32.738281 -66.171875 32.46875 -64.734375 L 28.765625 -45.203125 L 40.796875 -45.203125 L 39.453125 -38.53125 L 27.4375 -38.53125 L 19.9375 0 L 12.734375 0 L 20.234375 -38.53125 L 11.09375 -38.53125 L 12.4375 -45.203125 L 21.578125 -45.203125 L 24.96875 -62.671875 C 25.445312 -65.003906 26.113281 -67.0625 26.96875 -68.84375 C 27.820312 -70.625 28.898438 -72.128906 30.203125 -73.359375 C 32.878906 -75.828125 36.75 -77.0625 41.8125 -77.0625 L 46.953125 -77.0625 Z M 45.625 -70.390625 "/></g></g></g><g fill="#b1d0fd" fill-opacity="1"><g transform="translate(478.079527, 134.515697)"><g><path d="M 8.421875 25.6875 L -0.3125 25.6875 L 21.375 -7.390625 L 9.859375 -45.203125 L 18.078125 -45.203125 L 26.609375 -14.90625 L 45.515625 -45.203125 L 53.53125 -45.203125 Z M 8.421875 25.6875 "/></g></g></g><g fill="#0d6efe" fill-opacity="1"><g transform="translate(191.752224, 128.448636)"><g><path d="M 24.046875 -25.6875 L 49.421875 -25.6875 L 42.953125 -57.84375 Z M 62.375 0 L 54.5625 0 L 50.765625 -19.015625 L 20.03125 -19.015625 L 8.84375 0 L 1.03125 0 L 46.234375 -74.703125 Z M 62.375 0 "/></g></g></g><g fill="#0d6efe" fill-opacity="1"><g transform="translate(255.144187, 128.448636)"><g><path d="M 55.59375 -28.96875 L 47.78125 -28.96875 C 47.03125 -31.914062 45.554688 -34.25 43.359375 -35.96875 C 41.023438 -37.75 38.5625 -38.640625 35.96875 -38.640625 C 34.664062 -38.640625 33.410156 -38.519531 32.203125 -38.28125 C 31.003906 -38.039062 29.894531 -37.710938 28.875 -37.296875 C 26.820312 -36.472656 24.9375 -35.3125 23.21875 -33.8125 C 19.519531 -30.582031 17.257812 -26.847656 16.4375 -22.609375 C 15.613281 -18.085938 16.398438 -14.285156 18.796875 -11.203125 C 21.265625 -8.046875 24.65625 -6.46875 28.96875 -6.46875 C 31.851562 -6.46875 34.664062 -7.222656 37.40625 -8.734375 C 40.207031 -10.304688 42.5 -12.328125 44.28125 -14.796875 L 52.40625 -14.796875 C 48.425781 -7.671875 42.566406 -2.804688 34.828125 -0.203125 C 32.503906 0.617188 29.867188 1.03125 26.921875 1.03125 C 24.109375 1.03125 21.398438 0.410156 18.796875 -0.828125 C 16.203125 -2.054688 14.082031 -3.765625 12.4375 -5.953125 C 8.9375 -10.679688 7.804688 -16.234375 9.046875 -22.609375 C 10.273438 -28.972656 13.5625 -34.484375 18.90625 -39.140625 C 24.382812 -43.804688 30.3125 -46.140625 36.6875 -46.140625 C 41.882812 -46.140625 46.265625 -44.53125 49.828125 -41.3125 C 53.253906 -38.226562 55.175781 -34.113281 55.59375 -28.96875 Z M 55.59375 -28.96875 "/></g></g></g><g fill="#0d6efe" fill-opacity="1"><g transform="translate(308.672901, 128.448636)"><g><path d="M 48.09375 -22.609375 C 48.90625 -26.992188 48.113281 -30.828125 45.71875 -34.109375 C 43.257812 -37.398438 39.800781 -39.046875 35.34375 -39.046875 C 30.820312 -39.046875 26.710938 -37.398438 23.015625 -34.109375 C 19.316406 -30.828125 17.054688 -26.992188 16.234375 -22.609375 C 15.410156 -18.148438 16.164062 -14.3125 18.5 -11.09375 C 20.957031 -7.8125 24.445312 -6.171875 28.96875 -6.171875 C 33.425781 -6.171875 37.503906 -7.8125 41.203125 -11.09375 C 44.972656 -14.445312 47.269531 -18.285156 48.09375 -22.609375 Z M 50.859375 0 L 43.671875 0 L 45.203125 -7.703125 C 44.929688 -7.429688 44.660156 -7.175781 44.390625 -6.9375 C 44.117188 -6.695312 43.84375 -6.441406 43.5625 -6.171875 C 38.351562 -1.367188 32.632812 1.03125 26.40625 1.03125 C 20.101562 1.03125 15.304688 -1.367188 12.015625 -6.171875 C 8.796875 -10.753906 7.804688 -16.234375 9.046875 -22.609375 C 10.273438 -28.972656 13.390625 -34.453125 18.390625 -39.046875 C 23.597656 -43.835938 29.316406 -46.234375 35.546875 -46.234375 C 41.847656 -46.234375 46.644531 -43.835938 49.9375 -39.046875 C 50.070312 -38.773438 50.242188 -38.519531 50.453125 -38.28125 C 50.660156 -38.039062 50.832031 -37.78125 50.96875 -37.5 L 52.5 -45.203125 L 59.703125 -45.203125 Z M 50.859375 0 "/></g></g></g><g fill="#0d6efe" fill-opacity="1"><g transform="translate(367.235976, 128.448636)"><g><path d="M 48.09375 -22.609375 C 48.90625 -26.992188 48.113281 -30.828125 45.71875 -34.109375 C 43.257812 -37.398438 39.800781 -39.046875 35.34375 -39.046875 C 30.820312 -39.046875 26.710938 -37.398438 23.015625 -34.109375 C 19.316406 -30.828125 17.054688 -26.992188 16.234375 -22.609375 C 15.410156 -18.148438 16.164062 -14.3125 18.5 -11.09375 C 20.957031 -7.8125 24.445312 -6.171875 28.96875 -6.171875 C 33.425781 -6.171875 37.503906 -7.8125 41.203125 -11.09375 C 44.972656 -14.445312 47.269531 -18.285156 48.09375 -22.609375 Z M 50.859375 0 L 43.671875 0 L 45.203125 -7.703125 C 44.929688 -7.429688 44.660156 -7.175781 44.390625 -6.9375 C 44.117188 -6.695312 43.84375 -6.441406 43.5625 -6.171875 C 38.351562 -1.367188 32.632812 1.03125 26.40625 1.03125 C 20.101562 1.03125 15.304688 -1.367188 12.015625 -6.171875 C 8.796875 -10.753906 7.804688 -16.234375 9.046875 -22.609375 C 10.273438 -28.972656 13.390625 -34.453125 18.390625 -39.046875 C 23.597656 -43.835938 29.316406 -46.234375 35.546875 -46.234375 C 41.847656 -46.234375 46.644531 -43.835938 49.9375 -39.046875 C 50.070312 -38.773438 50.242188 -38.519531 50.453125 -38.28125 C 50.660156 -38.039062 50.832031 -37.78125 50.96875 -37.5 L 58.671875 -77.0625 L 65.859375 -77.0625 Z M 50.859375 0 "/></g></g></g><g fill="#0d6efe" fill-opacity="1"><g transform="translate(425.799063, 128.448636)"><g><path d="M 26.8125 -60.828125 C 27.5 -59.941406 27.738281 -58.847656 27.53125 -57.546875 C 27.332031 -56.441406 26.679688 -55.378906 25.578125 -54.359375 C 24.617188 -53.460938 23.457031 -53.015625 22.09375 -53.015625 C 20.789062 -53.015625 19.796875 -53.460938 19.109375 -54.359375 C 18.421875 -55.242188 18.179688 -56.304688 18.390625 -57.546875 C 18.597656 -58.773438 19.25 -59.867188 20.34375 -60.828125 C 21.300781 -61.710938 22.46875 -62.15625 23.84375 -62.15625 C 25.144531 -62.15625 26.132812 -61.710938 26.8125 -60.828125 Z M 15.40625 0 L 8.21875 0 L 17.0625 -45.203125 L 24.25 -45.203125 Z M 15.40625 0 "/></g></g></g><g fill="#0d6efe" fill-opacity="1"><g transform="translate(449.327034, 128.448636)"><g><path d="M 45.625 -70.390625 L 39.453125 -70.390625 C 36.984375 -70.390625 35.304688 -69.835938 34.421875 -68.734375 C 33.390625 -67.503906 32.738281 -66.171875 32.46875 -64.734375 L 28.765625 -45.203125 L 40.796875 -45.203125 L 39.453125 -38.53125 L 27.4375 -38.53125 L 19.9375 0 L 12.734375 0 L 20.234375 -38.53125 L 11.09375 -38.53125 L 12.4375 -45.203125 L 21.578125 -45.203125 L 24.96875 -62.671875 C 25.445312 -65.003906 26.113281 -67.0625 26.96875 -68.84375 C 27.820312 -70.625 28.898438 -72.128906 30.203125 -73.359375 C 32.878906 -75.828125 36.75 -77.0625 41.8125 -77.0625 L 46.953125 -77.0625 Z M 45.625 -70.390625 "/></g></g></g><g fill="#0d6efe" fill-opacity="1"><g transform="translate(484.36215, 128.448636)"><g><path d="M 8.421875 25.6875 L -0.3125 25.6875 L 21.375 -7.390625 L 9.859375 -45.203125 L 18.078125 -45.203125 L 26.609375 -14.90625 L 45.515625 -45.203125 L 53.53125 -45.203125 Z M 8.421875 25.6875 "/></g></g></g></svg>