<svg xmlns="http://www.w3.org/2000/svg" xmlns:xlink="http://www.w3.org/1999/xlink" width="1080" zoomAndPan="magnify" viewBox="0 0 810 809.999993" height="1080" preserveAspectRatio="xMidYMid meet" version="1.0"><defs><g/></defs><g fill="#a5f3fc" fill-opacity="0.6588"><g transform="translate(438.693275, 380.74081)"><g><path d="M 4.046875 -5.46875 L 9.453125 -5.46875 L 6.765625 -12.328125 Z M 13.28125 0 L 11.625 0 L 10.03125 -4.046875 L 3.484375 -4.046875 L 1.875 0 L 0.21875 0 L 6.765625 -15.921875 Z M 13.28125 0 "/></g></g></g><g fill="#a5f3fc" fill-opacity="0.6588"><g transform="translate(452.192587, 380.74081)"><g><path d="M 10.640625 -6.171875 L 8.96875 -6.171875 C 8.707031 -6.785156 8.300781 -7.28125 7.75 -7.65625 C 7.195312 -8.039062 6.632812 -8.234375 6.0625 -8.234375 C 5.488281 -8.234375 5 -8.144531 4.59375 -7.96875 C 4.1875 -7.78125 3.835938 -7.53125 3.546875 -7.21875 C 2.890625 -6.53125 2.5625 -5.726562 2.5625 -4.8125 C 2.5625 -3.882812 2.890625 -3.082031 3.546875 -2.40625 C 4.191406 -1.71875 4.976562 -1.375 5.90625 -1.375 C 6.519531 -1.375 7.09375 -1.535156 7.625 -1.859375 C 8.132812 -2.179688 8.535156 -2.613281 8.828125 -3.15625 L 10.546875 -3.15625 C 10.003906 -1.601562 8.960938 -0.566406 7.421875 -0.046875 C 6.941406 0.128906 6.394531 0.21875 5.78125 0.21875 C 5.164062 0.21875 4.5625 0.078125 3.96875 -0.203125 C 3.363281 -0.460938 2.84375 -0.828125 2.40625 -1.296875 C 1.457031 -2.285156 0.984375 -3.457031 0.984375 -4.8125 C 0.984375 -6.1875 1.457031 -7.363281 2.40625 -8.34375 C 3.375 -9.332031 4.539062 -9.828125 5.90625 -9.828125 C 7.019531 -9.828125 8.019531 -9.484375 8.90625 -8.796875 C 9.75 -8.140625 10.328125 -7.265625 10.640625 -6.171875 Z M 10.640625 -6.171875 "/></g></g></g><g fill="#a5f3fc" fill-opacity="0.6588"><g transform="translate(463.59152, 380.74081)"><g><path d="M 9.296875 -4.8125 C 9.296875 -5.75 8.976562 -6.566406 8.34375 -7.265625 C 7.6875 -7.960938 6.875 -8.3125 5.90625 -8.3125 C 4.945312 -8.3125 4.144531 -7.960938 3.5 -7.265625 C 2.84375 -6.566406 2.515625 -5.75 2.515625 -4.8125 C 2.515625 -3.882812 2.84375 -3.066406 3.5 -2.359375 C 4.144531 -1.660156 4.945312 -1.3125 5.90625 -1.3125 C 6.875 -1.3125 7.6875 -1.660156 8.34375 -2.359375 C 8.976562 -3.066406 9.296875 -3.882812 9.296875 -4.8125 Z M 10.828125 0 L 9.296875 0 L 9.296875 -1.640625 C 9.210938 -1.523438 9.128906 -1.414062 9.046875 -1.3125 C 8.117188 -0.289062 6.992188 0.21875 5.671875 0.21875 C 4.335938 0.21875 3.222656 -0.289062 2.328125 -1.3125 C 1.429688 -2.300781 0.984375 -3.46875 0.984375 -4.8125 C 0.984375 -6.15625 1.429688 -7.320312 2.328125 -8.3125 C 3.222656 -9.332031 4.335938 -9.84375 5.671875 -9.84375 C 6.992188 -9.84375 8.117188 -9.332031 9.046875 -8.3125 C 9.128906 -8.21875 9.210938 -8.109375 9.296875 -7.984375 L 9.296875 -9.625 L 10.828125 -9.625 Z M 10.828125 0 "/></g></g></g><g fill="#a5f3fc" fill-opacity="0.6588"><g transform="translate(476.062524, 380.74081)"><g><path d="M 9.296875 -4.8125 C 9.296875 -5.75 8.976562 -6.566406 8.34375 -7.265625 C 7.6875 -7.960938 6.875 -8.3125 5.90625 -8.3125 C 4.945312 -8.3125 4.144531 -7.960938 3.5 -7.265625 C 2.84375 -6.566406 2.515625 -5.75 2.515625 -4.8125 C 2.515625 -3.882812 2.84375 -3.066406 3.5 -2.359375 C 4.144531 -1.660156 4.945312 -1.3125 5.90625 -1.3125 C 6.875 -1.3125 7.6875 -1.660156 8.34375 -2.359375 C 8.976562 -3.066406 9.296875 -3.882812 9.296875 -4.8125 Z M 10.828125 0 L 9.296875 0 L 9.296875 -1.640625 C 9.210938 -1.523438 9.128906 -1.414062 9.046875 -1.3125 C 8.117188 -0.289062 6.992188 0.21875 5.671875 0.21875 C 4.335938 0.21875 3.222656 -0.289062 2.328125 -1.3125 C 1.429688 -2.300781 0.984375 -3.46875 0.984375 -4.8125 C 0.984375 -6.15625 1.429688 -7.320312 2.328125 -8.3125 C 3.222656 -9.332031 4.335938 -9.84375 5.671875 -9.84375 C 6.992188 -9.84375 8.117188 -9.332031 9.046875 -8.3125 C 9.128906 -8.21875 9.210938 -8.109375 9.296875 -7.984375 L 9.296875 -16.421875 L 10.828125 -16.421875 Z M 10.828125 0 "/></g></g></g><g fill="#a5f3fc" fill-opacity="0.6588"><g transform="translate(488.533528, 380.74081)"><g><path d="M 3.203125 -12.953125 C 3.390625 -12.765625 3.484375 -12.539062 3.484375 -12.28125 C 3.484375 -12 3.390625 -11.765625 3.203125 -11.578125 C 3.003906 -11.390625 2.773438 -11.296875 2.515625 -11.296875 C 2.234375 -11.296875 2 -11.390625 1.8125 -11.578125 C 1.625 -11.765625 1.53125 -12 1.53125 -12.28125 C 1.53125 -12.539062 1.625 -12.765625 1.8125 -12.953125 C 2 -13.148438 2.234375 -13.25 2.515625 -13.25 C 2.773438 -13.25 3.003906 -13.148438 3.203125 -12.953125 Z M 3.28125 0 L 1.75 0 L 1.75 -9.625 L 3.28125 -9.625 Z M 3.28125 0 "/></g></g></g><g fill="#a5f3fc" fill-opacity="0.6588"><g transform="translate(493.543808, 380.74081)"><g><path d="M 6.8125 -15 L 5.5 -15 C 4.988281 -15 4.648438 -14.878906 4.484375 -14.640625 C 4.328125 -14.410156 4.25 -14.128906 4.25 -13.796875 L 4.25 -9.625 L 6.8125 -9.625 L 6.8125 -8.203125 L 4.25 -8.203125 L 4.25 0 L 2.71875 0 L 2.71875 -8.203125 L 0.765625 -8.203125 L 0.765625 -9.625 L 2.71875 -9.625 L 2.71875 -13.359375 C 2.71875 -14.328125 2.953125 -15.082031 3.421875 -15.625 C 3.867188 -16.15625 4.632812 -16.421875 5.71875 -16.421875 L 6.8125 -16.421875 Z M 6.8125 -15 "/></g></g></g><g fill="#a5f3fc" fill-opacity="0.6588"><g transform="translate(501.004531, 380.74081)"><g><path d="M 2.875 5.46875 L 1 5.46875 L 4.25 -1.578125 L 0.21875 -9.625 L 1.96875 -9.625 L 5.0625 -3.171875 L 7.8125 -9.625 L 9.515625 -9.625 Z M 2.875 5.46875 "/></g></g></g><g fill="#0ea5e9" fill-opacity="1"><g transform="translate(440.596163, 380.048204)"><g><path d="M 4.046875 -5.46875 L 9.453125 -5.46875 L 6.765625 -12.328125 Z M 13.28125 0 L 11.625 0 L 10.03125 -4.046875 L 3.484375 -4.046875 L 1.875 0 L 0.21875 0 L 6.765625 -15.921875 Z M 13.28125 0 "/></g></g></g><g fill="#0ea5e9" fill-opacity="1"><g transform="translate(454.095475, 380.048204)"><g><path d="M 10.640625 -6.171875 L 8.96875 -6.171875 C 8.707031 -6.785156 8.300781 -7.28125 7.75 -7.65625 C 7.195312 -8.039062 6.632812 -8.234375 6.0625 -8.234375 C 5.488281 -8.234375 5 -8.144531 4.59375 -7.96875 C 4.1875 -7.78125 3.835938 -7.53125 3.546875 -7.21875 C 2.890625 -6.53125 2.5625 -5.726562 2.5625 -4.8125 C 2.5625 -3.882812 2.890625 -3.082031 3.546875 -2.40625 C 4.191406 -1.71875 4.976562 -1.375 5.90625 -1.375 C 6.519531 -1.375 7.09375 -1.535156 7.625 -1.859375 C 8.132812 -2.179688 8.535156 -2.613281 8.828125 -3.15625 L 10.546875 -3.15625 C 10.003906 -1.601562 8.960938 -0.566406 7.421875 -0.046875 C 6.941406 0.128906 6.394531 0.21875 5.78125 0.21875 C 5.164062 0.21875 4.5625 0.078125 3.96875 -0.203125 C 3.363281 -0.460938 2.84375 -0.828125 2.40625 -1.296875 C 1.457031 -2.285156 0.984375 -3.457031 0.984375 -4.8125 C 0.984375 -6.1875 1.457031 -7.363281 2.40625 -8.34375 C 3.375 -9.332031 4.539062 -9.828125 5.90625 -9.828125 C 7.019531 -9.828125 8.019531 -9.484375 8.90625 -8.796875 C 9.75 -8.140625 10.328125 -7.265625 10.640625 -6.171875 Z M 10.640625 -6.171875 "/></g></g></g><g fill="#0ea5e9" fill-opacity="1"><g transform="translate(465.494408, 380.048204)"><g><path d="M 9.296875 -4.8125 C 9.296875 -5.75 8.976562 -6.566406 8.34375 -7.265625 C 7.6875 -7.960938 6.875 -8.3125 5.90625 -8.3125 C 4.945312 -8.3125 4.144531 -7.960938 3.5 -7.265625 C 2.84375 -6.566406 2.515625 -5.75 2.515625 -4.8125 C 2.515625 -3.882812 2.84375 -3.066406 3.5 -2.359375 C 4.144531 -1.660156 4.945312 -1.3125 5.90625 -1.3125 C 6.875 -1.3125 7.6875 -1.660156 8.34375 -2.359375 C 8.976562 -3.066406 9.296875 -3.882812 9.296875 -4.8125 Z M 10.828125 0 L 9.296875 0 L 9.296875 -1.640625 C 9.210938 -1.523438 9.128906 -1.414062 9.046875 -1.3125 C 8.117188 -0.289062 6.992188 0.21875 5.671875 0.21875 C 4.335938 0.21875 3.222656 -0.289062 2.328125 -1.3125 C 1.429688 -2.300781 0.984375 -3.46875 0.984375 -4.8125 C 0.984375 -6.15625 1.429688 -7.320312 2.328125 -8.3125 C 3.222656 -9.332031 4.335938 -9.84375 5.671875 -9.84375 C 6.992188 -9.84375 8.117188 -9.332031 9.046875 -8.3125 C 9.128906 -8.21875 9.210938 -8.109375 9.296875 -7.984375 L 9.296875 -9.625 L 10.828125 -9.625 Z M 10.828125 0 "/></g></g></g><g fill="#0ea5e9" fill-opacity="1"><g transform="translate(477.965412, 380.048204)"><g><path d="M 9.296875 -4.8125 C 9.296875 -5.75 8.976562 -6.566406 8.34375 -7.265625 C 7.6875 -7.960938 6.875 -8.3125 5.90625 -8.3125 C 4.945312 -8.3125 4.144531 -7.960938 3.5 -7.265625 C 2.84375 -6.566406 2.515625 -5.75 2.515625 -4.8125 C 2.515625 -3.882812 2.84375 -3.066406 3.5 -2.359375 C 4.144531 -1.660156 4.945312 -1.3125 5.90625 -1.3125 C 6.875 -1.3125 7.6875 -1.660156 8.34375 -2.359375 C 8.976562 -3.066406 9.296875 -3.882812 9.296875 -4.8125 Z M 10.828125 0 L 9.296875 0 L 9.296875 -1.640625 C 9.210938 -1.523438 9.128906 -1.414062 9.046875 -1.3125 C 8.117188 -0.289062 6.992188 0.21875 5.671875 0.21875 C 4.335938 0.21875 3.222656 -0.289062 2.328125 -1.3125 C 1.429688 -2.300781 0.984375 -3.46875 0.984375 -4.8125 C 0.984375 -6.15625 1.429688 -7.320312 2.328125 -8.3125 C 3.222656 -9.332031 4.335938 -9.84375 5.671875 -9.84375 C 6.992188 -9.84375 8.117188 -9.332031 9.046875 -8.3125 C 9.128906 -8.21875 9.210938 -8.109375 9.296875 -7.984375 L 9.296875 -16.421875 L 10.828125 -16.421875 Z M 10.828125 0 "/></g></g></g><g fill="#0ea5e9" fill-opacity="1"><g transform="translate(490.436416, 380.048204)"><g><path d="M 3.203125 -12.953125 C 3.390625 -12.765625 3.484375 -12.539062 3.484375 -12.28125 C 3.484375 -12 3.390625 -11.765625 3.203125 -11.578125 C 3.003906 -11.390625 2.773438 -11.296875 2.515625 -11.296875 C 2.234375 -11.296875 2 -11.390625 1.8125 -11.578125 C 1.625 -11.765625 1.53125 -12 1.53125 -12.28125 C 1.53125 -12.539062 1.625 -12.765625 1.8125 -12.953125 C 2 -13.148438 2.234375 -13.25 2.515625 -13.25 C 2.773438 -13.25 3.003906 -13.148438 3.203125 -12.953125 Z M 3.28125 0 L 1.75 0 L 1.75 -9.625 L 3.28125 -9.625 Z M 3.28125 0 "/></g></g></g><g fill="#0ea5e9" fill-opacity="1"><g transform="translate(495.446696, 380.048204)"><g><path d="M 6.8125 -15 L 5.5 -15 C 4.988281 -15 4.648438 -14.878906 4.484375 -14.640625 C 4.328125 -14.410156 4.25 -14.128906 4.25 -13.796875 L 4.25 -9.625 L 6.8125 -9.625 L 6.8125 -8.203125 L 4.25 -8.203125 L 4.25 0 L 2.71875 0 L 2.71875 -8.203125 L 0.765625 -8.203125 L 0.765625 -9.625 L 2.71875 -9.625 L 2.71875 -13.359375 C 2.71875 -14.328125 2.953125 -15.082031 3.421875 -15.625 C 3.867188 -16.15625 4.632812 -16.421875 5.71875 -16.421875 L 6.8125 -16.421875 Z M 6.8125 -15 "/></g></g></g><g fill="#0ea5e9" fill-opacity="1"><g transform="translate(502.907419, 380.048204)"><g><path d="M 2.875 5.46875 L 1 5.46875 L 4.25 -1.578125 L 0.21875 -9.625 L 1.96875 -9.625 L 5.0625 -3.171875 L 7.8125 -9.625 L 9.515625 -9.625 Z M 2.875 5.46875 "/></g></g></g></svg>