<svg xmlns="http://www.w3.org/2000/svg" xmlns:xlink="http://www.w3.org/1999/xlink" width="367" zoomAndPan="magnify" viewBox="0 0 275.25 89.999999" height="120" preserveAspectRatio="xMidYMid meet" version="1.0"><defs><g/><clipPath id="46df40a202"><path d="M 0 0.121094 L 274.503906 0.121094 L 274.503906 89.875 L 0 89.875 Z M 0 0.121094 " clip-rule="nonzero"/></clipPath></defs><g clip-path="url(#46df40a202)"><path fill="#ffffff" d="M 0 0.121094 L 274.503906 0.121094 L 274.503906 89.878906 L 0 89.878906 Z M 0 0.121094 " fill-opacity="1" fill-rule="nonzero"/></g><path fill="#b1d0fd" d="M 39.761719 83.25 C 39.09375 83.144531 37.621094 82.929688 36.445312 82.769531 L 34.335938 82.476562 L 33.535156 82.074219 L 32.730469 81.675781 L 32.089844 81.675781 C 31.394531 81.675781 30.378906 81.222656 30.113281 80.792969 L 29.925781 80.554688 L 28.5625 80.554688 L 28.082031 80.097656 C 27.816406 79.859375 27.414062 79.644531 27.199219 79.589844 C 26.988281 79.539062 26.746094 79.375 26.71875 79.242188 L 26.613281 79.003906 L 26.34375 79.164062 L 26.050781 79.351562 L 25.675781 78.871094 C 25.492188 78.574219 25.328125 78.441406 25.328125 78.546875 L 25.328125 78.761719 L 24.742188 78.441406 C 24.394531 78.253906 23.21875 77.53125 22.125 76.785156 L 20.117188 75.449219 L 18.703125 74.085938 C 17.925781 73.335938 17.125 72.640625 16.910156 72.507812 C 16.402344 72.242188 12.421875 67.457031 11.167969 65.640625 C 10.632812 64.839844 9.5625 62.941406 8.816406 61.472656 L 7.453125 58.773438 L 6.757812 56.582031 L 6.0625 54.417969 L 6.140625 53.855469 L 6.222656 53.269531 L 6.648438 53 L 7.078125 52.734375 L 7.773438 52.921875 L 8.46875 53.082031 L 9.136719 55.300781 L 9.804688 57.488281 L 10.84375 59.628906 C 13.4375 64.894531 18.433594 70.984375 22.070312 73.3125 C 22.683594 73.710938 23.191406 74.140625 23.191406 74.246094 L 23.191406 74.460938 L 23.699219 74.460938 C 23.992188 74.460938 24.289062 74.566406 24.367188 74.699219 C 24.449219 74.808594 25.785156 75.554688 27.335938 76.332031 L 30.140625 77.746094 L 30.140625 78.226562 L 30.378906 78.09375 L 30.621094 77.933594 L 31.503906 78.226562 C 32.011719 78.414062 32.546875 78.683594 32.707031 78.894531 L 32.972656 79.242188 L 34.84375 79.644531 C 35.859375 79.859375 37.410156 80.152344 38.316406 80.3125 L 39.921875 80.605469 L 47.722656 80.605469 L 47.882812 80.179688 L 48.046875 79.75 L 48.390625 80.019531 L 48.714844 80.3125 L 50.449219 80.070312 C 52.828125 79.75 54.085938 79.402344 54.886719 78.894531 L 55.554688 78.441406 L 55.820312 78.601562 L 56.089844 78.789062 L 56.730469 78.363281 C 57.078125 78.121094 58.011719 77.691406 58.789062 77.398438 C 59.5625 77.105469 60.445312 76.757812 60.738281 76.625 C 61.03125 76.492188 61.675781 76.222656 62.15625 76.0625 L 63.035156 75.714844 L 63.304688 75.234375 L 63.570312 74.726562 L 64.640625 74.726562 L 64.773438 74.324219 L 64.933594 73.953125 L 66.109375 73.390625 L 67.285156 72.804688 L 69.371094 70.773438 C 70.519531 69.621094 72.125 67.9375 72.925781 67.003906 L 74.367188 65.292969 L 75.652344 63.128906 C 76.34375 61.925781 77.335938 60.109375 77.84375 59.066406 L 78.75 57.167969 L 79.527344 54.523438 C 79.953125 53.054688 80.40625 51.289062 80.515625 50.570312 L 80.703125 49.234375 L 79.847656 48.484375 L 78.992188 47.761719 L 78.054688 47.574219 L 77.148438 47.414062 L 73.003906 47.523438 L 68.863281 47.65625 L 68.0625 46.695312 L 67.285156 45.730469 L 67.046875 44.851562 L 66.777344 43.96875 L 67.207031 41.722656 L 67.605469 39.476562 L 67.445312 38.808594 L 67.285156 38.167969 L 66.589844 37.339844 L 65.898438 36.511719 L 64.71875 36.511719 L 64.453125 36.246094 L 64.214844 36.003906 L 61.808594 36.699219 L 60.683594 38.785156 L 59.5625 45.011719 L 58.46875 51.238281 L 57.453125 53.214844 L 56.515625 54.121094 L 55.554688 55.03125 L 54.164062 55.324219 L 52.773438 55.644531 L 49.78125 55.113281 L 48.527344 53.855469 L 47.269531 52.601562 L 46.816406 51.078125 L 46.386719 49.527344 L 47.375 43.886719 C 48.417969 37.980469 48.554688 37.5 49.355469 37.074219 L 49.835938 36.804688 L 50.421875 37.339844 L 50.984375 37.875 L 50.984375 38.25 C 50.984375 38.460938 50.558594 41.109375 50.023438 44.15625 L 49.058594 49.660156 L 49.542969 50.730469 L 50.023438 51.824219 L 50.851562 52.304688 L 51.652344 52.8125 L 53.65625 52.8125 L 54.699219 51.878906 L 55.742188 50.917969 L 56.035156 49.660156 C 56.195312 48.964844 56.757812 46 57.265625 43.058594 L 58.226562 37.714844 L 58.894531 36.324219 L 59.5625 34.960938 L 60.152344 34.589844 C 60.847656 34.132812 63.304688 33.304688 63.945312 33.304688 C 64.1875 33.304688 65.066406 33.492188 65.898438 33.734375 L 67.417969 34.160156 L 68.542969 35.335938 L 69.636719 36.484375 L 70.277344 39.476562 L 69.90625 41.722656 L 69.503906 43.941406 L 69.933594 44.636719 L 70.359375 45.332031 L 74.902344 45.359375 C 77.386719 45.359375 79.710938 45.410156 80.058594 45.492188 L 80.675781 45.597656 L 81.582031 46.292969 L 82.492188 46.988281 L 82.945312 48.191406 L 83.402344 49.394531 L 83.105469 51.398438 L 82.785156 53.402344 L 81.796875 56.339844 L 80.835938 59.28125 L 79.660156 61.578125 L 78.457031 63.902344 L 76.480469 66.710938 L 74.5 69.542969 L 71.828125 72.160156 L 69.128906 74.808594 L 66.859375 76.492188 L 64.558594 78.175781 L 64.1875 78.015625 L 63.8125 77.878906 L 63.652344 78.308594 L 63.492188 78.734375 L 63.25 78.574219 L 63.011719 78.441406 L 63.011719 78.894531 L 62.046875 79.351562 L 61.113281 79.804688 L 60.820312 79.644531 L 60.523438 79.457031 L 60.152344 79.9375 C 59.964844 80.230469 59.804688 80.367188 59.804688 80.285156 C 59.804688 80.179688 59.484375 80.257812 59.109375 80.472656 L 58.414062 80.820312 L 57.664062 80.554688 L 57.503906 81.007812 L 57.316406 81.433594 L 56.703125 81.300781 L 56.089844 81.140625 L 55.820312 81.59375 C 55.660156 81.863281 55.527344 81.996094 55.527344 81.863281 L 55.527344 81.675781 L 54.859375 82.101562 L 54.164062 82.558594 L 53.84375 82.238281 L 53.390625 82.476562 C 53.148438 82.609375 51.945312 82.851562 50.691406 83.011719 L 48.445312 83.304688 L 44.703125 83.359375 L 40.964844 83.414062 Z M 39.761719 83.25 " fill-opacity="1" fill-rule="nonzero"/><path fill="#b1d0fd" d="M 29.125 68.660156 L 28.214844 68.554688 L 26.773438 67.058594 L 25.328125 65.5625 L 25.0625 64.597656 C 24.636719 63.074219 24.742188 61.953125 25.730469 56.339844 C 26.265625 53.453125 27.148438 48.457031 27.707031 45.222656 L 28.75 39.398438 L 28.484375 38.542969 L 28.214844 37.714844 L 27.574219 37.125 L 26.933594 36.539062 L 25.972656 36.351562 L 25.007812 36.164062 L 23.941406 36.539062 L 22.898438 36.886719 L 22.390625 37.5 L 21.910156 38.140625 L 21.589844 40.066406 C 21.429688 41.109375 21.109375 42.605469 20.921875 43.351562 L 20.519531 44.714844 L 19.609375 45.867188 C 19.101562 46.507812 18.460938 47.148438 18.167969 47.308594 L 17.605469 47.601562 L 12.367188 47.574219 L 7.132812 47.550781 L 4.992188 45.199219 L 4.832031 44.554688 L 4.671875 43.914062 L 4.859375 40.679688 L 5.019531 37.449219 L 5.582031 35.175781 C 6.675781 30.527344 8.492188 26.195312 10.710938 22.855469 C 13.890625 18.125 14.480469 17.378906 17.3125 14.679688 L 19.050781 13.023438 L 19.371094 12.996094 C 19.53125 12.996094 19.851562 12.78125 20.039062 12.488281 L 20.386719 12.007812 L 21 11.820312 L 21.589844 11.632812 L 21.589844 11.152344 L 22.792969 10.617188 C 23.433594 10.324219 24.5 9.734375 25.167969 9.28125 C 25.835938 8.828125 26.480469 8.453125 26.613281 8.453125 C 26.773438 8.453125 26.960938 8.265625 27.039062 8.023438 L 27.199219 7.597656 L 27.601562 7.757812 L 28.027344 7.917969 L 28.617188 7.570312 C 28.9375 7.410156 29.417969 7.089844 29.660156 6.875 L 30.113281 6.5 L 30.648438 6.660156 L 31.183594 6.796875 L 31.769531 6.101562 L 32.625 5.941406 C 33.105469 5.832031 33.773438 5.753906 34.148438 5.753906 L 34.816406 5.726562 L 35.003906 5.433594 L 35.191406 5.113281 L 36.261719 5.113281 L 37.300781 5.085938 L 37.703125 4.738281 L 38.128906 4.417969 L 39.28125 4.523438 L 40.429688 4.628906 L 41.980469 4.308594 L 43.503906 4.015625 L 43.636719 4.148438 C 43.902344 4.390625 44.945312 4.46875 47.457031 4.445312 L 49.96875 4.417969 L 50.398438 4.789062 L 50.851562 5.191406 L 51.785156 5.191406 C 52.292969 5.164062 52.933594 5.273438 53.175781 5.378906 C 53.441406 5.484375 53.976562 5.59375 54.378906 5.59375 L 55.125 5.644531 L 55.5 5.992188 L 55.875 6.367188 L 56.835938 6.101562 L 57.15625 6.472656 L 57.453125 6.847656 L 58.386719 6.847656 L 60.847656 8.050781 C 62.183594 8.71875 63.464844 9.253906 63.679688 9.253906 C 63.867188 9.253906 64.105469 9.359375 64.214844 9.496094 C 64.292969 9.65625 65.226562 10.324219 66.296875 11.019531 C 67.339844 11.710938 68.515625 12.566406 68.890625 12.886719 C 69.265625 13.207031 70.277344 14.144531 71.160156 14.917969 C 77.628906 20.71875 81.878906 28.734375 83.453125 38.167969 L 83.613281 39.15625 L 83 39.691406 C 82.277344 40.386719 81.929688 40.386719 81.394531 39.800781 L 80.96875 39.316406 L 80.648438 37.714844 C 79.660156 32.53125 77.707031 27.667969 74.824219 23.148438 L 73.886719 21.679688 L 70.171875 17.992188 C 68.140625 15.988281 66.351562 14.332031 66.21875 14.332031 C 66.082031 14.332031 65.816406 14.171875 65.628906 14.011719 C 64.988281 13.371094 63.117188 12.195312 62.796875 12.195312 L 62.476562 12.195312 L 62.476562 11.660156 L 61.40625 11.660156 L 61.40625 11.445312 C 61.40625 11.230469 60.257812 10.695312 59.1875 10.429688 L 58.414062 10.242188 L 58.28125 9.894531 L 58.148438 9.519531 L 56.890625 9.519531 L 56.570312 8.988281 L 55.289062 8.988281 L 55.125 8.71875 L 54.964844 8.453125 L 53.441406 8.453125 L 52.722656 8.078125 L 52 7.703125 L 51.089844 7.835938 L 50.183594 7.996094 L 49.863281 7.703125 L 49.515625 7.4375 L 45.507812 7.382812 C 43.289062 7.382812 40.9375 7.328125 40.214844 7.277344 L 38.960938 7.195312 L 38.664062 7.570312 L 38.371094 7.917969 L 35.726562 7.917969 L 35.085938 8.34375 L 34.441406 8.773438 L 34.175781 8.585938 L 33.910156 8.425781 L 33.265625 8.851562 L 32.625 9.253906 L 32.464844 9.066406 L 32.277344 8.90625 L 30.488281 9.761719 C 28.722656 10.617188 28.214844 10.855469 27.28125 11.363281 C 27.011719 11.5 26.371094 11.820312 25.863281 12.058594 C 25.355469 12.300781 24.582031 12.726562 24.128906 12.996094 C 23.699219 13.289062 23.136719 13.609375 22.925781 13.691406 C 22.285156 13.984375 19.691406 16.203125 18.433594 17.511719 C 15.816406 20.265625 15.226562 20.984375 13.597656 23.363281 L 11.914062 25.847656 L 10.765625 28.308594 C 9.324219 31.355469 8.628906 33.464844 7.960938 36.859375 L 7.425781 39.503906 L 7.425781 43.941406 L 9.082031 45.332031 L 15.308594 45.332031 L 16.429688 44.824219 L 17.554688 44.316406 L 17.980469 43.460938 L 18.410156 42.632812 L 18.917969 39.984375 L 19.425781 37.367188 L 20.117188 36.03125 L 20.8125 34.695312 L 21.9375 34.265625 C 22.578125 34.027344 23.21875 33.839844 23.378906 33.839844 L 23.671875 33.839844 L 23.832031 33.4375 L 23.96875 33.039062 L 24.847656 33.199219 C 27.066406 33.597656 28.992188 34.347656 29.660156 35.09375 C 29.925781 35.363281 30.355469 36.136719 30.648438 36.777344 L 31.210938 37.980469 L 31.210938 40.46875 L 30.648438 43.648438 C 30.355469 45.382812 29.925781 47.761719 29.738281 48.9375 C 29.527344 50.113281 28.9375 53.453125 28.429688 56.367188 C 27.894531 59.28125 27.46875 62.058594 27.46875 62.515625 L 27.46875 63.371094 L 27.949219 64.304688 L 28.457031 65.238281 L 29.472656 65.722656 L 30.488281 66.230469 L 31.371094 66.070312 L 32.226562 65.882812 L 33.160156 64.867188 L 34.09375 63.824219 L 34.253906 63.074219 C 34.390625 62.355469 37.113281 47.066406 38.984375 36.511719 C 39.414062 34.082031 40.269531 29.136719 40.9375 25.527344 L 42.113281 18.929688 L 42.726562 17.832031 L 43.316406 16.738281 L 44.355469 16.070312 L 45.371094 15.398438 L 46.253906 15.398438 L 47.214844 14.546875 L 48.6875 14.546875 L 48.898438 15.132812 L 50.15625 15.132812 L 51.414062 16.015625 L 52.640625 16.871094 L 53.28125 18.125 L 53.925781 19.382812 L 53.925781 22.214844 L 53.148438 26.570312 L 52.347656 30.925781 L 52.027344 31.328125 L 51.734375 31.703125 L 50.558594 31.703125 L 49.914062 31.058594 L 49.914062 30.230469 C 49.914062 29.75 50.210938 27.773438 50.582031 25.796875 L 51.25 22.214844 L 51.25 19.648438 L 50.398438 18.847656 C 49.914062 18.394531 49.222656 17.914062 48.847656 17.777344 L 48.207031 17.511719 L 47.191406 17.671875 L 46.199219 17.859375 L 45.371094 18.765625 C 44.945312 19.273438 44.570312 19.78125 44.570312 19.890625 C 44.570312 19.996094 44.089844 22.722656 43.503906 25.957031 C 42.941406 29.191406 41.203125 39.050781 39.652344 47.871094 L 36.820312 63.902344 L 36.125 65.320312 L 35.40625 66.710938 L 34.363281 67.566406 L 33.292969 68.394531 L 32.730469 68.472656 C 30.542969 68.742188 29.898438 68.769531 29.125 68.660156 Z M 29.125 68.660156 " fill-opacity="1" fill-rule="nonzero"/><path fill="#0d6efe" d="M 39.199219 80.679688 C 38.5625 80.578125 37.167969 80.375 36.046875 80.222656 L 34.042969 79.945312 L 33.277344 79.5625 L 32.515625 79.183594 L 31.90625 79.183594 C 31.246094 79.183594 30.28125 78.753906 30.027344 78.347656 L 29.847656 78.117188 L 28.554688 78.117188 L 28.097656 77.6875 C 27.84375 77.460938 27.460938 77.257812 27.257812 77.207031 C 27.054688 77.15625 26.824219 77.003906 26.800781 76.875 L 26.699219 76.648438 L 26.445312 76.800781 L 26.164062 76.976562 L 25.808594 76.519531 C 25.632812 76.242188 25.480469 76.113281 25.480469 76.214844 L 25.480469 76.417969 L 24.921875 76.113281 C 24.589844 75.9375 23.472656 75.253906 22.429688 74.542969 L 20.523438 73.273438 L 19.179688 71.980469 C 18.441406 71.273438 17.679688 70.613281 17.476562 70.484375 C 16.992188 70.230469 13.207031 65.691406 12.015625 63.96875 C 11.507812 63.207031 10.488281 61.40625 9.777344 60.011719 L 8.484375 57.449219 L 7.820312 55.371094 L 7.160156 53.316406 L 7.238281 52.785156 L 7.3125 52.226562 L 8.125 51.71875 L 8.789062 51.898438 L 9.449219 52.050781 L 10.082031 54.15625 L 10.71875 56.234375 L 11.710938 58.261719 C 14.171875 63.257812 18.925781 69.039062 22.378906 71.246094 C 22.964844 71.625 23.445312 72.03125 23.445312 72.132812 L 23.445312 72.335938 L 23.929688 72.335938 C 24.210938 72.335938 24.488281 72.4375 24.566406 72.566406 C 24.640625 72.667969 25.910156 73.375 27.386719 74.113281 L 30.050781 75.457031 L 30.050781 75.914062 L 30.28125 75.785156 L 30.511719 75.632812 L 31.347656 75.914062 C 31.832031 76.089844 32.339844 76.34375 32.492188 76.546875 L 32.746094 76.875 L 34.523438 77.257812 C 35.488281 77.460938 36.964844 77.738281 37.828125 77.890625 L 39.351562 78.167969 L 46.769531 78.167969 L 46.921875 77.761719 L 47.074219 77.359375 L 47.40625 77.609375 L 47.710938 77.890625 L 49.363281 77.660156 C 51.621094 77.359375 52.816406 77.027344 53.578125 76.546875 L 54.214844 76.113281 L 54.46875 76.265625 L 54.722656 76.445312 L 55.332031 76.039062 C 55.664062 75.8125 56.550781 75.40625 57.289062 75.125 C 58.023438 74.847656 58.863281 74.515625 59.144531 74.390625 C 59.421875 74.265625 60.03125 74.011719 60.488281 73.859375 L 61.328125 73.527344 L 61.582031 73.070312 L 61.835938 72.589844 L 62.851562 72.589844 L 62.980469 72.210938 L 63.132812 71.855469 L 64.25 71.324219 L 65.367188 70.765625 L 67.347656 68.835938 C 68.441406 67.746094 69.964844 66.148438 70.726562 65.261719 L 72.101562 63.636719 L 73.320312 61.585938 C 73.980469 60.445312 74.921875 58.71875 75.402344 57.730469 L 76.265625 55.929688 L 77.003906 53.417969 C 77.410156 52.023438 77.84375 50.351562 77.945312 49.664062 L 78.121094 48.398438 L 77.308594 47.6875 L 76.496094 47.003906 L 75.605469 46.824219 L 74.742188 46.671875 L 70.804688 46.773438 L 66.867188 46.902344 L 66.105469 45.988281 L 65.367188 45.074219 L 65.140625 44.238281 L 64.882812 43.402344 L 65.292969 41.273438 L 65.671875 39.140625 L 65.519531 38.507812 L 65.367188 37.898438 L 64.046875 36.328125 L 62.929688 36.328125 L 62.445312 35.84375 L 61.300781 36.175781 L 60.160156 36.503906 L 59.625 37.492188 L 59.09375 38.484375 L 58.023438 44.390625 L 56.984375 50.300781 L 56.5 51.238281 L 56.019531 52.175781 L 55.128906 53.039062 L 54.214844 53.902344 L 52.894531 54.179688 L 51.570312 54.484375 L 48.726562 53.976562 L 47.53125 52.785156 L 46.339844 51.59375 L 45.90625 50.148438 L 45.5 48.675781 L 46.441406 43.328125 C 47.429688 37.722656 47.558594 37.265625 48.320312 36.859375 L 48.777344 36.605469 L 49.335938 37.113281 L 49.871094 37.621094 L 49.871094 37.976562 C 49.871094 38.179688 49.464844 40.6875 48.953125 43.578125 L 48.039062 48.804688 L 48.496094 49.816406 L 48.953125 50.859375 L 49.742188 51.3125 L 50.503906 51.796875 L 52.410156 51.796875 L 53.402344 50.910156 L 54.390625 49.996094 L 54.671875 48.804688 C 54.824219 48.144531 55.355469 45.328125 55.839844 42.539062 L 56.753906 37.46875 L 57.390625 36.148438 L 58.023438 34.855469 L 58.582031 34.5 C 59.246094 34.070312 61.582031 33.285156 62.191406 33.285156 C 62.421875 33.285156 63.257812 33.460938 64.046875 33.691406 L 65.496094 34.09375 L 66.5625 35.210938 L 67.601562 36.300781 L 67.90625 37.722656 L 68.214844 39.140625 L 67.855469 41.273438 L 67.476562 43.375 L 68.289062 44.695312 L 72.609375 44.722656 C 74.972656 44.722656 77.179688 44.773438 77.511719 44.847656 L 78.097656 44.949219 L 79.824219 46.269531 L 80.253906 47.410156 L 80.6875 48.550781 L 80.40625 50.453125 L 80.101562 52.355469 L 79.164062 55.144531 L 78.25 57.933594 L 77.128906 60.113281 L 75.988281 62.320312 L 74.105469 64.984375 L 72.226562 67.671875 L 69.6875 70.15625 L 67.121094 72.667969 L 64.960938 74.265625 L 62.777344 75.863281 L 62.421875 75.710938 L 62.066406 75.582031 L 61.914062 75.988281 L 61.757812 76.394531 L 61.53125 76.242188 L 61.300781 76.113281 L 61.300781 76.546875 L 60.386719 76.976562 L 59.5 77.410156 L 59.21875 77.257812 L 58.941406 77.078125 L 58.582031 77.535156 C 58.40625 77.8125 58.253906 77.941406 58.253906 77.863281 C 58.253906 77.761719 57.949219 77.839844 57.59375 78.042969 L 56.933594 78.371094 L 56.578125 78.246094 L 56.222656 78.117188 L 56.070312 78.550781 L 55.890625 78.957031 L 55.304688 78.828125 L 54.722656 78.675781 L 54.46875 79.109375 C 54.316406 79.359375 54.1875 79.488281 54.1875 79.359375 L 54.1875 79.183594 L 53.554688 79.589844 L 52.894531 80.019531 L 52.589844 79.714844 L 52.15625 79.945312 C 51.925781 80.070312 50.785156 80.300781 49.589844 80.453125 L 47.457031 80.730469 L 43.898438 80.78125 L 40.34375 80.832031 Z M 39.199219 80.679688 " fill-opacity="1" fill-rule="nonzero"/><path fill="#0d6efe" d="M 29.085938 66.832031 L 28.222656 66.730469 L 26.851562 65.3125 L 25.480469 63.890625 L 25.226562 62.980469 C 24.820312 61.535156 24.921875 60.46875 25.859375 55.144531 C 26.367188 52.40625 27.207031 47.664062 27.742188 44.59375 L 28.730469 39.066406 L 28.476562 38.253906 L 28.222656 37.46875 L 27.003906 36.351562 L 26.089844 36.175781 L 25.175781 35.996094 L 24.160156 36.351562 L 23.167969 36.683594 L 22.683594 37.265625 L 22.226562 37.875 L 21.921875 39.699219 C 21.769531 40.6875 21.464844 42.109375 21.289062 42.820312 L 20.90625 44.113281 L 20.042969 45.203125 C 19.558594 45.8125 18.949219 46.421875 18.671875 46.570312 L 18.136719 46.851562 L 13.15625 46.824219 L 8.179688 46.800781 L 7.160156 45.683594 L 6.144531 44.570312 L 5.839844 43.351562 L 6.019531 40.28125 L 6.171875 37.214844 L 6.703125 35.058594 C 7.746094 30.648438 9.472656 26.539062 11.582031 23.367188 C 14.605469 18.878906 15.164062 18.171875 17.859375 15.609375 L 19.507812 14.035156 L 19.8125 14.011719 C 19.964844 14.011719 20.269531 13.808594 20.449219 13.53125 L 20.78125 13.074219 L 21.363281 12.894531 L 21.921875 12.71875 L 21.921875 12.261719 L 23.066406 11.753906 C 23.675781 11.476562 24.691406 10.917969 25.328125 10.488281 C 25.960938 10.054688 26.570312 9.699219 26.699219 9.699219 C 26.851562 9.699219 27.027344 9.523438 27.105469 9.292969 L 27.257812 8.890625 L 27.640625 9.042969 L 28.046875 9.191406 L 28.605469 8.863281 C 28.910156 8.710938 29.367188 8.40625 29.59375 8.203125 L 30.027344 7.847656 L 30.535156 8 L 31.042969 8.128906 L 31.324219 7.796875 L 31.601562 7.46875 L 32.414062 7.316406 C 32.871094 7.214844 33.507812 7.140625 33.863281 7.140625 L 34.5 7.113281 L 34.675781 6.835938 L 34.855469 6.53125 L 35.871094 6.53125 L 36.863281 6.503906 L 37.242188 6.175781 L 37.648438 5.871094 L 39.835938 6.074219 L 41.308594 5.769531 L 42.753906 5.492188 L 42.882812 5.617188 C 43.136719 5.847656 44.128906 5.921875 46.515625 5.898438 L 48.902344 5.871094 L 49.3125 6.226562 L 49.742188 6.605469 L 50.632812 6.605469 C 51.113281 6.582031 51.722656 6.683594 51.953125 6.785156 C 52.207031 6.886719 52.714844 6.988281 53.097656 6.988281 L 53.808594 7.039062 L 54.164062 7.367188 L 54.519531 7.722656 L 54.976562 7.59375 L 55.433594 7.46875 L 55.738281 7.824219 L 56.019531 8.179688 L 56.90625 8.179688 L 59.246094 9.320312 C 60.515625 9.953125 61.734375 10.460938 61.9375 10.460938 C 62.117188 10.460938 62.34375 10.5625 62.445312 10.6875 C 62.523438 10.839844 63.410156 11.476562 64.425781 12.136719 C 65.417969 12.792969 66.535156 13.605469 66.890625 13.910156 C 67.246094 14.214844 68.214844 15.101562 69.050781 15.835938 C 75.199219 21.339844 79.238281 28.949219 80.738281 37.898438 L 80.890625 38.835938 L 80.304688 39.34375 C 79.621094 40.003906 79.289062 40.003906 78.78125 39.445312 L 78.375 38.988281 L 78.070312 37.46875 C 77.128906 32.546875 75.277344 27.933594 72.53125 23.648438 L 71.644531 22.253906 L 68.113281 18.753906 C 66.179688 16.851562 64.476562 15.28125 64.351562 15.28125 C 64.222656 15.28125 63.96875 15.128906 63.792969 14.976562 C 63.183594 14.367188 61.402344 13.25 61.097656 13.25 L 60.792969 13.25 L 60.792969 12.742188 L 59.777344 12.742188 L 59.777344 12.539062 C 59.777344 12.335938 58.6875 11.832031 57.667969 11.578125 L 56.933594 11.398438 L 56.804688 11.070312 L 56.679688 10.714844 L 55.484375 10.714844 L 55.179688 10.207031 L 53.960938 10.207031 L 53.65625 9.699219 L 52.207031 9.699219 L 51.519531 9.34375 L 50.835938 8.992188 L 49.972656 9.117188 L 49.105469 9.269531 L 48.800781 8.992188 L 48.472656 8.738281 L 44.660156 8.6875 C 42.550781 8.6875 40.316406 8.636719 39.628906 8.585938 L 38.4375 8.507812 L 38.15625 8.863281 L 37.878906 9.191406 L 35.363281 9.191406 L 34.144531 10.003906 L 33.890625 9.828125 L 33.636719 9.675781 L 33.023438 10.082031 L 32.414062 10.460938 L 32.261719 10.285156 L 32.085938 10.132812 L 30.382812 10.941406 C 28.707031 11.753906 28.222656 11.984375 27.335938 12.464844 C 27.082031 12.589844 26.46875 12.894531 25.988281 13.125 C 25.503906 13.351562 24.769531 13.757812 24.335938 14.011719 C 23.929688 14.289062 23.394531 14.59375 23.191406 14.671875 C 22.582031 14.949219 20.117188 17.054688 18.925781 18.296875 C 16.433594 20.910156 15.875 21.59375 14.324219 23.851562 L 12.726562 26.210938 L 11.632812 28.542969 C 10.261719 31.433594 9.601562 33.4375 8.964844 36.65625 L 8.457031 39.167969 L 8.457031 43.375 L 9.246094 44.035156 L 10.03125 44.695312 L 15.953125 44.695312 L 17.019531 44.214844 L 18.085938 43.730469 L 18.492188 42.921875 L 18.898438 42.132812 L 19.382812 39.625 L 19.863281 37.136719 L 20.523438 35.871094 L 21.1875 34.601562 L 22.253906 34.195312 C 22.863281 33.96875 23.472656 33.792969 23.625 33.792969 L 23.90625 33.792969 L 24.058594 33.410156 L 24.183594 33.03125 L 25.023438 33.183594 C 27.132812 33.5625 28.960938 34.273438 29.59375 34.984375 C 29.847656 35.238281 30.257812 35.972656 30.535156 36.582031 L 31.070312 37.722656 L 31.070312 40.082031 L 30.535156 43.097656 C 30.257812 44.746094 29.847656 47.003906 29.671875 48.117188 C 29.46875 49.234375 28.910156 52.40625 28.425781 55.167969 C 27.917969 57.933594 27.511719 60.570312 27.511719 61 L 27.511719 61.8125 L 27.96875 62.699219 L 28.453125 63.585938 L 29.417969 64.042969 L 30.382812 64.527344 L 31.222656 64.375 L 32.035156 64.195312 L 32.921875 63.234375 L 33.8125 62.242188 L 33.964844 61.535156 C 34.09375 60.847656 36.683594 46.34375 38.460938 36.328125 C 38.867188 34.019531 39.683594 29.328125 40.316406 25.90625 L 41.433594 19.640625 L 42.019531 18.601562 L 42.578125 17.5625 L 43.570312 16.925781 L 44.535156 16.292969 L 45.371094 16.292969 L 45.828125 15.886719 L 46.289062 15.480469 L 47.683594 15.480469 L 47.785156 15.761719 L 47.886719 16.039062 L 49.082031 16.039062 L 50.277344 16.878906 L 51.445312 17.6875 L 52.664062 20.070312 L 52.664062 22.761719 L 51.925781 26.894531 L 51.164062 31.027344 L 50.859375 31.40625 L 50.582031 31.761719 L 49.464844 31.761719 L 49.160156 31.457031 L 48.851562 31.152344 L 48.851562 30.367188 C 48.851562 29.910156 49.132812 28.035156 49.488281 26.160156 L 50.125 22.761719 L 50.125 20.324219 L 49.3125 19.566406 C 48.851562 19.132812 48.191406 18.675781 47.835938 18.550781 L 47.226562 18.296875 L 46.261719 18.449219 L 45.320312 18.625 L 44.535156 19.488281 C 44.128906 19.972656 43.773438 20.453125 43.773438 20.554688 C 43.773438 20.65625 43.316406 23.242188 42.753906 26.308594 C 42.222656 29.378906 40.570312 38.734375 39.097656 47.105469 L 36.402344 62.320312 L 35.742188 63.664062 L 35.058594 64.984375 L 34.066406 65.792969 L 33.050781 66.582031 L 32.515625 66.65625 C 30.433594 66.910156 29.824219 66.933594 29.085938 66.832031 Z M 29.085938 66.832031 " fill-opacity="1" fill-rule="nonzero"/><g fill="#b1d0fd" fill-opacity="1"><g transform="translate(85.556431, 62.389325)"><g><path d="M 11.125 -11.890625 L 22.875 -11.890625 L 19.875 -26.78125 Z M 28.875 0 L 25.25 0 L 23.5 -8.796875 L 9.28125 -8.796875 L 4.09375 0 L 0.46875 0 L 21.40625 -34.578125 Z M 28.875 0 "/></g></g></g><g fill="#b1d0fd" fill-opacity="1"><g transform="translate(114.900441, 62.389325)"><g><path d="M 25.734375 -13.40625 L 22.109375 -13.40625 C 21.765625 -14.769531 21.085938 -15.847656 20.078125 -16.640625 C 18.992188 -17.472656 17.847656 -17.890625 16.640625 -17.890625 C 16.046875 -17.890625 15.46875 -17.832031 14.90625 -17.71875 C 14.351562 -17.601562 13.835938 -17.453125 13.359375 -17.265625 C 12.410156 -16.878906 11.539062 -16.335938 10.75 -15.640625 C 9.039062 -14.148438 7.992188 -12.425781 7.609375 -10.46875 C 7.234375 -8.375 7.597656 -6.613281 8.703125 -5.1875 C 9.847656 -3.726562 11.414062 -3 13.40625 -3 C 14.738281 -3 16.039062 -3.347656 17.3125 -4.046875 C 18.613281 -4.773438 19.675781 -5.707031 20.5 -6.84375 L 24.25 -6.84375 C 22.414062 -3.550781 19.707031 -1.300781 16.125 -0.09375 C 15.039062 0.28125 13.820312 0.46875 12.46875 0.46875 C 11.164062 0.46875 9.910156 0.1875 8.703125 -0.375 C 7.492188 -0.945312 6.507812 -1.742188 5.75 -2.765625 C 4.132812 -4.953125 3.613281 -7.519531 4.1875 -10.46875 C 4.757812 -13.414062 6.28125 -15.96875 8.75 -18.125 C 11.289062 -20.28125 14.035156 -21.359375 16.984375 -21.359375 C 19.390625 -21.359375 21.414062 -20.613281 23.0625 -19.125 C 24.65625 -17.695312 25.546875 -15.789062 25.734375 -13.40625 Z M 25.734375 -13.40625 "/></g></g></g><g fill="#b1d0fd" fill-opacity="1"><g transform="translate(139.678773, 62.389325)"><g><path d="M 22.265625 -10.46875 C 22.640625 -12.488281 22.273438 -14.265625 21.171875 -15.796875 C 20.023438 -17.316406 18.421875 -18.078125 16.359375 -18.078125 C 14.265625 -18.078125 12.363281 -17.316406 10.65625 -15.796875 C 8.9375 -14.265625 7.890625 -12.488281 7.515625 -10.46875 C 7.128906 -8.40625 7.476562 -6.628906 8.5625 -5.140625 C 9.707031 -3.617188 11.320312 -2.859375 13.40625 -2.859375 C 15.46875 -2.859375 17.359375 -3.617188 19.078125 -5.140625 C 20.816406 -6.691406 21.878906 -8.46875 22.265625 -10.46875 Z M 23.546875 0 L 20.21875 0 L 20.921875 -3.5625 C 20.796875 -3.4375 20.671875 -3.316406 20.546875 -3.203125 C 20.421875 -3.097656 20.296875 -2.984375 20.171875 -2.859375 C 17.753906 -0.640625 15.101562 0.46875 12.21875 0.46875 C 9.300781 0.46875 7.082031 -0.640625 5.5625 -2.859375 C 4.070312 -4.984375 3.613281 -7.519531 4.1875 -10.46875 C 4.757812 -13.414062 6.203125 -15.953125 8.515625 -18.078125 C 10.921875 -20.296875 13.566406 -21.40625 16.453125 -21.40625 C 19.367188 -21.40625 21.585938 -20.296875 23.109375 -18.078125 C 23.171875 -17.953125 23.25 -17.832031 23.34375 -17.71875 C 23.445312 -17.601562 23.53125 -17.484375 23.59375 -17.359375 L 24.296875 -20.921875 L 27.640625 -20.921875 Z M 23.546875 0 "/></g></g></g><g fill="#b1d0fd" fill-opacity="1"><g transform="translate(166.7875, 62.389325)"><g><path d="M 22.265625 -10.46875 C 22.640625 -12.488281 22.273438 -14.265625 21.171875 -15.796875 C 20.023438 -17.316406 18.421875 -18.078125 16.359375 -18.078125 C 14.265625 -18.078125 12.363281 -17.316406 10.65625 -15.796875 C 8.9375 -14.265625 7.890625 -12.488281 7.515625 -10.46875 C 7.128906 -8.40625 7.476562 -6.628906 8.5625 -5.140625 C 9.707031 -3.617188 11.320312 -2.859375 13.40625 -2.859375 C 15.46875 -2.859375 17.359375 -3.617188 19.078125 -5.140625 C 20.816406 -6.691406 21.878906 -8.46875 22.265625 -10.46875 Z M 23.546875 0 L 20.21875 0 L 20.921875 -3.5625 C 20.796875 -3.4375 20.671875 -3.316406 20.546875 -3.203125 C 20.421875 -3.097656 20.296875 -2.984375 20.171875 -2.859375 C 17.753906 -0.640625 15.101562 0.46875 12.21875 0.46875 C 9.300781 0.46875 7.082031 -0.640625 5.5625 -2.859375 C 4.070312 -4.984375 3.613281 -7.519531 4.1875 -10.46875 C 4.757812 -13.414062 6.203125 -15.953125 8.515625 -18.078125 C 10.921875 -20.296875 13.566406 -21.40625 16.453125 -21.40625 C 19.367188 -21.40625 21.585938 -20.296875 23.109375 -18.078125 C 23.171875 -17.953125 23.25 -17.832031 23.34375 -17.71875 C 23.445312 -17.601562 23.53125 -17.484375 23.59375 -17.359375 L 27.15625 -35.671875 L 30.484375 -35.671875 Z M 23.546875 0 "/></g></g></g><g fill="#b1d0fd" fill-opacity="1"><g transform="translate(193.896233, 62.389325)"><g><path d="M 12.40625 -28.15625 C 12.726562 -27.738281 12.84375 -27.234375 12.75 -26.640625 C 12.65625 -26.128906 12.351562 -25.632812 11.84375 -25.15625 C 11.394531 -24.75 10.851562 -24.546875 10.21875 -24.546875 C 9.625 -24.546875 9.164062 -24.75 8.84375 -25.15625 C 8.53125 -25.570312 8.421875 -26.066406 8.515625 -26.640625 C 8.609375 -27.203125 8.910156 -27.707031 9.421875 -28.15625 C 9.859375 -28.570312 10.394531 -28.78125 11.03125 -28.78125 C 11.632812 -28.78125 12.09375 -28.570312 12.40625 -28.15625 Z M 7.140625 0 L 3.8125 0 L 7.890625 -20.921875 L 11.21875 -20.921875 Z M 7.140625 0 "/></g></g></g><g fill="#b1d0fd" fill-opacity="1"><g transform="translate(204.787282, 62.389325)"><g><path d="M 21.125 -32.578125 L 18.265625 -32.578125 C 17.117188 -32.578125 16.34375 -32.320312 15.9375 -31.8125 C 15.457031 -31.25 15.15625 -30.632812 15.03125 -29.96875 L 13.3125 -20.921875 L 18.875 -20.921875 L 18.265625 -17.84375 L 12.703125 -17.84375 L 9.234375 0 L 5.890625 0 L 9.375 -17.84375 L 5.140625 -17.84375 L 5.75 -20.921875 L 9.984375 -20.921875 L 11.5625 -29.015625 C 11.78125 -30.085938 12.085938 -31.035156 12.484375 -31.859375 C 12.878906 -32.691406 13.378906 -33.390625 13.984375 -33.953125 C 15.222656 -35.097656 17.015625 -35.671875 19.359375 -35.671875 L 21.734375 -35.671875 Z M 21.125 -32.578125 "/></g></g></g><g fill="#b1d0fd" fill-opacity="1"><g transform="translate(221.004965, 62.389325)"><g><path d="M 3.90625 11.890625 L -0.140625 11.890625 L 9.890625 -3.421875 L 4.5625 -20.921875 L 8.375 -20.921875 L 12.3125 -6.890625 L 21.0625 -20.921875 L 24.78125 -20.921875 Z M 3.90625 11.890625 "/></g></g></g><g fill="#0d6efe" fill-opacity="1"><g transform="translate(88.464644, 59.580895)"><g><path d="M 11.125 -11.890625 L 22.875 -11.890625 L 19.875 -26.78125 Z M 28.875 0 L 25.25 0 L 23.5 -8.796875 L 9.28125 -8.796875 L 4.09375 0 L 0.46875 0 L 21.40625 -34.578125 Z M 28.875 0 "/></g></g></g><g fill="#0d6efe" fill-opacity="1"><g transform="translate(117.808653, 59.580895)"><g><path d="M 25.734375 -13.40625 L 22.109375 -13.40625 C 21.765625 -14.769531 21.085938 -15.847656 20.078125 -16.640625 C 18.992188 -17.472656 17.847656 -17.890625 16.640625 -17.890625 C 16.046875 -17.890625 15.46875 -17.832031 14.90625 -17.71875 C 14.351562 -17.601562 13.835938 -17.453125 13.359375 -17.265625 C 12.410156 -16.878906 11.539062 -16.335938 10.75 -15.640625 C 9.039062 -14.148438 7.992188 -12.425781 7.609375 -10.46875 C 7.234375 -8.375 7.597656 -6.613281 8.703125 -5.1875 C 9.847656 -3.726562 11.414062 -3 13.40625 -3 C 14.738281 -3 16.039062 -3.347656 17.3125 -4.046875 C 18.613281 -4.773438 19.675781 -5.707031 20.5 -6.84375 L 24.25 -6.84375 C 22.414062 -3.550781 19.707031 -1.300781 16.125 -0.09375 C 15.039062 0.28125 13.820312 0.46875 12.46875 0.46875 C 11.164062 0.46875 9.910156 0.1875 8.703125 -0.375 C 7.492188 -0.945312 6.507812 -1.742188 5.75 -2.765625 C 4.132812 -4.953125 3.613281 -7.519531 4.1875 -10.46875 C 4.757812 -13.414062 6.28125 -15.96875 8.75 -18.125 C 11.289062 -20.28125 14.035156 -21.359375 16.984375 -21.359375 C 19.390625 -21.359375 21.414062 -20.613281 23.0625 -19.125 C 24.65625 -17.695312 25.546875 -15.789062 25.734375 -13.40625 Z M 25.734375 -13.40625 "/></g></g></g><g fill="#0d6efe" fill-opacity="1"><g transform="translate(142.586985, 59.580895)"><g><path d="M 22.265625 -10.46875 C 22.640625 -12.488281 22.273438 -14.265625 21.171875 -15.796875 C 20.023438 -17.316406 18.421875 -18.078125 16.359375 -18.078125 C 14.265625 -18.078125 12.363281 -17.316406 10.65625 -15.796875 C 8.9375 -14.265625 7.890625 -12.488281 7.515625 -10.46875 C 7.128906 -8.40625 7.476562 -6.628906 8.5625 -5.140625 C 9.707031 -3.617188 11.320312 -2.859375 13.40625 -2.859375 C 15.46875 -2.859375 17.359375 -3.617188 19.078125 -5.140625 C 20.816406 -6.691406 21.878906 -8.46875 22.265625 -10.46875 Z M 23.546875 0 L 20.21875 0 L 20.921875 -3.5625 C 20.796875 -3.4375 20.671875 -3.316406 20.546875 -3.203125 C 20.421875 -3.097656 20.296875 -2.984375 20.171875 -2.859375 C 17.753906 -0.640625 15.101562 0.46875 12.21875 0.46875 C 9.300781 0.46875 7.082031 -0.640625 5.5625 -2.859375 C 4.070312 -4.984375 3.613281 -7.519531 4.1875 -10.46875 C 4.757812 -13.414062 6.203125 -15.953125 8.515625 -18.078125 C 10.921875 -20.296875 13.566406 -21.40625 16.453125 -21.40625 C 19.367188 -21.40625 21.585938 -20.296875 23.109375 -18.078125 C 23.171875 -17.953125 23.25 -17.832031 23.34375 -17.71875 C 23.445312 -17.601562 23.53125 -17.484375 23.59375 -17.359375 L 24.296875 -20.921875 L 27.640625 -20.921875 Z M 23.546875 0 "/></g></g></g><g fill="#0d6efe" fill-opacity="1"><g transform="translate(169.695712, 59.580895)"><g><path d="M 22.265625 -10.46875 C 22.640625 -12.488281 22.273438 -14.265625 21.171875 -15.796875 C 20.023438 -17.316406 18.421875 -18.078125 16.359375 -18.078125 C 14.265625 -18.078125 12.363281 -17.316406 10.65625 -15.796875 C 8.9375 -14.265625 7.890625 -12.488281 7.515625 -10.46875 C 7.128906 -8.40625 7.476562 -6.628906 8.5625 -5.140625 C 9.707031 -3.617188 11.320312 -2.859375 13.40625 -2.859375 C 15.46875 -2.859375 17.359375 -3.617188 19.078125 -5.140625 C 20.816406 -6.691406 21.878906 -8.46875 22.265625 -10.46875 Z M 23.546875 0 L 20.21875 0 L 20.921875 -3.5625 C 20.796875 -3.4375 20.671875 -3.316406 20.546875 -3.203125 C 20.421875 -3.097656 20.296875 -2.984375 20.171875 -2.859375 C 17.753906 -0.640625 15.101562 0.46875 12.21875 0.46875 C 9.300781 0.46875 7.082031 -0.640625 5.5625 -2.859375 C 4.070312 -4.984375 3.613281 -7.519531 4.1875 -10.46875 C 4.757812 -13.414062 6.203125 -15.953125 8.515625 -18.078125 C 10.921875 -20.296875 13.566406 -21.40625 16.453125 -21.40625 C 19.367188 -21.40625 21.585938 -20.296875 23.109375 -18.078125 C 23.171875 -17.953125 23.25 -17.832031 23.34375 -17.71875 C 23.445312 -17.601562 23.53125 -17.484375 23.59375 -17.359375 L 27.15625 -35.671875 L 30.484375 -35.671875 Z M 23.546875 0 "/></g></g></g><g fill="#0d6efe" fill-opacity="1"><g transform="translate(196.804445, 59.580895)"><g><path d="M 12.40625 -28.15625 C 12.726562 -27.738281 12.84375 -27.234375 12.75 -26.640625 C 12.65625 -26.128906 12.351562 -25.632812 11.84375 -25.15625 C 11.394531 -24.75 10.851562 -24.546875 10.21875 -24.546875 C 9.625 -24.546875 9.164062 -24.75 8.84375 -25.15625 C 8.53125 -25.570312 8.421875 -26.066406 8.515625 -26.640625 C 8.609375 -27.203125 8.910156 -27.707031 9.421875 -28.15625 C 9.859375 -28.570312 10.394531 -28.78125 11.03125 -28.78125 C 11.632812 -28.78125 12.09375 -28.570312 12.40625 -28.15625 Z M 7.140625 0 L 3.8125 0 L 7.890625 -20.921875 L 11.21875 -20.921875 Z M 7.140625 0 "/></g></g></g><g fill="#0d6efe" fill-opacity="1"><g transform="translate(207.695494, 59.580895)"><g><path d="M 21.125 -32.578125 L 18.265625 -32.578125 C 17.117188 -32.578125 16.34375 -32.320312 15.9375 -31.8125 C 15.457031 -31.25 15.15625 -30.632812 15.03125 -29.96875 L 13.3125 -20.921875 L 18.875 -20.921875 L 18.265625 -17.84375 L 12.703125 -17.84375 L 9.234375 0 L 5.890625 0 L 9.375 -17.84375 L 5.140625 -17.84375 L 5.75 -20.921875 L 9.984375 -20.921875 L 11.5625 -29.015625 C 11.78125 -30.085938 12.085938 -31.035156 12.484375 -31.859375 C 12.878906 -32.691406 13.378906 -33.390625 13.984375 -33.953125 C 15.222656 -35.097656 17.015625 -35.671875 19.359375 -35.671875 L 21.734375 -35.671875 Z M 21.125 -32.578125 "/></g></g></g><g fill="#0d6efe" fill-opacity="1"><g transform="translate(223.913178, 59.580895)"><g><path d="M 3.90625 11.890625 L -0.140625 11.890625 L 9.890625 -3.421875 L 4.5625 -20.921875 L 8.375 -20.921875 L 12.3125 -6.890625 L 21.0625 -20.921875 L 24.78125 -20.921875 Z M 3.90625 11.890625 "/></g></g></g></svg>